<svg version="1.1" viewBox="0.0 0.0 1024.0 768.0" fill="none" stroke="none" stroke-linecap="square" stroke-miterlimit="10" xmlns:xlink="http://www.w3.org/1999/xlink" xmlns="http://www.w3.org/2000/svg"><clipPath id="p.0"><path d="m0 0l1024.0 0l0 768.0l-1024.0 0l0 -768.0z" clip-rule="nonzero"/></clipPath><g clip-path="url(#p.0)"><path fill="#000000" fill-opacity="0.0" d="m0 0l1024.0 0l0 768.0l-1024.0 0z" fill-rule="evenodd"/><path fill="#f3f3f3" d="m98.64774 148.76337l0 0c-1.660286 -6.6950836 3.7907639 -13.322784 14.040085 -17.07077c10.249313 -3.747963 23.499382 -3.9588852 34.12771 -0.54325867l0 0c3.7648773 -3.892784 10.655701 -6.58049 18.588135 -7.2501297c7.932419 -0.6696396 15.974762 0.7574463 21.694366 3.8495789l0 0c3.207199 -3.529457 9.504578 -5.9008026 16.657501 -6.2725525c7.1529236 -0.3717575 14.149078 1.3086853 18.505875 4.4450226l0 0c5.7942505 -3.741211 15.013077 -5.3164215 23.667404 -4.044014c8.654327 1.2723999 15.189804 5.163872 16.778458 9.990555l0 0c7.098938 1.0625153 13.012207 3.7635956 16.212006 7.4053345c3.199829 3.6417542 3.3722534 7.866928 0.47277832 11.583878l0 0c6.990387 4.992279 8.62561 11.64444 4.2954407 17.473999c-4.3301697 5.8295593 -13.975189 9.960693 -25.335724 10.851746c-0.080078125 5.4712524 -5.5484314 10.491608 -14.297333 13.126007c-8.748901 2.6343842 -19.41217 2.4714508 -27.87973 -0.42601013l0 0c-3.60672 6.552765 -13.758453 11.374222 -26.069275 12.381332c-12.310822 1.0071106 -24.573761 -1.9806671 -31.490784 -7.672531l0 0c-8.478821 2.805542 -18.65271 3.6137238 -28.226639 2.2422485c-9.573914 -1.3714752 -17.74141 -4.807083 -22.660065 -9.531815l0 0c-8.664291 0.5563507 -17.041466 -1.9068451 -20.97396 -6.1671295c-3.932495 -4.2602844 -2.5831757 -9.410721 3.378296 -12.895172l0 0c-7.728775 -2.496109 -11.672462 -7.4492035 -9.774582 -12.2764435c1.8978806 -4.82724 9.20726 -8.434753 18.116585 -8.94136z" fill-rule="evenodd"/><path fill="#000000" fill-opacity="0.0" d="m90.134476 170.2392l0 0c3.647232 1.1779175 7.8606415 1.7122498 12.074509 1.53125m5.5192566 17.531494c1.8121185 -0.116363525 3.5883408 -0.36276245 5.282852 -0.7328644m45.60132 8.022125c-1.2745209 -1.0487823 -2.341629 -2.1694794 -3.1831207 -3.3430328m60.74539 -1.365982l0 0c0.657547 -1.1946564 1.0836029 -2.4242249 1.2710114 -3.6681976m40.904434 -9.031326c0.08526611 -5.8249817 -5.944153 -11.1584015 -15.498413 -13.709396m36.538483 -14.615738c-1.5472717 1.9835205 -3.9093628 3.7430725 -6.9010925 5.1407013m-9.782227 -24.130432l0 0c0.26364136 0.8009949 0.38565063 1.6140137 0.36434937 2.427826m-40.809525 -8.374123l0 0c-1.4453735 0.9332504 -2.6361694 1.9761353 -3.535324 3.096199m-31.628372 -1.2690811l0 0c-0.7702637 0.8476639 -1.3454437 1.7446365 -1.7122955 2.67025m-38.5708 0.7303772l0 0c2.2489471 0.7227478 4.329529 1.5926514 6.196045 2.5906067m-54.363213 15.023514l0 0c0.22882843 0.92274475 0.59039307 1.8341217 1.0813065 2.7256012" fill-rule="evenodd"/><path stroke="#000000" stroke-width="2.0" stroke-linejoin="round" stroke-linecap="butt" d="m98.64774 148.76337l0 0c-1.660286 -6.6950836 3.7907639 -13.322784 14.040085 -17.07077c10.249313 -3.747963 23.499382 -3.9588852 34.12771 -0.54325867l0 0c3.7648773 -3.892784 10.655701 -6.58049 18.588135 -7.2501297c7.932419 -0.6696396 15.974762 0.7574463 21.694366 3.8495789l0 0c3.207199 -3.529457 9.504578 -5.9008026 16.657501 -6.2725525c7.1529236 -0.3717575 14.149078 1.3086853 18.505875 4.4450226l0 0c5.7942505 -3.741211 15.013077 -5.3164215 23.667404 -4.044014c8.654327 1.2723999 15.189804 5.163872 16.778458 9.990555l0 0c7.098938 1.0625153 13.012207 3.7635956 16.212006 7.4053345c3.199829 3.6417542 3.3722534 7.866928 0.47277832 11.583878l0 0c6.990387 4.992279 8.62561 11.64444 4.2954407 17.473999c-4.3301697 5.8295593 -13.975189 9.960693 -25.335724 10.851746c-0.080078125 5.4712524 -5.5484314 10.491608 -14.297333 13.126007c-8.748901 2.6343842 -19.41217 2.4714508 -27.87973 -0.42601013l0 0c-3.60672 6.552765 -13.758453 11.374222 -26.069275 12.381332c-12.310822 1.0071106 -24.573761 -1.9806671 -31.490784 -7.672531l0 0c-8.478821 2.805542 -18.65271 3.6137238 -28.226639 2.2422485c-9.573914 -1.3714752 -17.74141 -4.807083 -22.660065 -9.531815l0 0c-8.664291 0.5563507 -17.041466 -1.9068451 -20.97396 -6.1671295c-3.932495 -4.2602844 -2.5831757 -9.410721 3.378296 -12.895172l0 0c-7.728775 -2.496109 -11.672462 -7.4492035 -9.774582 -12.2764435c1.8978806 -4.82724 9.20726 -8.434753 18.116585 -8.94136z" fill-rule="evenodd"/><path stroke="#000000" stroke-width="2.0" stroke-linejoin="round" stroke-linecap="butt" d="m90.134476 170.2392l0 0c3.647232 1.1779175 7.8606415 1.7122498 12.074509 1.53125m5.5192566 17.531494c1.8121185 -0.116363525 3.5883408 -0.36276245 5.282852 -0.7328644m45.60132 8.022125c-1.2745209 -1.0487823 -2.341629 -2.1694794 -3.1831207 -3.3430328m60.74539 -1.365982l0 0c0.657547 -1.1946564 1.0836029 -2.4242249 1.2710114 -3.6681976m40.904434 -9.031326c0.08526611 -5.8249817 -5.944153 -11.1584015 -15.498413 -13.709396m36.538483 -14.615738c-1.5472717 1.9835205 -3.9093628 3.7430725 -6.9010925 5.1407013m-9.782227 -24.130432l0 0c0.26364136 0.8009949 0.38565063 1.6140137 0.36434937 2.427826m-40.809525 -8.374123l0 0c-1.4453735 0.9332504 -2.6361694 1.9761353 -3.535324 3.096199m-31.628372 -1.2690811l0 0c-0.7702637 0.8476639 -1.3454437 1.7446365 -1.7122955 2.67025m-38.5708 0.7303772l0 0c2.2489471 0.7227478 4.329529 1.5926514 6.196045 2.5906067m-54.363213 15.023514l0 0c0.22882843 0.92274475 0.59039307 1.8341217 1.0813065 2.7256012" fill-rule="evenodd"/><path fill="#ead1dc" d="m366.87402 103.58971l63.67276 0l0 117.24756l-63.67276 0z" fill-rule="evenodd"/><path fill="#bba7af" d="m430.54678 103.58971l3.5713196 -3.5713348l0 117.24756l-3.5713196 3.5713348z" fill-rule="evenodd"/><path fill="#eedae3" d="m366.87402 103.58971l3.5713196 -3.5713348l63.67276 0l-3.5713196 3.5713348z" fill-rule="evenodd"/><path fill="#000000" fill-opacity="0.0" d="m366.87402 103.58971l3.5713196 -3.5713348l63.67276 0l0 117.24756l-3.5713196 3.5713348l-63.67276 0zm0 0l63.67276 0l3.5713196 -3.5713348m-3.5713196 3.5713348l0 117.24756" fill-rule="evenodd"/><path stroke="#000000" stroke-width="2.0" stroke-linejoin="round" stroke-linecap="butt" d="m366.87402 103.58971l3.5713196 -3.5713348l63.67276 0l0 117.24756l-3.5713196 3.5713348l-63.67276 0zm0 0l63.67276 0l3.5713196 -3.5713348m-3.5713196 3.5713348l0 117.24756" fill-rule="evenodd"/><path fill="#000000" d="m388.37402 162.05661q0 2.03125 -0.765625 3.484375q-0.75 1.453125 -2.0625 2.21875q-1.296875 0.765625 -2.953125 0.765625q-1.65625 0 -2.96875 -0.765625q-1.3125 -0.78125 -2.078125 -2.21875q-0.75 -1.453125 -0.75 -3.484375q0 -2.046875 0.75 -3.484375q0.765625 -1.453125 2.078125 -2.21875q1.3125 -0.78125 2.96875 -0.78125q1.65625 0 2.953125 0.78125q1.3125 0.765625 2.0625 2.21875q0.765625 1.4375 0.765625 3.484375zm-2.296875 0q0 -1.4375 -0.453125 -2.421875q-0.4375 -0.984375 -1.234375 -1.484375q-0.78125 -0.515625 -1.796875 -0.515625q-1.03125 0 -1.828125 0.515625q-0.78125 0.5 -1.234375 1.484375q-0.4375 0.984375 -0.4375 2.421875q0 1.421875 0.4375 2.421875q0.453125 0.984375 1.234375 1.5q0.796875 0.5 1.828125 0.5q1.015625 0 1.796875 -0.5q0.796875 -0.515625 1.234375 -1.5q0.453125 -1.0 0.453125 -2.421875zm14.81723 -6.3125l0 12.609375l-2.03125 0l-5.9375 -8.578125l-0.09375 0l0 8.578125l-2.28125 0l0 -12.609375l2.03125 0l5.9375 8.59375l0.109375 0l0 -8.59375l2.265625 0zm1.9296265 1.921875l0 -1.921875l10.0625 0l0 1.921875l-3.90625 0l0 10.6875l-2.265625 0l0 -10.6875l-3.890625 0z" fill-rule="nonzero"/><path fill="#ead1dc" d="m532.8714 105.374535l95.4942 0l0 115.46273l-95.4942 0z" fill-rule="evenodd"/><path fill="#bba7af" d="m628.3656 105.374535l5.356201 -5.356163l0 115.46274l-5.356201 5.3561554z" fill-rule="evenodd"/><path fill="#eedae3" d="m532.8714 105.374535l5.35614 -5.356163l95.49426 0l-5.356201 5.356163z" fill-rule="evenodd"/><path fill="#000000" fill-opacity="0.0" d="m532.8714 105.374535l5.35614 -5.356163l95.49426 0l0 115.46274l-5.356201 5.3561554l-95.4942 0zm0 0l95.4942 0l5.356201 -5.356163m-5.356201 5.356163l0 115.46273" fill-rule="evenodd"/><path stroke="#000000" stroke-width="2.0" stroke-linejoin="round" stroke-linecap="butt" d="m532.8714 105.374535l5.35614 -5.356163l95.49426 0l0 115.46274l-5.356201 5.3561554l-95.4942 0zm0 0l95.4942 0l5.356201 -5.356163m-5.356201 5.356163l0 115.46273" fill-rule="evenodd"/><path fill="#000000" d="m551.5589 160.66777q-0.15625 -0.5 -0.421875 -0.890625q-0.265625 -0.40625 -0.640625 -0.6875q-0.375 -0.28125 -0.859375 -0.421875q-0.46875 -0.140625 -1.046875 -0.140625q-1.015625 0 -1.8125 0.515625q-0.78125 0.5 -1.234375 1.484375q-0.453125 0.984375 -0.453125 2.40625q0 1.421875 0.4375 2.421875q0.453125 0.984375 1.25 1.5q0.8125 0.515625 1.875 0.515625q0.953125 0 1.65625 -0.359375q0.703125 -0.375 1.078125 -1.046875q0.390625 -0.6875 0.390625 -1.609375l0.515625 0.078125l-3.421875 0l0 -1.78125l5.109375 0l0 1.515625q0 1.609375 -0.6875 2.796875q-0.6875 1.1875 -1.890625 1.828125q-1.203125 0.62501526 -2.765625 0.62501526q-1.75 0 -3.0625 -0.78126526q-1.3125 -0.78125 -2.046875 -2.234375q-0.734375 -1.453125 -0.734375 -3.4375q0 -1.53125 0.4375 -2.734375q0.4375 -1.203125 1.21875 -2.03125q0.78125 -0.84375 1.828125 -1.28125q1.046875 -0.453125 2.28125 -0.453125q1.046875 0 1.953125 0.3125q0.90625 0.296875 1.609375 0.859375q0.703125 0.5625 1.15625 1.34375q0.46875 0.765625 0.609375 1.6875l-2.328125 0zm7.2539062 8.76564q-0.890625 0 -1.609375 -0.31251526q-0.71875 -0.328125 -1.140625 -0.953125q-0.40625 -0.640625 -0.40625 -1.578125q0 -0.796875 0.296875 -1.3125q0.296875 -0.53125 0.796875 -0.84375q0.515625 -0.3125 1.15625 -0.46875q0.640625 -0.171875 1.328125 -0.25q0.84375 -0.078125 1.359375 -0.140625q0.515625 -0.078125 0.75 -0.234375q0.234375 -0.15625 0.234375 -0.46875l0 -0.03125q0 -0.703125 -0.421875 -1.078125q-0.40625 -0.390625 -1.171875 -0.390625q-0.828125 0 -1.3125 0.359375q-0.46875 0.359375 -0.625 0.84375l-2.078125 -0.296875q0.234375 -0.859375 0.796875 -1.4375q0.578125 -0.578125 1.390625 -0.875q0.828125 -0.296875 1.8125 -0.296875q0.6875 0 1.359375 0.171875q0.671875 0.15625 1.234375 0.53125q0.5625 0.359375 0.90625 0.984375q0.34375 0.625 0.34375 1.5625l0 6.328125l-2.140625 0l0 -1.296875l-0.078125 0q-0.203125 0.390625 -0.578125 0.734375q-0.359375 0.34375 -0.90625 0.546875q-0.546875 0.20314026 -1.296875 0.20314026zm0.578125 -1.6406403q0.671875 0 1.15625 -0.265625q0.5 -0.265625 0.765625 -0.703125q0.28125 -0.453125 0.28125 -0.96875l0 -1.109375q-0.109375 0.078125 -0.359375 0.15625q-0.25 0.078125 -0.5625 0.140625q-0.296875 0.046875 -0.609375 0.09375q-0.296875 0.03125 -0.515625 0.0625q-0.5 0.078125 -0.90625 0.234375q-0.390625 0.140625 -0.625 0.421875q-0.21875 0.265625 -0.21875 0.703125q0 0.609375 0.453125 0.921875q0.453125 0.3125 1.140625 0.3125zm11.377991 -8.0l0 1.71875l-5.421875 0l0 -1.71875l5.421875 0zm-4.09375 -2.265625l2.234375 0l0 8.875q0 0.453125 0.140625 0.6875q0.140625 0.234375 0.359375 0.328125q0.234375 0.078125 0.515625 0.078125q0.203125 0 0.375 -0.03125q0.171875 -0.03125 0.265625 -0.046875l0.375 1.734375q-0.171875 0.0625 -0.5 0.125q-0.328125 0.078125 -0.8125 0.09375q-0.828125 0.03126526 -1.5 -0.25q-0.671875 -0.28125 -1.0625 -0.875q-0.390625 -0.59375 -0.390625 -1.46875l0 -9.25zm10.048035 11.906265q-1.421875 0 -2.453125 -0.59376526q-1.03125 -0.59375 -1.59375 -1.6875q-0.546875 -1.09375 -0.546875 -2.578125q0 -1.453125 0.5625 -2.5625q0.5625 -1.109375 1.5625 -1.71875q1.0 -0.625 2.359375 -0.625q0.859375 0 1.640625 0.28125q0.78125 0.28125 1.375 0.875q0.609375 0.578125 0.953125 1.484375q0.34375 0.890625 0.34375 2.140625l0 0.6875l-7.75 0l0 -1.515625l5.609375 0q0 -0.640625 -0.28125 -1.140625q-0.265625 -0.5 -0.75 -0.78125q-0.484375 -0.296875 -1.109375 -0.296875q-0.6875 0 -1.203125 0.328125q-0.515625 0.328125 -0.8125 0.875q-0.28125 0.53125 -0.28125 1.15625l0 1.3125q0 0.828125 0.296875 1.421875q0.296875 0.578125 0.84375 0.890625q0.546875 0.3125 1.265625 0.3125q0.484375 0 0.875 -0.140625q0.40625 -0.140625 0.6875 -0.40625q0.296875 -0.28125 0.4375 -0.671875l2.078125 0.234375q-0.1875 0.828125 -0.75 1.4375q-0.546875 0.609375 -1.40625 0.953125q-0.84375 0.32814026 -1.953125 0.32814026zm7.986328 -0.18751526l-2.671875 -9.453125l2.265625 0l1.671875 6.640625l0.078125 0l1.703125 -6.640625l2.25 0l1.6875 6.609375l0.09375 0l1.640625 -6.609375l2.28125 0l-2.671875 9.453125l-2.328125 0l-1.765625 -6.390625l-0.140625 0l-1.765625 6.390625l-2.328125 0zm15.2752075 0.18751526q-0.890625 0 -1.609375 -0.31251526q-0.71875 -0.328125 -1.140625 -0.953125q-0.40625 -0.640625 -0.40625 -1.578125q0 -0.796875 0.296875 -1.3125q0.296875 -0.53125 0.796875 -0.84375q0.515625 -0.3125 1.15625 -0.46875q0.640625 -0.171875 1.328125 -0.25q0.84375 -0.078125 1.359375 -0.140625q0.515625 -0.078125 0.75 -0.234375q0.234375 -0.15625 0.234375 -0.46875l0 -0.03125q0 -0.703125 -0.421875 -1.078125q-0.40625 -0.390625 -1.171875 -0.390625q-0.828125 0 -1.3125 0.359375q-0.46875 0.359375 -0.625 0.84375l-2.078125 -0.296875q0.234375 -0.859375 0.796875 -1.4375q0.578125 -0.578125 1.390625 -0.875q0.828125 -0.296875 1.8125 -0.296875q0.6875 0 1.359375 0.171875q0.671875 0.15625 1.234375 0.53125q0.5625 0.359375 0.90625 0.984375q0.34375 0.625 0.34375 1.5625l0 6.328125l-2.140625 0l0 -1.296875l-0.078125 0q-0.203125 0.390625 -0.578125 0.734375q-0.359375 0.34375 -0.90625 0.546875q-0.546875 0.20314026 -1.296875 0.20314026zm0.578125 -1.6406403q0.671875 0 1.15625 -0.265625q0.5 -0.265625 0.765625 -0.703125q0.28125 -0.453125 0.28125 -0.96875l0 -1.109375q-0.109375 0.078125 -0.359375 0.15625q-0.25 0.078125 -0.5625 0.140625q-0.296875 0.046875 -0.609375 0.09375q-0.296875 0.03125 -0.515625 0.0625q-0.5 0.078125 -0.90625 0.234375q-0.390625 0.140625 -0.625 0.421875q-0.21875 0.265625 -0.21875 0.703125q0 0.609375 0.453125 0.921875q0.453125 0.3125 1.140625 0.3125zm7.705139 5.0000153q-0.453125 0 -0.84375 -0.078125q-0.390625 -0.0625 -0.609375 -0.15625l0.515625 -1.734375q0.484375 0.140625 0.859375 0.125q0.390625 0 0.671875 -0.234375q0.296875 -0.21875 0.5 -0.765625l0.203125 -0.5l-3.4375 -9.656265l2.359375 0l2.1875 7.140625l0.09375 0l2.1875 -7.140625l2.375 0l-3.796875 10.593765q-0.265625 0.75 -0.703125 1.28125q-0.421875 0.546875 -1.0625 0.828125q-0.625 0.296875 -1.5 0.296875z" fill-rule="nonzero"/><path fill="#000000" fill-opacity="0.0" d="m285.80615 162.65407l81.07086 -0.4409485" fill-rule="evenodd"/><path stroke="#6aa84f" stroke-width="4.0" stroke-linejoin="round" stroke-linecap="butt" d="m285.80615 162.65407l81.07086 -0.4409485" fill-rule="evenodd"/><path fill="#000000" fill-opacity="0.0" d="m430.54678 162.21349l102.33072 0.881897" fill-rule="evenodd"/><path stroke="#e06666" stroke-width="4.0" stroke-linejoin="round" stroke-linecap="butt" d="m430.54678 162.21349l102.33072 0.881897" fill-rule="evenodd"/><path fill="#000000" fill-opacity="0.0" d="m290.2848 121.154854l72.28345 0l0 40.409447l-72.28345 0z" fill-rule="evenodd"/><path fill="#000000" d="m300.5348 146.79486l0 -12.609375l8.0625 0l0 1.921875l-5.78125 0l0 3.421875l5.234375 0l0 1.90625l-5.234375 0l0 5.359375l-2.28125 0zm10.037476 0l0 -9.453125l2.234375 0l0 9.453125l-2.234375 0zm1.125 -10.796875q-0.53125 0 -0.921875 -0.34375q-0.375 -0.359375 -0.375 -0.859375q0 -0.5 0.375 -0.859375q0.390625 -0.359375 0.921875 -0.359375q0.53125 0 0.90625 0.359375q0.390625 0.359375 0.390625 0.859375q0 0.5 -0.390625 0.859375q-0.375 0.34375 -0.90625 0.34375zm3.500946 10.796875l0 -12.609375l2.21875 0l0 4.71875l0.09375 0q0.171875 -0.34375 0.484375 -0.734375q0.3125 -0.390625 0.84375 -0.671875q0.546875 -0.28125 1.375 -0.28125q1.09375 0 1.96875 0.5625q0.890625 0.5625 1.40625 1.65625q0.53125 1.078125 0.53125 2.640625q0 1.5625 -0.515625 2.65625q-0.515625 1.078125 -1.390625 1.65625q-0.875 0.578125 -2.0 0.578125q-0.8125 0 -1.34375 -0.265625q-0.53125 -0.28125 -0.859375 -0.65625q-0.328125 -0.390625 -0.5 -0.734375l-0.125 0l0 1.484375l-2.1875 0zm2.171875 -4.71875q0 0.90625 0.265625 1.59375q0.265625 0.6875 0.75 1.078125q0.5 0.390625 1.21875 0.390625q0.734375 0 1.234375 -0.390625q0.5 -0.40625 0.75 -1.09375q0.25 -0.703125 0.25 -1.578125q0 -0.890625 -0.25 -1.5625q-0.25 -0.6875 -0.75 -1.078125q-0.5 -0.390625 -1.234375 -0.390625q-0.71875 0 -1.21875 0.375q-0.5 0.375 -0.765625 1.0625q-0.25 0.671875 -0.25 1.59375zm12.82843 4.90625q-1.421875 0 -2.453125 -0.59375q-1.03125 -0.59375 -1.59375 -1.6875q-0.546875 -1.09375 -0.546875 -2.578125q0 -1.453125 0.5625 -2.5625q0.5625 -1.109375 1.5625 -1.71875q1.0 -0.625 2.359375 -0.625q0.859375 0 1.640625 0.28125q0.78125 0.28125 1.375 0.875q0.609375 0.578125 0.953125 1.484375q0.34375 0.890625 0.34375 2.140625l0 0.6875l-7.75 0l0 -1.515625l5.609375 0q0 -0.640625 -0.28125 -1.140625q-0.265625 -0.5 -0.75 -0.78125q-0.484375 -0.296875 -1.109375 -0.296875q-0.6875 0 -1.203125 0.328125q-0.515625 0.328125 -0.8125 0.875q-0.28125 0.53125 -0.28125 1.15625l0 1.3125q0 0.828125 0.296875 1.421875q0.296875 0.578125 0.84375 0.890625q0.546875 0.3125 1.265625 0.3125q0.484375 0 0.875 -0.140625q0.40625 -0.140625 0.6875 -0.40625q0.296875 -0.28125 0.4375 -0.671875l2.078125 0.234375q-0.1875 0.828125 -0.75 1.4375q-0.546875 0.609375 -1.40625 0.953125q-0.84375 0.328125 -1.953125 0.328125zm6.082428 -0.1875l0 -9.453125l2.15625 0l0 1.578125l0.109375 0q0.25 -0.8125 0.875 -1.265625q0.640625 -0.453125 1.453125 -0.453125q0.1875 0 0.40625 0.015625q0.234375 0.015625 0.390625 0.046875l0 2.0625q-0.140625 -0.0625 -0.453125 -0.09375q-0.296875 -0.046875 -0.578125 -0.046875q-0.609375 0 -1.09375 0.265625q-0.484375 0.265625 -0.765625 0.734375q-0.265625 0.453125 -0.265625 1.046875l0 5.5625l-2.234375 0z" fill-rule="nonzero"/><path fill="#000000" fill-opacity="0.0" d="m438.42258 122.685036l100.85037 0l0 40.409447l-100.85037 0z" fill-rule="evenodd"/><path fill="#000000" d="m448.67258 148.32504l0 -12.609375l8.1875 0l0 1.921875l-5.90625 0l0 3.421875l5.484375 0l0 1.90625l-5.484375 0l0 3.453125l5.953125 0l0 1.90625l-8.234375 0zm15.137726 -9.453125l0 1.71875l-5.421875 0l0 -1.71875l5.421875 0zm-4.09375 -2.265625l2.234375 0l0 8.875q0 0.453125 0.140625 0.6875q0.140625 0.234375 0.359375 0.328125q0.234375 0.078125 0.515625 0.078125q0.203125 0 0.375 -0.03125q0.171875 -0.03125 0.265625 -0.046875l0.375 1.734375q-0.171875 0.0625 -0.5 0.125q-0.328125 0.078125 -0.8125 0.09375q-0.828125 0.03125 -1.5 -0.25q-0.671875 -0.28125 -1.0625 -0.875q-0.390625 -0.59375 -0.390625 -1.46875l0 -9.25zm8.390411 6.1875l0 5.53125l-2.234375 0l0 -12.609375l2.1875 0l0 4.765625l0.109375 0q0.328125 -0.796875 1.015625 -1.265625q0.703125 -0.46875 1.796875 -0.46875q0.984375 0 1.703125 0.421875q0.734375 0.40625 1.140625 1.203125q0.40625 0.796875 0.40625 1.9375l0 6.015625l-2.234375 0l0 -5.671875q0 -0.953125 -0.484375 -1.484375q-0.484375 -0.53125 -1.359375 -0.53125q-0.59375 0 -1.0625 0.25q-0.46875 0.25 -0.734375 0.734375q-0.25 0.484375 -0.25 1.171875zm12.5737915 5.71875q-1.421875 0 -2.453125 -0.59375q-1.03125 -0.59375 -1.59375 -1.6875q-0.546875 -1.09375 -0.546875 -2.578125q0 -1.453125 0.5625 -2.5625q0.5625 -1.109375 1.5625 -1.71875q1.0 -0.625 2.359375 -0.625q0.859375 0 1.640625 0.28125q0.78125 0.28125 1.375 0.875q0.609375 0.578125 0.953125 1.484375q0.34375 0.890625 0.34375 2.140625l0 0.6875l-7.75 0l0 -1.515625l5.609375 0q0 -0.640625 -0.28125 -1.140625q-0.265625 -0.5 -0.75 -0.78125q-0.484375 -0.296875 -1.109375 -0.296875q-0.6875 0 -1.203125 0.328125q-0.515625 0.328125 -0.8125 0.875q-0.28125 0.53125 -0.28125 1.15625l0 1.3125q0 0.828125 0.296875 1.421875q0.296875 0.578125 0.84375 0.890625q0.546875 0.3125 1.265625 0.3125q0.484375 0 0.875 -0.140625q0.40625 -0.140625 0.6875 -0.40625q0.296875 -0.28125 0.4375 -0.671875l2.078125 0.234375q-0.1875 0.828125 -0.75 1.4375q-0.546875 0.609375 -1.40625 0.953125q-0.84375 0.328125 -1.953125 0.328125zm6.082428 -0.1875l0 -9.453125l2.15625 0l0 1.578125l0.109375 0q0.25 -0.8125 0.875 -1.265625q0.640625 -0.453125 1.453125 -0.453125q0.1875 0 0.40625 0.015625q0.234375 0.015625 0.390625 0.046875l0 2.0625q-0.140625 -0.0625 -0.453125 -0.09375q-0.296875 -0.046875 -0.578125 -0.046875q-0.609375 0 -1.09375 0.265625q-0.484375 0.265625 -0.765625 0.734375q-0.265625 0.453125 -0.265625 1.046875l0 5.5625l-2.234375 0zm9.107666 -5.53125l0 5.53125l-2.234375 0l0 -9.453125l2.140625 0l0 1.609375l0.109375 0q0.3125 -0.796875 1.03125 -1.265625q0.71875 -0.46875 1.78125 -0.46875q0.984375 0 1.703125 0.421875q0.734375 0.421875 1.140625 1.21875q0.40625 0.78125 0.390625 1.921875l0 6.015625l-2.21875 0l0 -5.671875q0 -0.953125 -0.5 -1.484375q-0.484375 -0.53125 -1.34375 -0.53125q-0.59375 0 -1.046875 0.25q-0.453125 0.25 -0.703125 0.734375q-0.25 0.484375 -0.25 1.171875zm12.518433 5.71875q-1.421875 0 -2.453125 -0.59375q-1.03125 -0.59375 -1.59375 -1.6875q-0.546875 -1.09375 -0.546875 -2.578125q0 -1.453125 0.5625 -2.5625q0.5625 -1.109375 1.5625 -1.71875q1.0 -0.625 2.359375 -0.625q0.859375 0 1.640625 0.28125q0.78125 0.28125 1.375 0.875q0.609375 0.578125 0.953125 1.484375q0.34375 0.890625 0.34375 2.140625l0 0.6875l-7.75 0l0 -1.515625l5.609375 0q0 -0.640625 -0.28125 -1.140625q-0.265625 -0.5 -0.75 -0.78125q-0.484375 -0.296875 -1.109375 -0.296875q-0.6875 0 -1.203125 0.328125q-0.515625 0.328125 -0.8125 0.875q-0.28125 0.53125 -0.28125 1.15625l0 1.3125q0 0.828125 0.296875 1.421875q0.296875 0.578125 0.84375 0.890625q0.546875 0.3125 1.265625 0.3125q0.484375 0 0.875 -0.140625q0.40625 -0.140625 0.6875 -0.40625q0.296875 -0.28125 0.4375 -0.671875l2.078125 0.234375q-0.1875 0.828125 -0.75 1.4375q-0.546875 0.609375 -1.40625 0.953125q-0.84375 0.328125 -1.953125 0.328125zm10.801147 -9.640625l0 1.71875l-5.421875 0l0 -1.71875l5.421875 0zm-4.09375 -2.265625l2.234375 0l0 8.875q0 0.453125 0.140625 0.6875q0.140625 0.234375 0.359375 0.328125q0.234375 0.078125 0.515625 0.078125q0.203125 0 0.375 -0.03125q0.171875 -0.03125 0.265625 -0.046875l0.375 1.734375q-0.171875 0.0625 -0.5 0.125q-0.328125 0.078125 -0.8125 0.09375q-0.828125 0.03125 -1.5 -0.25q-0.671875 -0.28125 -1.0625 -0.875q-0.390625 -0.59375 -0.390625 -1.46875l0 -9.25z" fill-rule="nonzero"/><path fill="#ffffff" d="m532.8714 275.3465l97.01306 0l0 68.41467l-97.01306 0z" fill-rule="evenodd"/><path fill="#cbcbcb" d="m629.88446 275.3465l3.8373413 -3.8373108l0 68.41467l-3.8373413 3.8373108z" fill-rule="evenodd"/><path fill="#ffffff" d="m532.8714 275.3465l3.8372803 -3.8373108l97.01312 0l-3.8373413 3.8373108z" fill-rule="evenodd"/><path fill="#000000" fill-opacity="0.0" d="m532.8714 275.3465l3.8372803 -3.8373108l97.01312 0l0 68.41467l-3.8373413 3.8373108l-97.01306 0zm0 0l97.01306 0l3.8373413 -3.8373108m-3.8373413 3.8373108l0 68.41467" fill-rule="evenodd"/><path stroke="#000000" stroke-width="2.0" stroke-linejoin="round" stroke-linecap="butt" d="m532.8714 275.3465l3.8372803 -3.8373108l97.01312 0l0 68.41467l-3.8373413 3.8373108l-97.01306 0zm0 0l97.01306 0l3.8373413 -3.8373108m-3.8373413 3.8373108l0 68.41467" fill-rule="evenodd"/><path fill="#000000" d="m554.70715 315.69382l0 -12.609375l4.71875 0q1.453125 0 2.4375 0.515625q0.984375 0.5 1.484375 1.40625q0.515625 0.90625 0.515625 2.109375q0 1.21875 -0.515625 2.109375q-0.5 0.890625 -1.5 1.375q-1.0 0.484375 -2.453125 0.484375l-3.359375 0l0 -1.90625l3.046875 0q0.859375 0 1.390625 -0.234375q0.546875 -0.234375 0.796875 -0.6875q0.265625 -0.46875 0.265625 -1.140625q0 -0.671875 -0.265625 -1.140625q-0.25 -0.484375 -0.796875 -0.71875q-0.546875 -0.25 -1.390625 -0.25l-2.09375 0l0 10.6875l-2.28125 0zm6.5 -5.703125l3.125 5.703125l-2.546875 0l-3.0625 -5.703125l2.484375 0zm8.653137 5.890625q-1.390625 0 -2.40625 -0.609375q-1.0 -0.609375 -1.5625 -1.703125q-0.5625 -1.09375 -0.5625 -2.5625q0 -1.46875 0.5625 -2.5625q0.5625 -1.109375 1.5625 -1.71875q1.015625 -0.609375 2.40625 -0.609375q1.390625 0 2.40625 0.609375q1.015625 0.609375 1.5625 1.71875q0.5625 1.09375 0.5625 2.5625q0 1.46875 -0.5625 2.5625q-0.546875 1.09375 -1.5625 1.703125q-1.015625 0.609375 -2.40625 0.609375zm0.015625 -1.78125q0.75 0 1.25 -0.421875q0.515625 -0.421875 0.75 -1.109375q0.25 -0.703125 0.25 -1.5625q0 -0.875 -0.25 -1.578125q-0.234375 -0.703125 -0.75 -1.125q-0.5 -0.421875 -1.25 -0.421875q-0.765625 0 -1.28125 0.421875q-0.5 0.421875 -0.75 1.125q-0.25 0.703125 -0.25 1.578125q0 0.859375 0.25 1.5625q0.25 0.6875 0.75 1.109375q0.515625 0.421875 1.28125 0.421875zm12.425171 -2.375l0 -5.484375l2.21875 0l0 9.453125l-2.15625 0l0 -1.6875l-0.09375 0q-0.328125 0.796875 -1.0625 1.3125q-0.71875 0.5 -1.78125 0.5q-0.9375 0 -1.65625 -0.40625q-0.703125 -0.421875 -1.109375 -1.21875q-0.390625 -0.796875 -0.390625 -1.9375l0 -6.015625l2.234375 0l0 5.671875q0 0.90625 0.484375 1.4375q0.5 0.515625 1.296875 0.515625q0.5 0 0.953125 -0.234375q0.46875 -0.234375 0.765625 -0.703125q0.296875 -0.484375 0.296875 -1.203125zm9.22821 -5.484375l0 1.71875l-5.421875 0l0 -1.71875l5.421875 0zm-4.09375 -2.265625l2.234375 0l0 8.875q0 0.453125 0.140625 0.6875q0.140625 0.234375 0.359375 0.328125q0.234375 0.078125 0.515625 0.078125q0.203125 0 0.375 -0.03125q0.171875 -0.03125 0.265625 -0.046875l0.375 1.734375q-0.171875 0.0625 -0.5 0.125q-0.328125 0.078125 -0.8125 0.09375q-0.828125 0.03125 -1.5 -0.25q-0.671875 -0.28125 -1.0625 -0.875q-0.390625 -0.59375 -0.390625 -1.46875l0 -9.25zm10.048035 11.90625q-1.421875 0 -2.453125 -0.59375q-1.03125 -0.59375 -1.59375 -1.6875q-0.546875 -1.09375 -0.546875 -2.578125q0 -1.453125 0.5625 -2.5625q0.5625 -1.109375 1.5625 -1.71875q1.0 -0.625 2.359375 -0.625q0.859375 0 1.640625 0.28125q0.78125 0.28125 1.375 0.875q0.609375 0.578125 0.953125 1.484375q0.34375 0.890625 0.34375 2.140625l0 0.6875l-7.75 0l0 -1.515625l5.609375 0q0 -0.640625 -0.28125 -1.140625q-0.265625 -0.5 -0.75 -0.78125q-0.484375 -0.296875 -1.109375 -0.296875q-0.6875 0 -1.203125 0.328125q-0.515625 0.328125 -0.8125 0.875q-0.28125 0.53125 -0.28125 1.15625l0 1.3125q0 0.828125 0.296875 1.421875q0.296875 0.578125 0.84375 0.890625q0.546875 0.3125 1.265625 0.3125q0.484375 0 0.875 -0.140625q0.40625 -0.140625 0.6875 -0.40625q0.296875 -0.28125 0.4375 -0.671875l2.078125 0.234375q-0.1875 0.828125 -0.75 1.4375q-0.546875 0.609375 -1.40625 0.953125q-0.84375 0.328125 -1.953125 0.328125zm6.0824585 -0.1875l0 -9.453125l2.15625 0l0 1.578125l0.109375 0q0.25 -0.8125 0.875 -1.265625q0.640625 -0.453125 1.453125 -0.453125q0.1875 0 0.40625 0.015625q0.234375 0.015625 0.390625 0.046875l0 2.0625q-0.140625 -0.0625 -0.453125 -0.09375q-0.296875 -0.046875 -0.578125 -0.046875q-0.609375 0 -1.09375 0.265625q-0.484375 0.265625 -0.765625 0.734375q-0.265625 0.453125 -0.265625 1.046875l0 5.5625l-2.234375 0z" fill-rule="nonzero"/><path fill="#000000" fill-opacity="0.0" d="m580.6185 220.83727l0.7558594 54.5197" fill-rule="evenodd"/><path stroke="#6d9eeb" stroke-width="4.0" stroke-linejoin="round" stroke-linecap="butt" d="m580.6185 220.83727l0.7558594 54.5197" fill-rule="evenodd"/><path fill="#000000" fill-opacity="0.0" d="m582.9177 343.76117l0.7559204 54.519684" fill-rule="evenodd"/><path stroke="#6d9eeb" stroke-width="4.0" stroke-linejoin="round" stroke-linecap="butt" d="m582.9177 343.76117l0.7559204 54.519684" fill-rule="evenodd"/><path fill="#000000" fill-opacity="0.0" d="m683.02795 398.28085l-199.46457 0" fill-rule="evenodd"/><path stroke="#6d9eeb" stroke-width="4.0" stroke-linejoin="round" stroke-linecap="butt" d="m683.02795 398.28085l-199.46457 0" fill-rule="evenodd"/><path fill="#ffffff" d="m450.9239 441.1182l0 0c0 -2.7078247 2.1951294 -4.9029846 4.9029846 -4.9029846l51.264893 0c1.300354 0 2.5474548 0.51657104 3.466919 1.4360657c0.9194946 0.9194946 1.4360657 2.166565 1.4360657 3.466919l0 19.611359c0 2.7078552 -2.1951294 4.9029846 -4.9029846 4.9029846l-51.264893 0c-2.7078552 0 -4.9029846 -2.1951294 -4.9029846 -4.9029846z" fill-rule="evenodd"/><path stroke="#000000" stroke-width="1.0" stroke-linejoin="round" stroke-linecap="butt" d="m450.9239 441.1182l0 0c0 -2.7078247 2.1951294 -4.9029846 4.9029846 -4.9029846l51.264893 0c1.300354 0 2.5474548 0.51657104 3.466919 1.4360657c0.9194946 0.9194946 1.4360657 2.166565 1.4360657 3.466919l0 19.611359c0 2.7078552 -2.1951294 4.9029846 -4.9029846 4.9029846l-51.264893 0c-2.7078552 0 -4.9029846 -2.1951294 -4.9029846 -4.9029846z" fill-rule="evenodd"/><path fill="#000000" d="m471.97714 449.177l-1.46875 0q-0.09375 -0.46875 -0.328125 -0.828125q-0.21875 -0.359375 -0.5625 -0.609375q-0.328125 -0.25 -0.75 -0.375q-0.40625 -0.125 -0.875 -0.125q-0.84375 0 -1.5 0.421875q-0.65625 0.40625 -1.046875 1.234375q-0.375 0.8125 -0.375 1.984375q0 1.1875 0.375 2.0q0.390625 0.8125 1.046875 1.234375q0.671875 0.40625 1.5 0.40625q0.453125 0 0.859375 -0.125q0.421875 -0.125 0.75 -0.359375q0.34375 -0.25 0.578125 -0.609375q0.234375 -0.359375 0.328125 -0.828125l1.46875 0q-0.109375 0.71875 -0.453125 1.328125q-0.328125 0.59375 -0.859375 1.03125q-0.53125 0.421875 -1.21875 0.65625q-0.671875 0.234375 -1.46875 0.234375q-1.25 0 -2.234375 -0.59375q-0.984375 -0.59375 -1.5625 -1.703125q-0.5625 -1.125 -0.5625 -2.671875q0 -1.5625 0.5625 -2.671875q0.578125 -1.109375 1.5625 -1.703125q0.984375 -0.609375 2.234375 -0.609375q0.78125 0 1.4375 0.21875q0.671875 0.21875 1.203125 0.65625q0.546875 0.421875 0.890625 1.03125q0.359375 0.59375 0.46875 1.375zm3.0522156 -3.140625l0 9.6875l-1.40625 0l0 -9.6875l1.40625 0zm1.9116516 9.6875l0 -7.265625l1.40625 0l0 7.265625l-1.40625 0zm0.71875 -8.390625q-0.375 0 -0.640625 -0.25q-0.265625 -0.25 -0.265625 -0.59375q0 -0.34375 0.265625 -0.59375q0.265625 -0.25 0.640625 -0.25q0.359375 0 0.625 0.25q0.265625 0.25 0.265625 0.59375q0 0.34375 -0.265625 0.59375q-0.265625 0.25 -0.625 0.25zm5.724121 8.53125q-1.0625 0 -1.84375 -0.453125q-0.765625 -0.46875 -1.1875 -1.296875q-0.421875 -0.84375 -0.421875 -1.984375q0 -1.109375 0.421875 -1.953125q0.421875 -0.859375 1.171875 -1.328125q0.75 -0.484375 1.765625 -0.484375q0.609375 0 1.1875 0.203125q0.578125 0.203125 1.03125 0.640625q0.46875 0.421875 0.734375 1.125q0.265625 0.6875 0.265625 1.6875l0 0.5l-5.78125 0l0 -1.0625l4.390625 0q0 -0.5625 -0.234375 -0.984375q-0.21875 -0.4375 -0.625 -0.6875q-0.40625 -0.265625 -0.953125 -0.265625q-0.609375 0 -1.046875 0.296875q-0.4375 0.296875 -0.6875 0.765625q-0.234375 0.453125 -0.234375 1.0l0 0.828125q0 0.734375 0.25 1.25q0.265625 0.5 0.734375 0.78125q0.46875 0.265625 1.078125 0.265625q0.40625 0 0.734375 -0.109375q0.328125 -0.125 0.5625 -0.359375q0.25 -0.234375 0.390625 -0.578125l1.328125 0.25q-0.15625 0.59375 -0.578125 1.03125q-0.40625 0.4375 -1.03125 0.6875q-0.625 0.234375 -1.421875 0.234375zm6.1097717 -4.453125l0 4.3125l-1.40625 0l0 -7.265625l1.359375 0l0 1.171875l0.09375 0q0.25 -0.578125 0.78125 -0.921875q0.53125 -0.34375 1.359375 -0.34375q0.734375 0 1.296875 0.3125q0.5625 0.296875 0.859375 0.90625q0.3125 0.609375 0.3125 1.515625l0 4.625l-1.40625 0l0 -4.453125q0 -0.796875 -0.421875 -1.234375q-0.40625 -0.453125 -1.125 -0.453125q-0.5 0 -0.875 0.21875q-0.375 0.203125 -0.609375 0.625q-0.21875 0.40625 -0.21875 0.984375zm9.945435 -2.953125l0 1.125l-3.96875 0l0 -1.125l3.96875 0zm-2.90625 -1.75l1.421875 0l0 6.875q0 0.421875 0.109375 0.625q0.125 0.203125 0.328125 0.28125q0.203125 0.0625 0.421875 0.0625q0.171875 0 0.296875 -0.015625q0.140625 -0.03125 0.203125 -0.03125l0.265625 1.15625q-0.125 0.046875 -0.359375 0.09375q-0.21875 0.0625 -0.5625 0.0625q-0.5625 0.015625 -1.046875 -0.1875q-0.484375 -0.21875 -0.78125 -0.65625q-0.296875 -0.4375 -0.296875 -1.09375l0 -7.171875z" fill-rule="nonzero"/><path fill="#ffffff" d="m539.27295 441.1182l0 0c0 -2.7078247 2.1951294 -4.9029846 4.903015 -4.9029846l51.264893 0c1.300354 0 2.5474243 0.51657104 3.466919 1.4360657c0.9194946 0.9194946 1.4360352 2.166565 1.4360352 3.466919l0 19.611359c0 2.7078552 -2.1951294 4.9029846 -4.902954 4.9029846l-51.264893 0c-2.7078857 0 -4.903015 -2.1951294 -4.903015 -4.9029846z" fill-rule="evenodd"/><path stroke="#000000" stroke-width="1.0" stroke-linejoin="round" stroke-linecap="butt" d="m539.27295 441.1182l0 0c0 -2.7078247 2.1951294 -4.9029846 4.903015 -4.9029846l51.264893 0c1.300354 0 2.5474243 0.51657104 3.466919 1.4360657c0.9194946 0.9194946 1.4360352 2.166565 1.4360352 3.466919l0 19.611359c0 2.7078552 -2.1951294 4.9029846 -4.902954 4.9029846l-51.264893 0c-2.7078857 0 -4.903015 -2.1951294 -4.903015 -4.9029846z" fill-rule="evenodd"/><path fill="#000000" d="m560.32623 449.177l-1.46875 0q-0.09375 -0.46875 -0.328125 -0.828125q-0.21875 -0.359375 -0.5625 -0.609375q-0.328125 -0.25 -0.75 -0.375q-0.40625 -0.125 -0.875 -0.125q-0.84375 0 -1.5 0.421875q-0.65625 0.40625 -1.046875 1.234375q-0.375 0.8125 -0.375 1.984375q0 1.1875 0.375 2.0q0.390625 0.8125 1.046875 1.234375q0.671875 0.40625 1.5 0.40625q0.453125 0 0.859375 -0.125q0.421875 -0.125 0.75 -0.359375q0.34375 -0.25 0.578125 -0.609375q0.234375 -0.359375 0.328125 -0.828125l1.46875 0q-0.109375 0.71875 -0.453125 1.328125q-0.328125 0.59375 -0.859375 1.03125q-0.53125 0.421875 -1.21875 0.65625q-0.671875 0.234375 -1.46875 0.234375q-1.25 0 -2.234375 -0.59375q-0.984375 -0.59375 -1.5625 -1.703125q-0.5625 -1.125 -0.5625 -2.671875q0 -1.5625 0.5625 -2.671875q0.578125 -1.109375 1.5625 -1.703125q0.984375 -0.609375 2.234375 -0.609375q0.78125 0 1.4375 0.21875q0.671875 0.21875 1.203125 0.65625q0.546875 0.421875 0.890625 1.03125q0.359375 0.59375 0.46875 1.375zm3.052185 -3.140625l0 9.6875l-1.40625 0l0 -9.6875l1.40625 0zm1.9116821 9.6875l0 -7.265625l1.40625 0l0 7.265625l-1.40625 0zm0.71875 -8.390625q-0.375 0 -0.640625 -0.25q-0.265625 -0.25 -0.265625 -0.59375q0 -0.34375 0.265625 -0.59375q0.265625 -0.25 0.640625 -0.25q0.359375 0 0.625 0.25q0.265625 0.25 0.265625 0.59375q0 0.34375 -0.265625 0.59375q-0.265625 0.25 -0.625 0.25zm5.724121 8.53125q-1.0625 0 -1.84375 -0.453125q-0.765625 -0.46875 -1.1875 -1.296875q-0.421875 -0.84375 -0.421875 -1.984375q0 -1.109375 0.421875 -1.953125q0.421875 -0.859375 1.171875 -1.328125q0.75 -0.484375 1.765625 -0.484375q0.609375 0 1.1875 0.203125q0.578125 0.203125 1.03125 0.640625q0.46875 0.421875 0.734375 1.125q0.265625 0.6875 0.265625 1.6875l0 0.5l-5.78125 0l0 -1.0625l4.390625 0q0 -0.5625 -0.234375 -0.984375q-0.21875 -0.4375 -0.625 -0.6875q-0.40625 -0.265625 -0.953125 -0.265625q-0.609375 0 -1.046875 0.296875q-0.4375 0.296875 -0.6875 0.765625q-0.234375 0.453125 -0.234375 1.0l0 0.828125q0 0.734375 0.25 1.25q0.265625 0.5 0.734375 0.78125q0.46875 0.265625 1.078125 0.265625q0.40625 0 0.734375 -0.109375q0.328125 -0.125 0.5625 -0.359375q0.25 -0.234375 0.390625 -0.578125l1.328125 0.25q-0.15625 0.59375 -0.578125 1.03125q-0.40625 0.4375 -1.03125 0.6875q-0.625 0.234375 -1.421875 0.234375zm6.109741 -4.453125l0 4.3125l-1.40625 0l0 -7.265625l1.359375 0l0 1.171875l0.09375 0q0.25 -0.578125 0.78125 -0.921875q0.53125 -0.34375 1.359375 -0.34375q0.734375 0 1.296875 0.3125q0.5625 0.296875 0.859375 0.90625q0.3125 0.609375 0.3125 1.515625l0 4.625l-1.40625 0l0 -4.453125q0 -0.796875 -0.421875 -1.234375q-0.40625 -0.453125 -1.125 -0.453125q-0.5 0 -0.875 0.21875q-0.375 0.203125 -0.609375 0.625q-0.21875 0.40625 -0.21875 0.984375zm9.945435 -2.953125l0 1.125l-3.96875 0l0 -1.125l3.96875 0zm-2.90625 -1.75l1.421875 0l0 6.875q0 0.421875 0.109375 0.625q0.125 0.203125 0.328125 0.28125q0.203125 0.0625 0.421875 0.0625q0.171875 0 0.296875 -0.015625q0.140625 -0.03125 0.203125 -0.03125l0.265625 1.15625q-0.125 0.046875 -0.359375 0.09375q-0.21875 0.0625 -0.5625 0.0625q-0.5625 0.015625 -1.046875 -0.1875q-0.484375 -0.21875 -0.78125 -0.65625q-0.296875 -0.4375 -0.296875 -1.09375l0 -7.171875z" fill-rule="nonzero"/><path fill="#ffffff" d="m627.6221 441.1182l0 0c0 -2.7078247 2.1951294 -4.9029846 4.902954 -4.9029846l51.264893 0c1.300354 0 2.5474854 0.51657104 3.466919 1.4360657c0.9194946 0.9194946 1.4360962 2.166565 1.4360962 3.466919l0 19.611359c0 2.7078552 -2.1951904 4.9029846 -4.903015 4.9029846l-51.264893 0c-2.7078247 0 -4.902954 -2.1951294 -4.902954 -4.9029846z" fill-rule="evenodd"/><path stroke="#000000" stroke-width="1.0" stroke-linejoin="round" stroke-linecap="butt" d="m627.6221 441.1182l0 0c0 -2.7078247 2.1951294 -4.9029846 4.902954 -4.9029846l51.264893 0c1.300354 0 2.5474854 0.51657104 3.466919 1.4360657c0.9194946 0.9194946 1.4360962 2.166565 1.4360962 3.466919l0 19.611359c0 2.7078552 -2.1951904 4.9029846 -4.903015 4.9029846l-51.264893 0c-2.7078247 0 -4.902954 -2.1951294 -4.902954 -4.9029846z" fill-rule="evenodd"/><path fill="#000000" d="m648.6753 449.177l-1.46875 0q-0.09375 -0.46875 -0.328125 -0.828125q-0.21875 -0.359375 -0.5625 -0.609375q-0.328125 -0.25 -0.75 -0.375q-0.40625 -0.125 -0.875 -0.125q-0.84375 0 -1.5 0.421875q-0.65625 0.40625 -1.046875 1.234375q-0.375 0.8125 -0.375 1.984375q0 1.1875 0.375 2.0q0.390625 0.8125 1.046875 1.234375q0.671875 0.40625 1.5 0.40625q0.453125 0 0.859375 -0.125q0.421875 -0.125 0.75 -0.359375q0.34375 -0.25 0.578125 -0.609375q0.234375 -0.359375 0.328125 -0.828125l1.46875 0q-0.109375 0.71875 -0.453125 1.328125q-0.328125 0.59375 -0.859375 1.03125q-0.53125 0.421875 -1.21875 0.65625q-0.671875 0.234375 -1.46875 0.234375q-1.25 0 -2.234375 -0.59375q-0.984375 -0.59375 -1.5625 -1.703125q-0.5625 -1.125 -0.5625 -2.671875q0 -1.5625 0.5625 -2.671875q0.578125 -1.109375 1.5625 -1.703125q0.984375 -0.609375 2.234375 -0.609375q0.78125 0 1.4375 0.21875q0.671875 0.21875 1.203125 0.65625q0.546875 0.421875 0.890625 1.03125q0.359375 0.59375 0.46875 1.375zm3.052246 -3.140625l0 9.6875l-1.40625 0l0 -9.6875l1.40625 0zm1.9116211 9.6875l0 -7.265625l1.40625 0l0 7.265625l-1.40625 0zm0.71875 -8.390625q-0.375 0 -0.640625 -0.25q-0.265625 -0.25 -0.265625 -0.59375q0 -0.34375 0.265625 -0.59375q0.265625 -0.25 0.640625 -0.25q0.359375 0 0.625 0.25q0.265625 0.25 0.265625 0.59375q0 0.34375 -0.265625 0.59375q-0.265625 0.25 -0.625 0.25zm5.724121 8.53125q-1.0625 0 -1.84375 -0.453125q-0.765625 -0.46875 -1.1875 -1.296875q-0.421875 -0.84375 -0.421875 -1.984375q0 -1.109375 0.421875 -1.953125q0.421875 -0.859375 1.171875 -1.328125q0.75 -0.484375 1.765625 -0.484375q0.609375 0 1.1875 0.203125q0.578125 0.203125 1.03125 0.640625q0.46875 0.421875 0.734375 1.125q0.265625 0.6875 0.265625 1.6875l0 0.5l-5.78125 0l0 -1.0625l4.390625 0q0 -0.5625 -0.234375 -0.984375q-0.21875 -0.4375 -0.625 -0.6875q-0.40625 -0.265625 -0.953125 -0.265625q-0.609375 0 -1.046875 0.296875q-0.4375 0.296875 -0.6875 0.765625q-0.234375 0.453125 -0.234375 1.0l0 0.828125q0 0.734375 0.25 1.25q0.265625 0.5 0.734375 0.78125q0.46875 0.265625 1.078125 0.265625q0.40625 0 0.734375 -0.109375q0.328125 -0.125 0.5625 -0.359375q0.25 -0.234375 0.390625 -0.578125l1.328125 0.25q-0.15625 0.59375 -0.578125 1.03125q-0.40625 0.4375 -1.03125 0.6875q-0.625 0.234375 -1.421875 0.234375zm6.1098022 -4.453125l0 4.3125l-1.40625 0l0 -7.265625l1.359375 0l0 1.171875l0.09375 0q0.25 -0.578125 0.78125 -0.921875q0.53125 -0.34375 1.359375 -0.34375q0.734375 0 1.296875 0.3125q0.5625 0.296875 0.859375 0.90625q0.3125 0.609375 0.3125 1.515625l0 4.625l-1.40625 0l0 -4.453125q0 -0.796875 -0.421875 -1.234375q-0.40625 -0.453125 -1.125 -0.453125q-0.5 0 -0.875 0.21875q-0.375 0.203125 -0.609375 0.625q-0.21875 0.40625 -0.21875 0.984375zm9.945374 -2.953125l0 1.125l-3.96875 0l0 -1.125l3.96875 0zm-2.90625 -1.75l1.421875 0l0 6.875q0 0.421875 0.109375 0.625q0.125 0.203125 0.328125 0.28125q0.203125 0.0625 0.421875 0.0625q0.171875 0 0.296875 -0.015625q0.140625 -0.03125 0.203125 -0.03125l0.265625 1.15625q-0.125 0.046875 -0.359375 0.09375q-0.21875 0.0625 -0.5625 0.0625q-0.5625 0.015625 -1.046875 -0.1875q-0.484375 -0.21875 -0.78125 -0.65625q-0.296875 -0.4375 -0.296875 -1.09375l0 -7.171875z" fill-rule="nonzero"/><path fill="#ead1dc" d="m80.05774 362.11578l23.262184 0l0 28.112549l-23.262184 0z" fill-rule="evenodd"/><path fill="#bba7af" d="m103.31992 362.11578l1.3047485 -1.3047485l0 28.112549l-1.3047485 1.3047485z" fill-rule="evenodd"/><path fill="#eedae3" d="m80.05774 362.11578l1.3047562 -1.3047485l23.262177 0l-1.3047485 1.3047485z" fill-rule="evenodd"/><path fill="#000000" fill-opacity="0.0" d="m80.05774 362.11578l1.3047562 -1.3047485l23.262177 0l0 28.112549l-1.3047485 1.3047485l-23.262184 0zm0 0l23.262184 0l1.3047485 -1.3047485m-1.3047485 1.3047485l0 28.112549" fill-rule="evenodd"/><path stroke="#000000" stroke-width="2.0" stroke-linejoin="round" stroke-linecap="butt" d="m80.05774 362.11578l1.3047562 -1.3047485l23.262177 0l0 28.112549l-1.3047485 1.3047485l-23.262184 0zm0 0l23.262184 0l1.3047485 -1.3047485m-1.3047485 1.3047485l0 28.112549" fill-rule="evenodd"/><path fill="#000000" fill-opacity="0.0" d="m104.62467 356.2651l145.63779 0l0 40.409424l-145.63779 0z" fill-rule="evenodd"/><path fill="#000000" d="m116.48405 381.9051l-2.4375 0l4.4375 -12.609375l2.8125 0l4.453125 12.609375l-2.4375 0l-3.375 -10.015625l-0.09375 0l-3.359375 10.015625zm0.078125 -4.9375l6.65625 0l0 1.828125l-6.65625 0l0 -1.828125zm8.763992 -5.75l0 -1.921875l10.062492 0l0 1.921875l-3.90625 0l0 10.6875l-2.265625 0l0 -10.6875l-3.8906174 0zm15.060753 10.875q-1.28125 0 -2.21875 -0.46875q-0.921875 -0.46875 -1.4375 -1.265625q-0.5 -0.796875 -0.5 -1.796875q0 -0.765625 0.3125 -1.34375q0.3125 -0.578125 0.859375 -1.078125q0.5625 -0.5 1.28125 -1.0l2.234375 -1.515625q0.5 -0.328125 0.75 -0.671875q0.25 -0.359375 0.25 -0.84375q0 -0.40625 -0.34375 -0.765625q-0.328125 -0.359375 -0.9375 -0.359375q-0.390625 0 -0.703125 0.1875q-0.296875 0.1875 -0.46875 0.484375q-0.171875 0.296875 -0.171875 0.640625q0 0.40625 0.234375 0.84375q0.234375 0.421875 0.59375 0.875q0.375 0.453125 0.8125 0.96875l5.90625 6.921875l-2.40625 0l-4.921875 -5.625q-0.546875 -0.640625 -1.0625 -1.25q-0.5 -0.625 -0.828125 -1.296875q-0.3125 -0.6875 -0.3125 -1.46875q0 -0.890625 0.40625 -1.59375q0.421875 -0.703125 1.15625 -1.109375q0.75 -0.40625 1.734375 -0.40625q1.0 0 1.71875 0.390625q0.71875 0.390625 1.09375 1.046875q0.390625 0.65625 0.390625 1.421875q0 0.890625 -0.4375 1.59375q-0.4375 0.703125 -1.234375 1.28125l-2.546875 1.859375q-0.625 0.453125 -0.90625 0.921875q-0.265625 0.46875 -0.265625 0.78125q0 0.5 0.25 0.90625q0.265625 0.40625 0.71875 0.65625q0.453125 0.234375 1.078125 0.234375q0.671875 0 1.328125 -0.296875q0.65625 -0.3125 1.203125 -0.875q0.546875 -0.5625 0.859375 -1.34375q0.3125 -0.796875 0.3125 -1.765625l1.921875 0q0 1.1875 -0.265625 2.078125q-0.265625 0.875 -0.6875 1.484375q-0.40625 0.609375 -0.875 0.96875q-0.15625 0.109375 -0.296875 0.21875q-0.125 0.09375 -0.28125 0.203125q-0.65625 0.609375 -1.546875 0.890625q-0.890625 0.28125 -1.75 0.28125zm6.278534 -10.875l0 -1.921875l10.0625 0l0 1.921875l-3.90625 0l0 10.6875l-2.265625 0l0 -10.6875l-3.890625 0zm27.546616 4.390625q0 2.03125 -0.765625 3.484375q-0.75 1.453125 -2.0625 2.21875q-1.296875 0.765625 -2.953125 0.765625q-1.65625 0 -2.96875 -0.765625q-1.3125 -0.78125 -2.078125 -2.21875q-0.75 -1.453125 -0.75 -3.484375q0 -2.046875 0.75 -3.484375q0.765625 -1.453125 2.078125 -2.21875q1.3125 -0.78125 2.96875 -0.78125q1.65625 0 2.953125 0.78125q1.3125 0.765625 2.0625 2.21875q0.765625 1.4375 0.765625 3.484375zm-2.296875 0q0 -1.4375 -0.453125 -2.421875q-0.4375 -0.984375 -1.234375 -1.484375q-0.78125 -0.515625 -1.796875 -0.515625q-1.03125 0 -1.828125 0.515625q-0.78125 0.5 -1.234375 1.484375q-0.4375 0.984375 -0.4375 2.421875q0 1.421875 0.4375 2.421875q0.453125 0.984375 1.234375 1.5q0.796875 0.5 1.828125 0.5q1.015625 0 1.796875 -0.5q0.796875 -0.515625 1.234375 -1.5q0.453125 -1.0 0.453125 -2.421875zm6.31723 6.296875l-2.671875 -9.453125l2.265625 0l1.671875 6.640625l0.078125 0l1.703125 -6.640625l2.25 0l1.6875 6.609375l0.09375 0l1.640625 -6.609375l2.28125 0l-2.671875 9.453125l-2.328125 0l-1.765625 -6.390625l-0.140625 0l-1.765625 6.390625l-2.328125 0zm14.7908325 -5.53125l0 5.53125l-2.234375 0l0 -9.453125l2.140625 0l0 1.609375l0.109375 0q0.3125 -0.796875 1.03125 -1.265625q0.71875 -0.46875 1.78125 -0.46875q0.984375 0 1.703125 0.421875q0.734375 0.421875 1.140625 1.21875q0.40625 0.78125 0.390625 1.921875l0 6.015625l-2.21875 0l0 -5.671875q0 -0.953125 -0.5 -1.484375q-0.484375 -0.53125 -1.34375 -0.53125q-0.59375 0 -1.046875 0.25q-0.453125 0.25 -0.703125 0.734375q-0.25 0.484375 -0.25 1.171875zm12.518417 5.71875q-1.421875 0 -2.453125 -0.59375q-1.03125 -0.59375 -1.59375 -1.6875q-0.546875 -1.09375 -0.546875 -2.578125q0 -1.453125 0.5625 -2.5625q0.5625 -1.109375 1.5625 -1.71875q1.0 -0.625 2.359375 -0.625q0.859375 0 1.640625 0.28125q0.78125 0.28125 1.375 0.875q0.609375 0.578125 0.953125 1.484375q0.34375 0.890625 0.34375 2.140625l0 0.6875l-7.75 0l0 -1.515625l5.609375 0q0 -0.640625 -0.28125 -1.140625q-0.265625 -0.5 -0.75 -0.78125q-0.484375 -0.296875 -1.109375 -0.296875q-0.6875 0 -1.203125 0.328125q-0.515625 0.328125 -0.8125 0.875q-0.28125 0.53125 -0.28125 1.15625l0 1.3125q0 0.828125 0.296875 1.421875q0.296875 0.578125 0.84375 0.890625q0.546875 0.3125 1.265625 0.3125q0.484375 0 0.875 -0.140625q0.40625 -0.140625 0.6875 -0.40625q0.296875 -0.28125 0.4375 -0.671875l2.078125 0.234375q-0.1875 0.828125 -0.75 1.4375q-0.546875 0.609375 -1.40625 0.953125q-0.84375 0.328125 -1.953125 0.328125zm9.598053 -0.015625q-1.125 0 -2.0 -0.578125q-0.875 -0.578125 -1.390625 -1.65625q-0.515625 -1.09375 -0.515625 -2.65625q0 -1.5625 0.515625 -2.640625q0.53125 -1.09375 1.40625 -1.65625q0.890625 -0.5625 1.984375 -0.5625q0.828125 0 1.359375 0.28125q0.546875 0.28125 0.859375 0.671875q0.3125 0.390625 0.484375 0.734375l0.09375 0l0 -4.71875l2.234375 0l0 12.609375l-2.1875 0l0 -1.484375l-0.140625 0q-0.171875 0.34375 -0.5 0.734375q-0.328125 0.375 -0.859375 0.65625q-0.53125 0.265625 -1.34375 0.265625zm0.609375 -1.828125q0.71875 0 1.21875 -0.390625q0.5 -0.390625 0.75 -1.078125q0.265625 -0.6875 0.265625 -1.59375q0 -0.921875 -0.265625 -1.59375q-0.25 -0.6875 -0.75 -1.0625q-0.484375 -0.375 -1.21875 -0.375q-0.734375 0 -1.234375 0.390625q-0.5 0.390625 -0.75 1.078125q-0.25 0.671875 -0.25 1.5625q0 0.875 0.25 1.578125q0.25 0.6875 0.75 1.09375q0.515625 0.390625 1.234375 0.390625z" fill-rule="nonzero"/><path fill="#ffffff" d="m80.05774 404.13153l23.262184 0l0 28.112549l-23.262184 0z" fill-rule="evenodd"/><path fill="#cbcbcb" d="m103.31992 404.13153l1.3047485 -1.3047485l0 28.112549l-1.3047485 1.3047485z" fill-rule="evenodd"/><path fill="#ffffff" d="m80.05774 404.13153l1.3047562 -1.3047485l23.262177 0l-1.3047485 1.3047485z" fill-rule="evenodd"/><path fill="#000000" fill-opacity="0.0" d="m80.05774 404.13153l1.3047562 -1.3047485l23.262177 0l0 28.112549l-1.3047485 1.3047485l-23.262184 0zm0 0l23.262184 0l1.3047485 -1.3047485m-1.3047485 1.3047485l0 28.112549" fill-rule="evenodd"/><path stroke="#000000" stroke-width="2.0" stroke-linejoin="round" stroke-linecap="butt" d="m80.05774 404.13153l1.3047562 -1.3047485l23.262177 0l0 28.112549l-1.3047485 1.3047485l-23.262184 0zm0 0l23.262184 0l1.3047485 -1.3047485m-1.3047485 1.3047485l0 28.112549" fill-rule="evenodd"/><path fill="#000000" fill-opacity="0.0" d="m104.62467 398.28085l145.63779 0l0 40.409424l-145.63779 0z" fill-rule="evenodd"/><path fill="#000000" d="m114.87467 423.92084l0 -12.609375l4.71875 0q1.453125 0 2.4375 0.546875q0.984375 0.546875 1.484375 1.5q0.515625 0.9375 0.515625 2.125q0 1.21875 -0.515625 2.171875q-0.5 0.9375 -1.5 1.46875q-1.0 0.53125 -2.453125 0.53125l-3.125 0l0 -1.875l2.8125 0q0.859375 0 1.390625 -0.28125q0.546875 -0.296875 0.796875 -0.8125q0.265625 -0.53125 0.265625 -1.203125q0 -0.65625 -0.265625 -1.171875q-0.25 -0.515625 -0.796875 -0.796875q-0.546875 -0.28125 -1.390625 -0.28125l-2.09375 0l0 10.6875l-2.28125 0zm15.092552 0.1875q-1.421875 0 -2.4531174 -0.59375q-1.03125 -0.59375 -1.59375 -1.6875q-0.546875 -1.09375 -0.546875 -2.578125q0 -1.453125 0.5625 -2.5625q0.5625 -1.109375 1.5625 -1.71875q0.9999924 -0.625 2.3593674 -0.625q0.859375 0 1.640625 0.28125q0.78125 0.28125 1.375 0.875q0.609375 0.578125 0.953125 1.484375q0.34375 0.890625 0.34375 2.140625l0 0.6875l-7.7499924 0l0 -1.515625l5.6093674 0q0 -0.640625 -0.28125 -1.140625q-0.265625 -0.5 -0.75 -0.78125q-0.484375 -0.296875 -1.109375 -0.296875q-0.6875 0 -1.203125 0.328125q-0.515625 0.328125 -0.8124924 0.875q-0.28125 0.53125 -0.28125 1.15625l0 1.3125q0 0.828125 0.296875 1.421875q0.29686737 0.578125 0.8437424 0.890625q0.546875 0.3125 1.265625 0.3125q0.484375 0 0.875 -0.140625q0.40625 -0.140625 0.6875 -0.40625q0.296875 -0.28125 0.4375 -0.671875l2.078125 0.234375q-0.1875 0.828125 -0.75 1.4375q-0.546875 0.609375 -1.40625 0.953125q-0.84375 0.328125 -1.953125 0.328125zm6.082428 -0.1875l0 -9.453125l2.15625 0l0 1.578125l0.109375 0q0.25 -0.8125 0.875 -1.265625q0.640625 -0.453125 1.453125 -0.453125q0.1875 0 0.40625 0.015625q0.234375 0.015625 0.390625 0.046875l0 2.0625q-0.140625 -0.0625 -0.453125 -0.09375q-0.296875 -0.046875 -0.578125 -0.046875q-0.609375 0 -1.09375 0.265625q-0.484375 0.265625 -0.765625 0.734375q-0.265625 0.453125 -0.265625 1.046875l0 5.5625l-2.234375 0zm14.342041 -6.953125l-2.03125 0.21875q-0.078125 -0.3125 -0.296875 -0.578125q-0.203125 -0.265625 -0.5625 -0.421875q-0.359375 -0.171875 -0.875 -0.171875q-0.703125 0 -1.171875 0.296875q-0.46875 0.296875 -0.453125 0.78125q-0.015625 0.40625 0.296875 0.671875q0.3125 0.25 1.03125 0.421875l1.609375 0.34375q1.34375 0.296875 2.0 0.921875q0.65625 0.625 0.65625 1.640625q0 0.890625 -0.515625 1.578125q-0.515625 0.671875 -1.421875 1.0625q-0.90625 0.375 -2.09375 0.375q-1.734375 0 -2.796875 -0.734375q-1.0625 -0.734375 -1.265625 -2.03125l2.171875 -0.203125q0.15625 0.640625 0.625 0.96875q0.484375 0.3125 1.265625 0.3125q0.78125 0 1.265625 -0.3125q0.484375 -0.328125 0.484375 -0.8125q0 -0.40625 -0.3125 -0.671875q-0.3125 -0.265625 -0.953125 -0.40625l-1.609375 -0.34375q-1.375 -0.28125 -2.03125 -0.953125q-0.640625 -0.671875 -0.640625 -1.703125q0 -0.875 0.484375 -1.515625q0.484375 -0.640625 1.34375 -1.0q0.875 -0.359375 2.0 -0.359375q1.65625 0 2.609375 0.71875q0.96875 0.703125 1.1875 1.90625zm6.169327 7.140625q-1.390625 0 -2.40625 -0.609375q-1.0 -0.609375 -1.5625 -1.703125q-0.5625 -1.09375 -0.5625 -2.5625q0 -1.46875 0.5625 -2.5625q0.5625 -1.109375 1.5625 -1.71875q1.015625 -0.609375 2.40625 -0.609375q1.390625 0 2.40625 0.609375q1.015625 0.609375 1.5625 1.71875q0.5625 1.09375 0.5625 2.5625q0 1.46875 -0.5625 2.5625q-0.546875 1.09375 -1.5625 1.703125q-1.015625 0.609375 -2.40625 0.609375zm0.015625 -1.78125q0.75 0 1.25 -0.421875q0.515625 -0.421875 0.75 -1.109375q0.25 -0.703125 0.25 -1.5625q0 -0.875 -0.25 -1.578125q-0.234375 -0.703125 -0.75 -1.125q-0.5 -0.421875 -1.25 -0.421875q-0.765625 0 -1.28125 0.421875q-0.5 0.421875 -0.75 1.125q-0.25 0.703125 -0.25 1.578125q0 0.859375 0.25 1.5625q0.25 0.6875 0.75 1.109375q0.515625 0.421875 1.28125 0.421875zm8.628281 -3.9375l0 5.53125l-2.234375 0l0 -9.453125l2.140625 0l0 1.609375l0.109375 0q0.3125 -0.796875 1.03125 -1.265625q0.71875 -0.46875 1.78125 -0.46875q0.984375 0 1.703125 0.421875q0.734375 0.421875 1.140625 1.21875q0.40625 0.78125 0.390625 1.921875l0 6.015625l-2.21875 0l0 -5.671875q0 -0.953125 -0.5 -1.484375q-0.484375 -0.53125 -1.34375 -0.53125q-0.59375 0 -1.046875 0.25q-0.453125 0.25 -0.703125 0.734375q-0.25 0.484375 -0.25 1.171875zm11.049667 5.71875q-0.890625 0 -1.609375 -0.3125q-0.71875 -0.328125 -1.140625 -0.953125q-0.40625 -0.640625 -0.40625 -1.578125q0 -0.796875 0.296875 -1.3125q0.296875 -0.53125 0.796875 -0.84375q0.515625 -0.3125 1.15625 -0.46875q0.640625 -0.171875 1.328125 -0.25q0.84375 -0.078125 1.359375 -0.140625q0.515625 -0.078125 0.75 -0.234375q0.234375 -0.15625 0.234375 -0.46875l0 -0.03125q0 -0.703125 -0.421875 -1.078125q-0.40625 -0.390625 -1.171875 -0.390625q-0.828125 0 -1.3125 0.359375q-0.46875 0.359375 -0.625 0.84375l-2.078125 -0.296875q0.234375 -0.859375 0.796875 -1.4375q0.578125 -0.578125 1.390625 -0.875q0.828125 -0.296875 1.8125 -0.296875q0.6875 0 1.359375 0.171875q0.671875 0.15625 1.234375 0.53125q0.5625 0.359375 0.90625 0.984375q0.34375 0.625 0.34375 1.5625l0 6.328125l-2.140625 0l0 -1.296875l-0.078125 0q-0.203125 0.390625 -0.578125 0.734375q-0.359375 0.34375 -0.90625 0.546875q-0.546875 0.203125 -1.296875 0.203125zm0.578125 -1.640625q0.671875 0 1.15625 -0.265625q0.5 -0.265625 0.765625 -0.703125q0.28125 -0.453125 0.28125 -0.96875l0 -1.109375q-0.109375 0.078125 -0.359375 0.15625q-0.25 0.078125 -0.5625 0.140625q-0.296875 0.046875 -0.609375 0.09375q-0.296875 0.03125 -0.515625 0.0625q-0.5 0.078125 -0.90625 0.234375q-0.390625 0.140625 -0.625 0.421875q-0.21875 0.265625 -0.21875 0.703125q0 0.609375 0.453125 0.921875q0.453125 0.3125 1.140625 0.3125zm8.893616 -11.15625l0 12.609375l-2.234375 0l0 -12.609375l2.234375 0z" fill-rule="nonzero"/></g></svg>