<svg version="1.1" viewBox="0.0 0.0 1066.4330708661416 474.9212598425197" fill="none" stroke="none" stroke-linecap="square" stroke-miterlimit="10" xmlns:xlink="http://www.w3.org/1999/xlink" xmlns="http://www.w3.org/2000/svg"><clipPath id="p.0"><path d="m0 0l1066.4331 0l0 474.92126l-1066.4331 0l0 -474.92126z" clip-rule="nonzero"/></clipPath><g clip-path="url(#p.0)"><path fill="#000000" fill-opacity="0.0" d="m0 0l1066.4331 0l0 474.92126l-1066.4331 0z" fill-rule="evenodd"/><path fill="#000000" fill-opacity="0.0" d="m86.66929 5.937008l892.8819 0l0 461.5118l-892.8819 0z" fill-rule="evenodd"/><path stroke="#b7b7b7" stroke-width="1.0" stroke-linejoin="round" stroke-linecap="butt" stroke-dasharray="4.0,3.0" d="m86.66929 5.937008l892.8819 0l0 461.5118l-892.8819 0z" fill-rule="evenodd"/><path fill="#000000" d="m97.34116 23.794506l5.75 0l0 9.0625l-1.53125 0l0 -7.8125l-4.21875 0l0 -1.25zm4.828125 -1.875q-0.546875 0 -0.890625 -0.3125q-0.34375 -0.3125 -0.34375 -0.859375q0 -0.546875 0.34375 -0.859375q0.34375 -0.328125 0.890625 -0.328125q0.515625 0 0.859375 0.328125q0.359375 0.3125 0.359375 0.859375q0 0.546875 -0.359375 0.859375q-0.34375 0.3125 -0.859375 0.3125zm6.428131 1.875l1.265625 0l0.140625 1.546875l0.0625 0q0.71875 -0.765625 1.53125 -1.265625q0.828125 -0.515625 1.890625 -0.515625q1.625 0 2.375 0.9375q0.75 0.921875 0.75 2.71875l0 5.640625l-1.515625 0l0 -5.421875q0 -1.296875 -0.5 -1.921875q-0.484375 -0.625 -1.59375 -0.625q-0.40625 0 -0.765625 0.109375q-0.34375 0.09375 -0.6875 0.3125q-0.328125 0.203125 -0.6875 0.515625q-0.34375 0.296875 -0.734375 0.703125l0 6.328125l-1.53125 0l0 -9.0625zm13.303131 1.25l-2.5625 0l0 -1.15625l2.625 -0.09375l0.203125 -2.546875l1.265625 0l0 2.546875l4.453125 0l0 1.25l-4.453125 0l0 4.3125q0 0.609375 0.109375 1.0625q0.109375 0.453125 0.375 0.78125q0.265625 0.3125 0.703125 0.46875q0.453125 0.15625 1.109375 0.15625q0.65625 0 1.171875 -0.109375q0.515625 -0.109375 1.0 -0.296875l0.34375763 1.125q-0.6093826 0.21875 -1.3593826 0.375q-0.75 0.15625 -1.5 0.15625q-0.984375 0 -1.65625 -0.265625q-0.671875 -0.265625 -1.078125 -0.765625q-0.390625 -0.5 -0.578125 -1.1875q-0.171875 -0.6875 -0.171875 -1.53125l0 -4.28125zm8.850014 3.296875q0 -1.140625 0.390625 -2.015625q0.40625 -0.890625 1.09375 -1.5q0.6875 -0.625 1.609375 -0.9375q0.921875 -0.328125 1.953125 -0.328125q1.125 0 1.9375 0.40625q0.8125 0.390625 1.359375 0.921875l-0.765625 0.984375q-0.546875 -0.484375 -1.15625 -0.75q-0.609375 -0.28125 -1.3125 -0.28125q-0.78125 0 -1.4375 0.25q-0.65625 0.25 -1.125 0.71875q-0.453125 0.46875 -0.71875 1.109375q-0.25 0.640625 -0.25 1.421875q0 0.78125 0.25 1.421875q0.25 0.625 0.703125 1.09375q0.46875 0.453125 1.109375 0.703125q0.640625 0.25 1.421875 0.25q0.84375 0 1.546875 -0.328125q0.703125 -0.328125 1.28125 -0.8125l0.671875 1.0q-0.75 0.671875 -1.671875 1.046875q-0.921875 0.359375 -1.9375 0.359375q-1.0625 0 -1.96875 -0.3125q-0.90625 -0.3125 -1.578125 -0.921875q-0.671875 -0.609375 -1.046875 -1.484375q-0.359375 -0.890625 -0.359375 -2.015625z" fill-rule="nonzero"/><path fill="#d0e0e3" d="m131.86613 45.37008l100.44095 0l0 385.41733l-100.44095 0z" fill-rule="evenodd"/><path stroke="#000000" stroke-width="1.0" stroke-linejoin="round" stroke-linecap="butt" d="m131.86613 45.37008l100.44095 0l0 385.41733l-100.44095 0z" fill-rule="evenodd"/><path fill="#000000" d="m143.33488 61.66008l4.328125 0q1.1875 0 2.1875 0.21875q1.0 0.21875 1.703125 0.671875q0.71875 0.453125 1.109375 1.1875q0.390625 0.734375 0.390625 1.765625q0 1.171875 -0.6875 2.125q-0.671875 0.953125 -2.0625 1.3125l0 0.09375q1.71875 0.265625 2.671875 1.203125q0.96875 0.9375 0.96875 2.5625q0 1.15625 -0.4375 2.015625q-0.421875 0.859375 -1.203125 1.4375q-0.78125 0.578125 -1.875 0.875q-1.09375 0.28125 -2.40625 0.28125l-4.6875 0l0 -15.75zm3.984375 6.71875q2.015625 0 2.890625 -0.6875q0.875 -0.703125 0.875 -2.015625q0 -1.296875 -0.921875 -1.859375q-0.921875 -0.5625 -2.75 -0.5625l-2.0625 0l0 5.125l1.96875 0zm0.40625 7.453125q2.046875 0 3.140625 -0.75q1.109375 -0.765625 1.109375 -2.375q0 -1.46875 -1.078125 -2.140625q-1.078125 -0.6875 -3.171875 -0.6875l-2.375 0l0 5.953125l2.375 0zm9.431213 -14.171875l2.015625 0l0 9.84375q0 1.21875 0.25 2.078125q0.265625 0.859375 0.703125 1.375q0.4375 0.515625 1.03125 0.75q0.609375 0.234375 1.328125 0.234375q0.71875 0 1.3125 -0.234375q0.609375 -0.234375 1.0625 -0.75q0.46875 -0.515625 0.71875 -1.375q0.25 -0.859375 0.25 -2.078125l0 -9.84375l1.9375 0l0 9.796875q0 1.703125 -0.390625 2.890625q-0.390625 1.171875 -1.09375 1.921875q-0.703125 0.75 -1.671875 1.09375q-0.96875 0.328125 -2.125 0.328125q-1.140625 0 -2.125 -0.328125q-0.984375 -0.34375 -1.703125 -1.09375q-0.703125 -0.75 -1.109375 -1.921875q-0.390625 -1.1875 -0.390625 -2.890625l0 -9.796875zm15.321838 12.3125q0.890625 0.890625 2.0625 1.4375q1.171875 0.53125 2.46875 0.53125q1.6875 0 2.59375 -0.703125q0.90625 -0.703125 0.90625 -1.859375q0 -0.59375 -0.21875 -1.015625q-0.203125 -0.421875 -0.59375 -0.71875q-0.390625 -0.3125 -0.90625 -0.546875q-0.515625 -0.234375 -1.109375 -0.5l-2.25 -0.984375q-0.609375 -0.25 -1.21875 -0.578125q-0.59375 -0.34375 -1.09375 -0.8125q-0.484375 -0.484375 -0.796875 -1.140625q-0.296875 -0.65625 -0.296875 -1.53125q0 -0.890625 0.375 -1.65625q0.390625 -0.765625 1.0625 -1.328125q0.6875 -0.5625 1.640625 -0.875q0.953125 -0.3125 2.078125 -0.3125q1.484375 0 2.734375 0.546875q1.25 0.53125 2.109375 1.390625l-1.0625 1.296875q-0.765625 -0.6875 -1.6875 -1.078125q-0.921875 -0.40625 -2.09375 -0.40625q-1.4375 0 -2.28125 0.609375q-0.84375 0.609375 -0.84375 1.703125q0 0.5625 0.25 0.96875q0.25 0.390625 0.640625 0.6875q0.40625 0.296875 0.90625 0.515625q0.515625 0.21875 1.015625 0.4375l2.203125 0.953125q0.71875 0.296875 1.359375 0.671875q0.640625 0.359375 1.109375 0.859375q0.46875 0.484375 0.734375 1.15625q0.28125 0.65625 0.28125 1.515625q0 0.9375 -0.390625 1.765625q-0.375 0.8125 -1.09375 1.421875q-0.71875 0.609375 -1.765625 0.953125q-1.03125 0.34375 -2.328125 0.34375q-1.71875 0 -3.171875 -0.609375q-1.453125 -0.625 -2.53125 -1.71875l1.203125 -1.390625z" fill-rule="nonzero"/><path fill="#000000" d="m142.91301 90.66008l3.828125 0q3.578125 0 5.4375 2.015625q1.859375 2.015625 1.859375 5.796875q0 1.859375 -0.46875 3.34375q-0.46875 1.46875 -1.375 2.5q-0.90625 1.015625 -2.25 1.5625q-1.34375 0.53125 -3.109375 0.53125l-3.921875 0l0 -15.75zm3.71875 14.125q2.6875 0 4.015625 -1.65625q1.328125 -1.65625 1.328125 -4.65625q0 -3.0 -1.328125 -4.578125q-1.328125 -1.59375 -4.015625 -1.59375l-1.734375 0l0 12.484375l1.734375 0zm10.290588 -4.1875q0 -1.4375 0.5 -2.578125q0.5 -1.140625 1.328125 -1.921875q0.828125 -0.796875 1.890625 -1.21875q1.078125 -0.421875 2.203125 -0.421875q1.25 0 2.234375 0.40625q0.984375 0.390625 1.671875 1.109375q0.6875 0.71875 1.046875 1.734375q0.359375 1.0 0.359375 2.21875q0 0.3125 -0.015625 0.625q-0.015625 0.296875 -0.0625 0.5l-9.109375 0q0.015625 0.9375 0.359375 1.6875q0.359375 0.75 0.9375 1.28125q0.59375 0.515625 1.390625 0.8125q0.8125 0.28125 1.765625 0.28125q1.03125 0 1.875 -0.28125q0.859375 -0.296875 1.6875 -0.796875l0.6875 1.296875q-0.859375 0.546875 -1.96875 0.953125q-1.09375 0.40625 -2.515625 0.40625q-1.296875 0 -2.4375 -0.40625q-1.140625 -0.421875 -2.0 -1.203125q-0.84375 -0.78125 -1.34375 -1.90625q-0.484375 -1.140625 -0.484375 -2.578125zm9.40625 -0.953125q0 -1.75 -0.921875 -2.6875q-0.90625 -0.9375 -2.53125 -0.9375q-0.71875 0 -1.390625 0.25q-0.65625 0.234375 -1.1875 0.703125q-0.515625 0.46875 -0.875 1.140625q-0.359375 0.671875 -0.484375 1.53125l7.390625 0zm4.7749634 -4.890625l1.53125 0l0.171875 1.53125l0.078125 0q0.421875 -0.8125 1.015625 -1.3125q0.59375 -0.515625 1.59375 -0.515625q1.78125 0 2.21875 2.015625q0.515625 -0.90625 1.140625 -1.453125q0.625 -0.5625 1.609375 -0.5625q1.234375 0 1.890625 0.921875q0.65625 0.921875 0.65625 2.671875l0 8.359375l-1.890625 0l0 -8.1875q0 -2.0625 -1.28125 -2.0625q-0.625 0 -1.078125 0.453125q-0.453125 0.4375 -0.90625 1.34375l0 8.453125l-1.59375 0l0 -8.1875q0 -2.0625 -1.3125 -2.0625q-0.625 0 -1.0625 0.453125q-0.421875 0.4375 -0.875 1.34375l0 8.453125l-1.90625 0l0 -11.65625zm25.087463 11.65625l-1.609375 0l-0.171875 -2.046875l-0.09375 0q-0.890625 1.03125 -1.9375 1.6875q-1.046875 0.640625 -2.40625 0.640625q-2.109375 0 -3.09375 -1.1875q-0.96875 -1.1875 -0.96875 -3.515625l0 -7.234375l2.0 0l0 6.96875q0 1.65625 0.609375 2.46875q0.609375 0.796875 2.078125 0.796875q1.0 0 1.8125 -0.515625q0.828125 -0.515625 1.8125 -1.640625l0 -8.078125l1.96875 0l0 11.65625zm8.243713 -6.046875l-4.09375 -5.609375l2.1875 0l1.84375 2.5625q0.3125 0.484375 0.65625 0.984375q0.34375 0.5 0.703125 0.984375l0.109375 0q0.328125 -0.484375 0.65625 -1.0q0.34375 -0.53125 0.65625 -1.015625l1.75 -2.515625l2.09375 0l-4.15625 5.78125l4.46875 5.875l-2.15625 0l-2.046875 -2.6875q-0.359375 -0.5 -0.765625 -1.046875q-0.390625 -0.5625 -0.765625 -1.0625l-0.09375 0q-0.375 0.53125 -0.734375 1.046875q-0.359375 0.515625 -0.71875 1.0625l-1.921875 2.6875l-2.109375 0l4.4375 -6.046875z" fill-rule="nonzero"/><path fill="#d9ead3" d="m286.27298 45.37008l646.2992 0l0 78.456696l-646.2992 0z" fill-rule="evenodd"/><path stroke="#000000" stroke-width="1.0" stroke-linejoin="round" stroke-linecap="butt" d="m286.27298 45.37008l646.2992 0l0 78.456696l-646.2992 0z" fill-rule="evenodd"/><path fill="#000000" d="m298.77298 65.75383l1.640625 0l0.15625 2.75l0.078125 0q0.90625 -1.40625 2.234375 -2.21875q1.34375 -0.828125 2.96875 -0.828125q0.65625 0 1.203125 0.109375q0.5625 0.109375 1.109375 0.375l-0.453125 1.703125q-0.625 -0.21875 -1.046875 -0.3125q-0.421875 -0.09375 -1.125 -0.09375q-1.3125 0 -2.53125 0.765625q-1.203125 0.75 -2.265625 2.5625l0 6.84375l-1.96875 0l0 -11.65625zm12.556213 5.84375q0 -1.4375 0.5 -2.578125q0.5 -1.140625 1.328125 -1.921875q0.828125 -0.796875 1.890625 -1.21875q1.078125 -0.421875 2.203125 -0.421875q1.25 0 2.234375 0.40625q0.984375 0.390625 1.671875 1.109375q0.6875 0.71875 1.046875 1.734375q0.359375 1.0 0.359375 2.21875q0 0.3125 -0.015625 0.625q-0.015625 0.296875 -0.0625 0.5l-9.109375 0q0.015625 0.9375 0.359375 1.6875q0.359375 0.75 0.9375 1.28125q0.59375 0.515625 1.390625 0.8125q0.8125 0.28125 1.765625 0.28125q1.03125 0 1.875 -0.28125q0.859375 -0.296875 1.6875 -0.796875l0.6875 1.296875q-0.859375 0.546875 -1.96875 0.953125q-1.09375 0.40625 -2.515625 0.40625q-1.296875 0 -2.4375 -0.40625q-1.140625 -0.421875 -2.0 -1.203125q-0.84375 -0.78125 -1.34375 -1.90625q-0.484375 -1.140625 -0.484375 -2.578125zm9.40625 -0.953125q0 -1.75 -0.921875 -2.6875q-0.90625 -0.9375 -2.53125 -0.9375q-0.71875 0 -1.390625 0.25q-0.65625 0.234375 -1.1875 0.703125q-0.515625 0.46875 -0.875 1.140625q-0.359375 0.671875 -0.484375 1.53125l7.390625 0zm6.7749634 8.703125q0 0.921875 0.96875 1.5q0.96875 0.578125 2.84375 0.578125q1.0 0 1.8125 -0.21875q0.828125 -0.203125 1.40625 -0.546875q0.578125 -0.328125 0.875 -0.765625q0.296875 -0.421875 0.296875 -0.875q0 -0.84375 -0.671875 -1.140625q-0.65625 -0.28125 -2.0 -0.28125l-2.265625 0q-0.515625 0 -0.96875 -0.03125q-0.4375 -0.03125 -0.8125 -0.15625q-0.84375 0.453125 -1.171875 0.9375q-0.3125 0.5 -0.3125 1.0zm-1.703125 0.203125q0 -0.703125 0.484375 -1.375q0.5 -0.671875 1.421875 -1.21875l0 -0.09375q-0.46875 -0.265625 -0.828125 -0.71875q-0.359375 -0.46875 -0.359375 -1.203125q0 -0.5625 0.359375 -1.140625q0.359375 -0.59375 1.03125 -1.046875l0 -0.09375q-0.609375 -0.453125 -1.03125 -1.203125q-0.40625 -0.765625 -0.40625 -1.828125q0 -0.953125 0.359375 -1.71875q0.375 -0.765625 1.0 -1.3125q0.625 -0.546875 1.453125 -0.84375q0.828125 -0.296875 1.765625 -0.296875q0.953125 0 1.734375 0.296875l4.8125 0l0 1.5l-3.109375 0q0.40625 0.4375 0.734375 1.0625q0.34375 0.625 0.34375 1.390625q0 0.9375 -0.359375 1.6875q-0.34375 0.734375 -0.953125 1.25q-0.609375 0.515625 -1.4375 0.796875q-0.828125 0.265625 -1.765625 0.265625q-0.453125 0 -0.96875 -0.09375q-0.515625 -0.109375 -1.0 -0.328125q-0.90625 0.578125 -0.90625 1.34375q0 0.6875 0.625 1.015625q0.640625 0.328125 1.796875 0.328125l2.609375 0q2.265625 0 3.34375 0.625q1.09375 0.625 1.09375 2.109375q0 0.8125 -0.453125 1.546875q-0.453125 0.75 -1.296875 1.296875q-0.84375 0.5625 -2.046875 0.890625q-1.1875 0.34375 -2.671875 0.34375q-2.578125 0 -3.984375 -0.84375q-1.390625 -0.828125 -1.390625 -2.390625zm5.25 -7.15625q1.125 0 1.90625 -0.734375q0.78125 -0.75 0.78125 -2.03125q0 -0.59375 -0.21875 -1.09375q-0.21875 -0.515625 -0.578125 -0.875q-0.359375 -0.359375 -0.859375 -0.5625q-0.484375 -0.203125 -1.03125 -0.203125q-0.546875 0 -1.046875 0.203125q-0.484375 0.203125 -0.84375 0.5625q-0.359375 0.359375 -0.578125 0.875q-0.21875 0.5 -0.21875 1.09375q0 1.28125 0.78125 2.03125q0.796875 0.734375 1.90625 0.734375zm9.571838 -6.640625l7.390625 0l0 11.65625l-1.96875 0l0 -10.0625l-5.421875 0l0 -1.59375zm6.203125 -2.40625q-0.703125 0 -1.15625 -0.40625q-0.4375 -0.40625 -0.4375 -1.109375q0 -0.6875 0.4375 -1.109375q0.453125 -0.421875 1.15625 -0.421875q0.671875 0 1.125 0.421875q0.453125 0.421875 0.453125 1.109375q0 0.703125 -0.453125 1.109375q-0.453125 0.40625 -1.125 0.40625zm8.728088 11.234375q0.984375 0.71875 2.109375 1.15625q1.125 0.421875 2.71875 0.421875q1.578125 0 2.34375 -0.515625q0.765625 -0.53125 0.765625 -1.3125q0 -0.671875 -0.828125 -1.1875q-0.828125 -0.53125 -2.953125 -1.0625q-0.921875 -0.21875 -1.734375 -0.53125q-0.796875 -0.3125 -1.390625 -0.734375q-0.59375 -0.421875 -0.953125 -0.921875q-0.359375 -0.5 -0.359375 -1.125q0 -0.703125 0.3125 -1.3125q0.3125 -0.609375 0.921875 -1.046875q0.609375 -0.453125 1.53125 -0.703125q0.921875 -0.25 2.125 -0.25q1.3125 0 2.5625 0.453125q1.25 0.4375 2.109375 1.03125l-0.953125 1.28125q-0.765625 -0.5625 -1.703125 -0.890625q-0.9375 -0.34375 -2.015625 -0.34375q-0.8125 0 -1.375 0.140625q-0.546875 0.125 -0.890625 0.359375q-0.328125 0.21875 -0.46875 0.53125q-0.140625 0.3125 -0.140625 0.65625q0 0.71875 0.984375 1.1875q0.984375 0.46875 2.5625 0.875q2.375 0.59375 3.515625 1.375q1.140625 0.765625 1.140625 2.109375q0 0.71875 -0.34375 1.34375q-0.328125 0.625 -1.0 1.109375q-0.65625 0.46875 -1.625 0.734375q-0.96875 0.28125 -2.21875 0.28125q-1.71875 0 -3.171875 -0.53125q-1.453125 -0.546875 -2.53125 -1.28125l0.953125 -1.296875zm16.649963 -7.234375l-3.28125 0l0 -1.484375l3.359375 -0.109375l0.265625 -3.265625l1.625 0l0 3.265625l5.734375 0l0 1.59375l-5.734375 0l0 5.546875q0 0.796875 0.140625 1.390625q0.15625 0.578125 0.484375 0.984375q0.34375 0.40625 0.921875 0.625q0.578125 0.203125 1.40625 0.203125q0.84375 0 1.515625 -0.140625q0.671875 -0.15625 1.296875 -0.390625l0.4375 1.4375q-0.796875 0.28125 -1.765625 0.484375q-0.953125 0.203125 -1.90625 0.203125q-1.28125 0 -2.140625 -0.34375q-0.859375 -0.34375 -1.375 -0.984375q-0.515625 -0.640625 -0.75 -1.515625q-0.234375 -0.890625 -0.234375 -1.96875l0 -5.53125zm11.118713 4.25q0 -1.4375 0.5 -2.578125q0.5 -1.140625 1.328125 -1.921875q0.828125 -0.796875 1.890625 -1.21875q1.078125 -0.421875 2.203125 -0.421875q1.25 0 2.234375 0.40625q0.984375 0.390625 1.671875 1.109375q0.6875 0.71875 1.046875 1.734375q0.359375 1.0 0.359375 2.21875q0 0.3125 -0.015625 0.625q-0.015625 0.296875 -0.0625 0.5l-9.109375 0q0.015625 0.9375 0.359375 1.6875q0.359375 0.75 0.9375 1.28125q0.59375 0.515625 1.390625 0.8125q0.8125 0.28125 1.765625 0.28125q1.03125 0 1.875 -0.28125q0.859375 -0.296875 1.6875 -0.796875l0.6875 1.296875q-0.859375 0.546875 -1.96875 0.953125q-1.09375 0.40625 -2.515625 0.40625q-1.296875 0 -2.4375 -0.40625q-1.140625 -0.421875 -2.0 -1.203125q-0.84375 -0.78125 -1.34375 -1.90625q-0.484375 -1.140625 -0.484375 -2.578125zm9.40625 -0.953125q0 -1.75 -0.921875 -2.6875q-0.90625 -0.9375 -2.53125 -0.9375q-0.71875 0 -1.390625 0.25q-0.65625 0.234375 -1.1875 0.703125q-0.515625 0.46875 -0.875 1.140625q-0.359375 0.671875 -0.484375 1.53125l7.390625 0zm6.8374634 -4.890625l1.640625 0l0.15625 2.75l0.078125 0q0.90625 -1.40625 2.234375 -2.21875q1.34375 -0.828125 2.96875 -0.828125q0.65625 0 1.203125 0.109375q0.5625 0.109375 1.109375 0.375l-0.453125 1.703125q-0.625 -0.21875 -1.046875 -0.3125q-0.421875 -0.09375 -1.125 -0.09375q-1.3125 0 -2.53125 0.765625q-1.203125 0.75 -2.265625 2.5625l0 6.84375l-1.96875 0l0 -11.65625zm13.587463 8.828125q0.984375 0.71875 2.109375 1.15625q1.125 0.421875 2.71875 0.421875q1.578125 0 2.34375 -0.515625q0.765625 -0.53125 0.765625 -1.3125q0 -0.671875 -0.828125 -1.1875q-0.828125 -0.53125 -2.953125 -1.0625q-0.921875 -0.21875 -1.734375 -0.53125q-0.796875 -0.3125 -1.390625 -0.734375q-0.59375 -0.421875 -0.953125 -0.921875q-0.359375 -0.5 -0.359375 -1.125q0 -0.703125 0.3125 -1.3125q0.3125 -0.609375 0.921875 -1.046875q0.609375 -0.453125 1.53125 -0.703125q0.921875 -0.25 2.125 -0.25q1.3125 0 2.5625 0.453125q1.25 0.4375 2.109375 1.03125l-0.953125 1.28125q-0.765625 -0.5625 -1.703125 -0.890625q-0.9375 -0.34375 -2.015625 -0.34375q-0.8125 0 -1.375 0.140625q-0.546875 0.125 -0.890625 0.359375q-0.328125 0.21875 -0.46875 0.53125q-0.140625 0.3125 -0.140625 0.65625q0 0.71875 0.984375 1.1875q0.984375 0.46875 2.5625 0.875q2.375 0.59375 3.515625 1.375q1.140625 0.765625 1.140625 2.109375q0 0.71875 -0.34375 1.34375q-0.328125 0.625 -1.0 1.109375q-0.65625 0.46875 -1.625 0.734375q-0.96875 0.28125 -2.21875 0.28125q-1.71875 0 -3.171875 -0.53125q-1.453125 -0.546875 -2.53125 -1.28125l0.953125 -1.296875z" fill-rule="nonzero"/><path fill="#fff2cc" d="m286.27298 164.27821l181.95273 0l0 266.5197l-181.95273 0z" fill-rule="evenodd"/><path stroke="#000000" stroke-width="1.0" stroke-linejoin="round" stroke-linecap="butt" d="m286.27298 164.27821l181.95273 0l0 266.5197l-181.95273 0z" fill-rule="evenodd"/><path fill="#000000" d="m297.21048 180.56822l2.21875 0l2.234375 6.703125l0.78125 2.546875l0.09375 0l0.78125 -2.546875l2.203125 -6.703125l2.203125 0l0 15.75l-1.703125 0l0 -8.859375q0 -0.484375 0.015625 -1.125q0.03125 -0.640625 0.0625 -1.296875q0.046875 -0.671875 0.078125 -1.296875q0.03125 -0.640625 0.078125 -1.125l-0.0625 0l-1.03125 3.359375l-2.15625 6.078125l-1.09375 0l-2.15625 -6.078125l-1.046875 -3.359375l-0.078125 0q0.03125 0.484375 0.078125 1.125q0.046875 0.625 0.09375 1.296875q0.046875 0.65625 0.0625 1.296875q0.03125 0.640625 0.03125 1.125l0 8.859375l-1.6875 0l0 -15.75zm15.274963 12.3125q0.890625 0.890625 2.0625 1.4375q1.171875 0.53125 2.46875 0.53125q1.6875 0 2.59375 -0.703125q0.90625 -0.703125 0.90625 -1.859375q0 -0.59375 -0.21875 -1.015625q-0.203125 -0.421875 -0.59375 -0.71875q-0.390625 -0.3125 -0.90625 -0.546875q-0.515625 -0.234375 -1.109375 -0.5l-2.25 -0.984375q-0.609375 -0.25 -1.21875 -0.578125q-0.59375 -0.34375 -1.09375 -0.8125q-0.484375 -0.484375 -0.796875 -1.140625q-0.296875 -0.65625 -0.296875 -1.53125q0 -0.890625 0.375 -1.65625q0.390625 -0.765625 1.0625 -1.328125q0.6875 -0.5625 1.640625 -0.875q0.953125 -0.3125 2.078125 -0.3125q1.484375 0 2.734375 0.546875q1.25 0.53125 2.109375 1.390625l-1.0625 1.296875q-0.765625 -0.6875 -1.6875 -1.078125q-0.921875 -0.40625 -2.09375 -0.40625q-1.4375 0 -2.28125 0.609375q-0.84375 0.609375 -0.84375 1.703125q0 0.5625 0.25 0.96875q0.25 0.390625 0.640625 0.6875q0.40625 0.296875 0.90625 0.515625q0.515625 0.21875 1.015625 0.4375l2.203125 0.953125q0.71875 0.296875 1.359375 0.671875q0.640625 0.359375 1.109375 0.859375q0.46875 0.484375 0.734375 1.15625q0.28125 0.65625 0.28125 1.515625q0 0.9375 -0.390625 1.765625q-0.375 0.8125 -1.09375 1.421875q-0.71875 0.609375 -1.765625 0.953125q-1.03125 0.34375 -2.328125 0.34375q-1.71875 0 -3.171875 -0.609375q-1.453125 -0.625 -2.53125 -1.71875l1.203125 -1.390625zm13.868713 1.734375l3.90625 0l0 -12.359375l-3.90625 0l0 -1.6875l9.84375 0l0 1.6875l-3.921875 0l0 12.359375l3.921875 0l0 1.703125l-9.84375 0l0 -1.703125zm14.165588 -6.953125l10.3125 0l0 1.484375l-10.3125 0l0 -1.484375zm18.353088 0.515625l-4.390625 -7.609375l2.203125 0l2.21875 4.03125q0.3125 0.5625 0.59375 1.078125q0.28125 0.515625 0.671875 1.203125l0.09375 0q0.34375 -0.6875 0.59375 -1.203125q0.25 -0.515625 0.53125 -1.078125l2.171875 -4.03125l2.109375 0l-4.390625 7.703125l4.703125 8.046875l-2.21875 0l-2.375 -4.25q-0.328125 -0.578125 -0.65625 -1.1875q-0.328125 -0.609375 -0.734375 -1.328125l-0.09375 0q-0.328125 0.71875 -0.640625 1.328125q-0.3125 0.609375 -0.625 1.1875l-2.359375 4.25l-2.109375 0l4.703125 -8.140625z" fill-rule="nonzero"/><path fill="#d9d2e9" d="m521.86615 164.27821l410.70868 0l0 266.5197l-410.70868 0z" fill-rule="evenodd"/><path stroke="#000000" stroke-width="1.0" stroke-linejoin="round" stroke-linecap="butt" d="m521.86615 164.27821l410.70868 0l0 266.5197l-410.70868 0z" fill-rule="evenodd"/><path fill="#000000" d="m533.1474 194.6151l3.90625 0l0 -12.359375l-3.90625 0l0 -1.6875l9.84375 0l0 1.6875l-3.921875 0l0 12.359375l3.921875 0l0 1.703125l-9.84375 0l0 -1.703125zm14.353088 -9.953125l1.625 0l0.171875 1.984375l0.09375 0q0.921875 -0.984375 1.96875 -1.625q1.0625 -0.65625 2.421875 -0.65625q2.09375 0 3.0625 1.1875q0.96875 1.1875 0.96875 3.515625l0 7.25l-1.96875 0l0 -6.984375q0 -1.65625 -0.625 -2.453125q-0.609375 -0.8125 -2.0625 -0.8125q-0.515625 0 -0.96875 0.140625q-0.4375 0.125 -0.875 0.390625q-0.4375 0.265625 -0.890625 0.671875q-0.453125 0.390625 -0.953125 0.90625l0 8.140625l-1.96875 0l0 -11.65625zm17.103088 1.59375l-3.28125 0l0 -1.484375l3.359375 -0.109375l0.265625 -3.265625l1.625 0l0 3.265625l5.734375 0l0 1.59375l-5.734375 0l0 5.546875q0 0.796875 0.140625 1.390625q0.15625 0.578125 0.484375 0.984375q0.34375 0.40625 0.921875 0.625q0.578125 0.203125 1.40625 0.203125q0.84375 0 1.515625 -0.140625q0.671875 -0.15625 1.296875 -0.390625l0.4375 1.4375q-0.796875 0.28125 -1.765625 0.484375q-0.953125 0.203125 -1.90625 0.203125q-1.28125 0 -2.140625 -0.34375q-0.859375 -0.34375 -1.375 -0.984375q-0.515625 -0.640625 -0.75 -1.515625q-0.234375 -0.890625 -0.234375 -1.96875l0 -5.53125zm11.118713 4.25q0 -1.4375 0.5 -2.578125q0.5 -1.140625 1.328125 -1.921875q0.828125 -0.796875 1.890625 -1.21875q1.078125 -0.421875 2.203125 -0.421875q1.25 0 2.234375 0.40625q0.984375 0.390625 1.671875 1.109375q0.6875 0.71875 1.046875 1.734375q0.359375 1.0 0.359375 2.21875q0 0.3125 -0.015625 0.625q-0.015625 0.296875 -0.0625 0.5l-9.109375 0q0.015625 0.9375 0.359375 1.6875q0.359375 0.75 0.9375 1.28125q0.59375 0.515625 1.390625 0.8125q0.8125 0.28125 1.765625 0.28125q1.03125 0 1.875 -0.28125q0.859375 -0.296875 1.6875 -0.796875l0.6875 1.296875q-0.859375 0.546875 -1.96875 0.953125q-1.09375 0.40625 -2.515625 0.40625q-1.296875 0 -2.4375 -0.40625q-1.140625 -0.421875 -2.0 -1.203125q-0.84375 -0.78125 -1.34375 -1.90625q-0.484375 -1.140625 -0.484375 -2.578125zm9.40625 -0.953125q0 -1.75 -0.921875 -2.6875q-0.90625 -0.9375 -2.53125 -0.9375q-0.71875 0 -1.390625 0.25q-0.65625 0.234375 -1.1875 0.703125q-0.515625 0.46875 -0.875 1.140625q-0.359375 0.671875 -0.484375 1.53125l7.390625 0zm6.8374634 -4.890625l1.640625 0l0.15625 2.75l0.078125 0q0.90625 -1.40625 2.234375 -2.21875q1.34375 -0.828125 2.96875 -0.828125q0.65625 0 1.203125 0.109375q0.5625 0.109375 1.109375 0.375l-0.453125 1.703125q-0.625 -0.21875 -1.046875 -0.3125q-0.421875 -0.09375 -1.125 -0.09375q-1.3125 0 -2.53125 0.765625q-1.203125 0.75 -2.265625 2.5625l0 6.84375l-1.96875 0l0 -11.65625zm14.399963 0l1.640625 0l0.15625 2.75l0.078125 0q0.90625 -1.40625 2.234375 -2.21875q1.34375 -0.828125 2.96875 -0.828125q0.65625 0 1.203125 0.109375q0.5625 0.109375 1.109375 0.375l-0.453125 1.703125q-0.625 -0.21875 -1.046875 -0.3125q-0.421875 -0.09375 -1.125 -0.09375q-1.3125 0 -2.53125 0.765625q-1.203125 0.75 -2.265625 2.5625l0 6.84375l-1.96875 0l0 -11.65625zm23.024963 11.65625l-1.609375 0l-0.171875 -2.046875l-0.09375 0q-0.890625 1.03125 -1.9375 1.6875q-1.046875 0.640625 -2.40625 0.640625q-2.109375 0 -3.09375 -1.1875q-0.96875 -1.1875 -0.96875 -3.515625l0 -7.234375l2.0 0l0 6.96875q0 1.65625 0.609375 2.46875q0.609375 0.796875 2.078125 0.796875q1.0 0 1.8125 -0.515625q0.828125 -0.515625 1.8125 -1.640625l0 -8.078125l1.96875 0l0 11.65625zm6.4780884 0.984375l0 3.9375l-1.96875 0l0 -16.578125l1.625 0l0.171875 1.484375l0.078125 0q0.8125 -0.765625 1.875 -1.265625q1.078125 -0.515625 2.15625 -0.515625q1.171875 0 2.0625 0.421875q0.90625 0.421875 1.515625 1.203125q0.625 0.78125 0.921875 1.875q0.3125 1.078125 0.3125 2.453125q0 1.484375 -0.4375 2.65625q-0.421875 1.15625 -1.15625 1.984375q-0.734375 0.8125 -1.6875 1.234375q-0.953125 0.40625 -2.015625 0.40625q-0.8125 0 -1.765625 -0.390625q-0.953125 -0.390625 -1.734375 -1.109375l0.046875 2.203125zm0 -3.71875q0.84375 0.75 1.671875 1.0625q0.84375 0.296875 1.4375 0.296875q1.59375 0 2.59375 -1.21875q1.015625 -1.21875 1.015625 -3.40625q0 -0.953125 -0.203125 -1.75q-0.1875 -0.796875 -0.578125 -1.359375q-0.390625 -0.5625 -1.015625 -0.875q-0.625 -0.3125 -1.5 -0.3125q-0.765625 0 -1.640625 0.421875q-0.875 0.421875 -1.78125 1.328125l0 5.8125zm15.134338 -7.328125l-3.28125 0l0 -1.484375l3.359375 -0.109375l0.265625 -3.265625l1.625 0l0 3.265625l5.734375 0l0 1.59375l-5.734375 0l0 5.546875q0 0.796875 0.140625 1.390625q0.15625 0.578125 0.484375 0.984375q0.34375 0.40625 0.921875 0.625q0.578125 0.203125 1.40625 0.203125q0.84375 0 1.515625 -0.140625q0.671875 -0.15625 1.296875 -0.390625l0.4375 1.4375q-0.796875 0.28125 -1.765625 0.484375q-0.953125 0.203125 -1.90625 0.203125q-1.28125 0 -2.140625 -0.34375q-0.859375 -0.34375 -1.375 -0.984375q-0.515625 -0.640625 -0.75 -1.515625q-0.234375 -0.890625 -0.234375 -1.96875l0 -5.53125zm25.128052 2.1875q0 -1.890625 0.515625 -3.40625q0.515625 -1.53125 1.4375 -2.578125q0.9375 -1.046875 2.21875 -1.609375q1.28125 -0.5625 2.8125 -0.5625q0.796875 0 1.4375 0.171875q0.65625 0.15625 1.1875 0.4375q0.546875 0.28125 0.96875 0.625q0.421875 0.328125 0.75 0.6875l-1.125 1.265625q-0.578125 -0.625 -1.328125 -1.03125q-0.734375 -0.40625 -1.890625 -0.40625q-1.09375 0 -2.0 0.453125q-0.890625 0.4375 -1.546875 1.265625q-0.640625 0.828125 -1.0 2.0q-0.34375 1.171875 -0.34375 2.640625q0 1.484375 0.328125 2.671875q0.328125 1.1875 0.9375 2.03125q0.609375 0.84375 1.515625 1.296875q0.921875 0.453125 2.0625 0.453125q0.84375 0 1.5625 -0.25q0.71875 -0.25 1.171875 -0.6875l0 -4.09375l-3.140625 0l0 -1.65625l5.0 0l0 6.625q-0.765625 0.765625 -1.96875 1.296875q-1.203125 0.515625 -2.734375 0.515625q-1.5 0 -2.75 -0.546875q-1.234375 -0.546875 -2.15625 -1.59375q-0.90625 -1.046875 -1.421875 -2.5625q-0.5 -1.53125 -0.5 -3.453125zm14.790588 2.0625q0 -1.4375 0.5 -2.578125q0.5 -1.140625 1.328125 -1.921875q0.828125 -0.796875 1.890625 -1.21875q1.078125 -0.421875 2.203125 -0.421875q1.25 0 2.234375 0.40625q0.984375 0.390625 1.671875 1.109375q0.6875 0.71875 1.046875 1.734375q0.359375 1.0 0.359375 2.21875q0 0.3125 -0.015625 0.625q-0.015625 0.296875 -0.0625 0.5l-9.109375 0q0.015625 0.9375 0.359375 1.6875q0.359375 0.75 0.9375 1.28125q0.59375 0.515625 1.390625 0.8125q0.8125 0.28125 1.765625 0.28125q1.03125 0 1.875 -0.28125q0.859375 -0.296875 1.6875 -0.796875l0.6875 1.296875q-0.859375 0.546875 -1.96875 0.953125q-1.09375 0.40625 -2.515625 0.40625q-1.296875 0 -2.4375 -0.40625q-1.140625 -0.421875 -2.0 -1.203125q-0.84375 -0.78125 -1.34375 -1.90625q-0.484375 -1.140625 -0.484375 -2.578125zm9.40625 -0.953125q0 -1.75 -0.921875 -2.6875q-0.90625 -0.9375 -2.53125 -0.9375q-0.71875 0 -1.390625 0.25q-0.65625 0.234375 -1.1875 0.703125q-0.515625 0.46875 -0.875 1.140625q-0.359375 0.671875 -0.484375 1.53125l7.390625 0zm5.5718384 -4.890625l1.625 0l0.171875 1.984375l0.09375 0q0.921875 -0.984375 1.96875 -1.625q1.0625 -0.65625 2.421875 -0.65625q2.09375 0 3.0625 1.1875q0.96875 1.1875 0.96875 3.515625l0 7.25l-1.96875 0l0 -6.984375q0 -1.65625 -0.625 -2.453125q-0.609375 -0.8125 -2.0625 -0.8125q-0.515625 0 -0.96875 0.140625q-0.4375 0.125 -0.875 0.390625q-0.4375 0.265625 -0.890625 0.671875q-0.453125 0.390625 -0.953125 0.90625l0 8.140625l-1.96875 0l0 -11.65625zm13.821838 5.84375q0 -1.4375 0.5 -2.578125q0.5 -1.140625 1.328125 -1.921875q0.828125 -0.796875 1.890625 -1.21875q1.078125 -0.421875 2.203125 -0.421875q1.25 0 2.234375 0.40625q0.984375 0.390625 1.671875 1.109375q0.6875 0.71875 1.046875 1.734375q0.359375 1.0 0.359375 2.21875q0 0.3125 -0.015625 0.625q-0.015625 0.296875 -0.0625 0.5l-9.109375 0q0.015625 0.9375 0.359375 1.6875q0.359375 0.75 0.9375 1.28125q0.59375 0.515625 1.390625 0.8125q0.8125 0.28125 1.765625 0.28125q1.03125 0 1.875 -0.28125q0.859375 -0.296875 1.6875 -0.796875l0.6875 1.296875q-0.859375 0.546875 -1.96875 0.953125q-1.09375 0.40625 -2.515625 0.40625q-1.296875 0 -2.4375 -0.40625q-1.140625 -0.421875 -2.0 -1.203125q-0.84375 -0.78125 -1.34375 -1.90625q-0.484375 -1.140625 -0.484375 -2.578125zm9.40625 -0.953125q0 -1.75 -0.921875 -2.6875q-0.90625 -0.9375 -2.53125 -0.9375q-0.71875 0 -1.390625 0.25q-0.65625 0.234375 -1.1875 0.703125q-0.515625 0.46875 -0.875 1.140625q-0.359375 0.671875 -0.484375 1.53125l7.390625 0zm6.8374634 -4.890625l1.640625 0l0.15625 2.75l0.078125 0q0.90625 -1.40625 2.234375 -2.21875q1.34375 -0.828125 2.96875 -0.828125q0.65625 0 1.203125 0.109375q0.5625 0.109375 1.109375 0.375l-0.453125 1.703125q-0.625 -0.21875 -1.046875 -0.3125q-0.421875 -0.09375 -1.125 -0.09375q-1.3125 0 -2.53125 0.765625q-1.203125 0.75 -2.265625 2.5625l0 6.84375l-1.96875 0l0 -11.65625zm12.837463 8.625q0 -0.984375 0.46875 -1.703125q0.46875 -0.734375 1.484375 -1.265625q1.03125 -0.53125 2.640625 -0.859375q1.609375 -0.34375 3.859375 -0.53125q-0.015625 -0.59375 -0.1875 -1.125q-0.171875 -0.53125 -0.53125 -0.921875q-0.359375 -0.40625 -0.953125 -0.640625q-0.578125 -0.234375 -1.421875 -0.234375q-1.15625 0 -2.21875 0.4375q-1.046875 0.4375 -1.859375 0.953125l-0.765625 -1.34375q0.421875 -0.296875 1.015625 -0.59375q0.59375 -0.296875 1.25 -0.53125q0.65625 -0.25 1.390625 -0.40625q0.75 -0.15625 1.515625 -0.15625q2.40625 0 3.5625 1.3125q1.171875 1.296875 1.171875 3.484375l0 7.15625l-1.609375 0l-0.171875 -1.578125l-0.0625 0q-0.984375 0.765625 -2.171875 1.3125q-1.1875 0.546875 -2.4375 0.546875q-0.8125 0 -1.546875 -0.234375q-0.71875 -0.21875 -1.265625 -0.640625q-0.53125 -0.421875 -0.84375 -1.03125q-0.3125 -0.609375 -0.3125 -1.40625zm1.921875 -0.140625q0 0.515625 0.21875 0.859375q0.21875 0.34375 0.5625 0.578125q0.34375 0.21875 0.8125 0.328125q0.46875 0.109375 0.984375 0.109375q1.0 0 1.96875 -0.4375q0.984375 -0.453125 1.984375 -1.296875l0 -3.0625q-1.875 0.140625 -3.140625 0.40625q-1.25 0.265625 -2.015625 0.640625q-0.75 0.359375 -1.0625 0.828125q-0.3125 0.46875 -0.3125 1.046875zm15.478088 -6.890625l-3.28125 0l0 -1.484375l3.359375 -0.109375l0.265625 -3.265625l1.625 0l0 3.265625l5.734375 0l0 1.59375l-5.734375 0l0 5.546875q0 0.796875 0.140625 1.390625q0.15625 0.578125 0.484375 0.984375q0.34375 0.40625 0.921875 0.625q0.578125 0.203125 1.40625 0.203125q0.84375 0 1.515625 -0.140625q0.671875 -0.15625 1.296875 -0.390625l0.4375 1.4375q-0.796875 0.28125 -1.765625 0.484375q-0.953125 0.203125 -1.90625 0.203125q-1.28125 0 -2.140625 -0.34375q-0.859375 -0.34375 -1.375 -0.984375q-0.515625 -0.640625 -0.75 -1.515625q-0.234375 -0.890625 -0.234375 -1.96875l0 -5.53125zm10.899963 4.25q0 -1.453125 0.46875 -2.59375q0.46875 -1.140625 1.25 -1.9375q0.796875 -0.796875 1.84375 -1.203125q1.046875 -0.40625 2.203125 -0.40625q1.15625 0 2.1875 0.40625q1.046875 0.40625 1.84375 1.203125q0.796875 0.796875 1.25 1.9375q0.46875 1.140625 0.46875 2.59375q0 1.4375 -0.46875 2.578125q-0.453125 1.140625 -1.25 1.921875q-0.796875 0.78125 -1.84375 1.1875q-1.03125 0.40625 -2.1875 0.40625q-1.15625 0 -2.203125 -0.40625q-1.046875 -0.40625 -1.84375 -1.1875q-0.78125 -0.78125 -1.25 -1.921875q-0.46875 -1.140625 -0.46875 -2.578125zm2.046875 0q0 1.015625 0.265625 1.828125q0.265625 0.8125 0.75 1.40625q0.484375 0.59375 1.171875 0.921875q0.6875 0.3125 1.53125 0.3125q0.84375 0 1.515625 -0.3125q0.6875 -0.328125 1.171875 -0.921875q0.5 -0.59375 0.765625 -1.40625q0.265625 -0.8125 0.265625 -1.828125q0 -1.0 -0.265625 -1.828125q-0.265625 -0.828125 -0.765625 -1.421875q-0.484375 -0.609375 -1.171875 -0.921875q-0.671875 -0.328125 -1.515625 -0.328125q-0.84375 0 -1.53125 0.328125q-0.6875 0.3125 -1.171875 0.921875q-0.484375 0.59375 -0.75 1.421875q-0.265625 0.828125 -0.265625 1.828125zm14.415588 -5.84375l1.640625 0l0.15625 2.75l0.078125 0q0.90625 -1.40625 2.234375 -2.21875q1.34375 -0.828125 2.96875 -0.828125q0.65625 0 1.203125 0.109375q0.5625 0.109375 1.109375 0.375l-0.453125 1.703125q-0.625 -0.21875 -1.046875 -0.3125q-0.421875 -0.09375 -1.125 -0.09375q-1.3125 0 -2.53125 0.765625q-1.203125 0.75 -2.265625 2.5625l0 6.84375l-1.96875 0l0 -11.65625z" fill-rule="nonzero"/><path fill="#000000" fill-opacity="0.0" d="m131.86613 238.07874l-115.81102 0" fill-rule="evenodd"/><path stroke="#000000" stroke-width="4.0" stroke-linejoin="round" stroke-linecap="butt" d="m118.1578 238.07874l-88.39433 0" fill-rule="evenodd"/><path fill="#000000" stroke="#000000" stroke-width="4.0" stroke-linecap="butt" d="m118.1578 238.07874l-4.498337 4.498337l12.35907 -4.498337l-12.35907 -4.498337z" fill-rule="evenodd"/><path fill="#000000" stroke="#000000" stroke-width="4.0" stroke-linecap="butt" d="m29.763464 238.07874l4.498335 -4.498337l-12.359072 4.498337l12.359072 4.498337z" fill-rule="evenodd"/><path fill="#000000" fill-opacity="0.0" d="m16.055119 238.07874l115.81102 0l0 39.590546l-115.81102 0z" fill-rule="evenodd"/><path fill="#000000" d="m37.201168 251.93874l2.890625 0q0.796875 0 1.453125 0.15625q0.671875 0.140625 1.140625 0.453125q0.46875 0.296875 0.734375 0.78125q0.265625 0.484375 0.265625 1.171875q0 0.78125 -0.453125 1.421875q-0.453125 0.62501526 -1.390625 0.87501526l0 0.0625q1.15625 0.171875 1.796875 0.796875q0.640625 0.625 0.640625 1.703125q0 0.78125 -0.296875 1.359375q-0.28125 0.5625 -0.796875 0.953125q-0.515625 0.375 -1.25 0.578125q-0.734375 0.1875 -1.609375 0.1875l-3.125 0l0 -10.500015zm2.65625 4.4843903q1.34375 0 1.921875 -0.45314026q0.59375 -0.46875 0.59375 -1.359375q0 -0.859375 -0.625 -1.234375q-0.609375 -0.375 -1.8125 -0.375l-1.390625 0l0 3.4218903l1.3125 0zm0.28125 4.953125q1.359375 0 2.09375 -0.5q0.734375 -0.5 0.734375 -1.578125q0 -0.96875 -0.71875 -1.421875q-0.71875 -0.46875 -2.109375 -0.46875l-1.59375 0l0 3.96875l1.59375 0zm6.2875214 -9.437515l1.34375 0l0 6.5625153q0 0.8125 0.15625 1.390625q0.171875 0.5625 0.46875 0.90625q0.296875 0.34375 0.703125 0.515625q0.40625 0.15625 0.875 0.15625q0.484375 0 0.875 -0.15625q0.40625 -0.171875 0.703125 -0.515625q0.3125 -0.34375 0.484375 -0.90625q0.171875 -0.578125 0.171875 -1.390625l0 -6.5625153l1.296875 0l0 6.5312653q0 1.140625 -0.265625 1.921875q-0.265625 0.78125 -0.734375 1.296875q-0.46875 0.5 -1.125 0.71875q-0.640625 0.21875 -1.40625 0.21875q-0.765625 0 -1.421875 -0.21875q-0.65625 -0.21875 -1.125 -0.71875q-0.46875 -0.515625 -0.734375 -1.296875q-0.265625 -0.78125 -0.265625 -1.921875l0 -6.5312653zm10.209396 8.218765q0.59375 0.578125 1.375 0.953125q0.78125 0.359375 1.640625 0.359375q1.125 0 1.734375 -0.46875q0.609375 -0.484375 0.609375 -1.25q0 -0.40625 -0.15625 -0.671875q-0.140625 -0.28125 -0.390625 -0.484375q-0.25 -0.203125 -0.59375 -0.359375q-0.34375 -0.171875 -0.75 -0.34375l-1.5 -0.65625q-0.40625 -0.15625 -0.8125 -0.375q-0.390625 -0.234375 -0.71875 -0.546875q-0.328125 -0.32814026 -0.546875 -0.76564026q-0.203125 -0.4375 -0.203125 -1.015625q0 -0.59375 0.25 -1.09375q0.265625 -0.515625 0.71875 -0.890625q0.453125 -0.375 1.078125 -0.578125q0.640625 -0.21875 1.40625 -0.21875q0.984375 0 1.8125 0.359375q0.828125 0.359375 1.40625 0.9375l-0.703125 0.859375q-0.5 -0.453125 -1.125 -0.71875q-0.609375 -0.265625 -1.390625 -0.265625q-0.96875 0 -1.53125 0.40625q-0.5625 0.40625 -0.5625 1.125q0 0.390625 0.171875 0.65625q0.171875 0.25 0.4375 0.453125q0.265625 0.203125 0.59375 0.34375q0.34375 0.14064026 0.671875 0.29689026l1.46875 0.640625q0.484375 0.1875 0.90625 0.4375q0.421875 0.25 0.734375 0.578125q0.3125 0.328125 0.5 0.765625q0.1875 0.4375 0.1875 1.015625q0 0.625 -0.265625 1.171875q-0.25 0.53125 -0.734375 0.953125q-0.46875 0.40625 -1.15625 0.640625q-0.6875 0.21875 -1.5625 0.21875q-1.140625 0 -2.109375 -0.40625q-0.96875 -0.421875 -1.6875 -1.140625l0.796875 -0.921875zm18.840664 1.140625l2.609375 0l0 -8.23439l-2.609375 0l0 -1.125l6.5625 0l0 1.125l-2.609375 0l0 8.23439l2.609375 0l0 1.140625l-6.5625 0l0 -1.140625zm9.568771 -6.6406403l1.09375 0l0.109375 1.328125l0.0625 0q0.609375 -0.65625 1.3125 -1.078125q0.703125 -0.4375 1.625 -0.4375q1.390625 0 2.03125 0.796875q0.65625 0.78126526 0.65625 2.3437653l0 4.828125l-1.3125 0l0 -4.65625q0 -1.109375 -0.421875 -1.640625q-0.421875 -0.53126526 -1.375 -0.53126526q-0.359375 0 -0.65625 0.09375q-0.296875 0.078125 -0.578125 0.265625q-0.28125 0.17189026 -0.59375 0.43751526q-0.296875 0.25 -0.640625 0.609375l0 5.421875l-1.3125 0l0 -7.7812653zm11.412521 1.078125l-2.1875 0l0 -1.0l2.234375 -0.078125l0.171875 -2.171875l1.09375 0l0 2.171875l3.828125 0l0 1.078125l-3.828125 0l0 3.6875153q0 0.53125 0.09375 0.921875q0.09375 0.390625 0.3125 0.671875q0.234375 0.265625 0.609375 0.40625q0.390625 0.140625 0.953125 0.140625q0.5625 0 1.0 -0.09375q0.453125 -0.109375 0.875 -0.265625l0.28125 0.96875q-0.53125 0.1875 -1.171875 0.3125q-0.640625 0.140625 -1.28125 0.140625q-0.84375 0 -1.421875 -0.21875q-0.578125 -0.234375 -0.921875 -0.65625q-0.34375 -0.4375 -0.5 -1.015625q-0.140625 -0.59375 -0.140625 -1.328125l0 -3.6718903zm15.240646 -3.4375q-0.46875 -0.234375 -0.890625 -0.296875q-0.40625 -0.078125 -0.90625 -0.078125q-1.0625 0 -1.515625 0.546875q-0.453125 0.53125 -0.453125 1.484375l0 0.703125l3.265625 0l0 1.078125l-3.265625 0l0 6.7031403l-1.296875 0l0 -6.7031403l-2.234375 0l0 -1.0l2.234375 -0.078125l0 -0.65625q0 -1.421875 0.75 -2.28125q0.765625 -0.859375 2.390625 -0.859375q1.140625 0 2.234375 0.4375l-0.3125 1.0z" fill-rule="nonzero"/><path fill="#000000" fill-opacity="0.0" d="m1048.3754 238.07874l-115.811035 0" fill-rule="evenodd"/><path stroke="#000000" stroke-width="4.0" stroke-linejoin="round" stroke-linecap="butt" d="m1034.667 238.07874l-102.10266 0" fill-rule="evenodd"/><path fill="#000000" stroke="#000000" stroke-width="4.0" stroke-linecap="butt" d="m1034.667 238.07874l-4.498291 4.498337l12.359009 -4.498337l-12.359009 -4.498337z" fill-rule="evenodd"/><path fill="#000000" fill-opacity="0.0" d="m932.56433 238.07874l115.811035 0l0 39.590546l-115.811035 0z" fill-rule="evenodd"/><path fill="#000000" d="m963.18536 261.29813l2.609375 0l0 -8.23439l-2.609375 0l0 -1.125l6.5625 0l0 1.125l-2.609375 0l0 8.23439l2.609375 0l0 1.140625l-6.5625 0l0 -1.140625zm11.006287 -4.375l1.75 0q1.234375 0 1.875 -0.5q0.65625 -0.51564026 0.65625 -1.5312653q0 -1.046875 -0.65625 -1.453125q-0.640625 -0.421875 -1.875 -0.421875l-1.75 0l0 3.9062653zm4.40625 5.515625l-2.53125 -4.4375l-1.875 0l0 4.4375l-1.328125 0l0 -10.500015l3.265625 0q0.796875 0 1.46875 0.15625q0.6875 0.15625 1.171875 0.515625q0.484375 0.34375 0.75 0.90625q0.28125 0.546875 0.28125 1.375q0 1.2343903 -0.640625 1.9687653q-0.640625 0.734375 -1.71875 1.0l2.671875 4.578125l-1.515625 0zm4.4125366 -5.296875q0 0.984375 0.1875 1.78125q0.1875 0.796875 0.53125 1.375q0.34375 0.5625 0.828125 0.875q0.484375 0.3125 1.09375 0.3125q0.59375 0 1.078125 -0.3125q0.5 -0.3125 0.84375 -0.875q0.34375 -0.578125 0.515625 -1.375q0.1875 -0.796875 0.1875 -1.78125q0 -0.96875 -0.1875 -1.7656403q-0.171875 -0.796875 -0.515625 -1.34375q-0.34375 -0.546875 -0.84375 -0.84375q-0.484375 -0.296875 -1.078125 -0.296875q-0.609375 0 -1.09375 0.296875q-0.484375 0.296875 -0.828125 0.84375q-0.34375 0.546875 -0.53125 1.34375q-0.1875 0.79689026 -0.1875 1.7656403zm6.703125 7.6875q-0.25 0.09375 -0.546875 0.15625q-0.28125 0.0625 -0.640625 0.0625q-1.390625 0 -2.265625 -0.703125q-0.859375 -0.703125 -1.265625 -1.78125q-0.75 -0.125 -1.375 -0.5625q-0.609375 -0.4375 -1.046875 -1.125q-0.4375 -0.703125 -0.6875 -1.640625q-0.234375 -0.953125 -0.234375 -2.09375q0 -1.2656403 0.28125 -2.2656403q0.296875 -1.0 0.828125 -1.6875q0.53125 -0.703125 1.265625 -1.078125q0.734375 -0.375 1.625 -0.375q0.875 0 1.609375 0.375q0.75 0.375 1.265625 1.078125q0.53125 0.6875 0.8125 1.703125q0.296875 1.0 0.296875 2.2500153q0 1.125 -0.234375 2.0625q-0.234375 0.921875 -0.65625 1.625q-0.40625 0.6875 -1.015625 1.140625q-0.59375 0.4375 -1.3125 0.578125q0.28125 0.671875 0.875 1.015625q0.59375 0.34375 1.40625 0.34375q0.234375 0 0.4375 -0.046875q0.203125 -0.046875 0.34375 -0.109375l0.234375 1.078125zm3.5218506 0.171875l-1.1875 0l5.25 -13.92189l1.1875 0l-5.25 13.92189zm8.350037 -3.703125l2.609375 0l0 -8.23439l-2.609375 0l0 -1.125l6.5625 0l0 1.125l-2.609375 0l0 8.23439l2.609375 0l0 1.140625l-6.5625 0l0 -1.140625zm9.443787 -9.35939l2.5625 0q2.375 0 3.609375 1.34375q1.25 1.34375 1.25 3.8593903q0 1.25 -0.3125 2.234375q-0.3125 0.984375 -0.921875 1.671875q-0.609375 0.671875 -1.5 1.03125q-0.890625 0.359375 -2.0625 0.359375l-2.625 0l0 -10.500015zm2.484375 9.406265q1.78125 0 2.671875 -1.09375q0.890625 -1.109375 0.890625 -3.109375q0 -2.0000153 -0.890625 -3.0468903q-0.890625 -1.0625 -2.671875 -1.0625l-1.15625 0l0 8.312515l1.15625 0z" fill-rule="nonzero"/><path fill="#000000" fill-opacity="0.0" d="m286.27298 84.59843l-52.40947 0" fill-rule="evenodd"/><path stroke="#000000" stroke-width="4.0" stroke-linejoin="round" stroke-linecap="butt" d="m272.5646 84.59843l-38.701096 0" fill-rule="evenodd"/><path fill="#000000" stroke="#000000" stroke-width="4.0" stroke-linecap="butt" d="m272.5646 84.59843l-4.4983215 4.498329l12.35907 -4.498329l-12.35907 -4.498337z" fill-rule="evenodd"/><path fill="#000000" fill-opacity="0.0" d="m286.27298 297.53806l-52.40947 0" fill-rule="evenodd"/><path stroke="#000000" stroke-width="4.0" stroke-linejoin="round" stroke-linecap="butt" d="m272.5646 297.53806l-38.701096 0" fill-rule="evenodd"/><path fill="#000000" stroke="#000000" stroke-width="4.0" stroke-linecap="butt" d="m272.5646 297.53806l-4.4983215 4.4983215l12.35907 -4.4983215l-12.35907 -4.4983215z" fill-rule="evenodd"/><path fill="#000000" fill-opacity="0.0" d="m372.09448 164.27821l0 -40.188972" fill-rule="evenodd"/><path stroke="#000000" stroke-width="4.0" stroke-linejoin="round" stroke-linecap="butt" d="m372.09448 150.56987l0 -26.480629" fill-rule="evenodd"/><path fill="#000000" stroke="#000000" stroke-width="4.0" stroke-linecap="butt" d="m372.09448 150.56987l-4.4983215 -4.498337l4.4983215 12.35907l4.498352 -12.35907z" fill-rule="evenodd"/><path fill="#000000" fill-opacity="0.0" d="m593.46454 164.27821l0 -40.188972" fill-rule="evenodd"/><path stroke="#000000" stroke-width="4.0" stroke-linejoin="round" stroke-linecap="butt" d="m593.46454 150.56987l0 -26.480629" fill-rule="evenodd"/><path fill="#000000" stroke="#000000" stroke-width="4.0" stroke-linecap="butt" d="m593.46454 150.56987l-4.498291 -4.498337l4.498291 12.35907l4.498352 -12.35907z" fill-rule="evenodd"/><path fill="#000000" fill-opacity="0.0" d="m851.20734 164.27821l0 -40.188972" fill-rule="evenodd"/><path stroke="#000000" stroke-width="4.0" stroke-linejoin="round" stroke-linecap="butt" d="m851.20734 164.27821l0 -26.480637" fill-rule="evenodd"/><path fill="#000000" stroke="#000000" stroke-width="4.0" stroke-linecap="butt" d="m851.20734 137.79759l4.498352 4.4983215l-4.498352 -12.35907l-4.498352 12.35907z" fill-rule="evenodd"/><path fill="#000000" fill-opacity="0.0" d="m520.62994 297.53806l-52.409485 0" fill-rule="evenodd"/><path stroke="#000000" stroke-width="4.0" stroke-linejoin="round" stroke-linecap="butt" d="m506.9216 297.53806l-38.70114 0" fill-rule="evenodd"/><path fill="#000000" stroke="#000000" stroke-width="4.0" stroke-linecap="butt" d="m506.92157 297.53806l-4.4983215 4.4983215l12.359039 -4.4983215l-12.359039 -4.4983215z" fill-rule="evenodd"/></g></svg>