<svg version="1.1" viewBox="0.0 0.0 906.4146981627297 652.1049868766404" fill="none" stroke="none" stroke-linecap="square" stroke-miterlimit="10" xmlns:xlink="http://www.w3.org/1999/xlink" xmlns="http://www.w3.org/2000/svg"><clipPath id="p.0"><path d="m0 0l906.4147 0l0 652.105l-906.4147 0l0 -652.105z" clip-rule="nonzero"/></clipPath><g clip-path="url(#p.0)"><path fill="#000000" fill-opacity="0.0" d="m0 0l906.4147 0l0 652.105l-906.4147 0z" fill-rule="evenodd"/><path fill="#000000" fill-opacity="0.0" d="m6.6692915 5.937008l892.8819 0l0 641.5748l-892.8819 0z" fill-rule="evenodd"/><path stroke="#000000" stroke-width="1.0" stroke-linejoin="round" stroke-linecap="butt" d="m6.6692915 5.937008l892.8819 0l0 641.5748l-892.8819 0z" fill-rule="evenodd"/><path fill="#000000" d="m19.51304 25.044506l-2.5625 0l0 -1.15625l2.625 -0.09375l0.203125 -2.546875l1.265625 0l0 2.546875l4.453125 0l0 1.25l-4.453125 0l0 4.3125q0 0.609375 0.109375 1.0625q0.109375 0.453125 0.375 0.78125q0.265625 0.3125 0.703125 0.46875q0.453125 0.15625 1.109375 0.15625q0.65625 0 1.171875 -0.109375q0.515625 -0.109375 1.0 -0.296875l0.34375 1.125q-0.609375 0.21875 -1.359375 0.375q-0.75 0.15625 -1.5 0.15625q-0.984375 0 -1.65625 -0.265625q-0.671875 -0.265625 -1.078125 -0.765625q-0.390625 -0.5 -0.578125 -1.1875q-0.171875 -0.6875 -0.171875 -1.53125l0 -4.28125zm9.084381 -5.46875l1.53125 0l0 3.625l-0.03125 1.75q0.640625 -0.640625 1.453125 -1.015625q0.8125019 -0.375 1.6250019 -0.375q0.90625 0 1.609375 0.328125q0.71875 0.328125 1.1875 0.9375q0.484375 0.609375 0.71875 1.453125q0.25 0.84375 0.25 1.890625q0 1.15625 -0.34375 2.078125q-0.328125 0.90625 -0.90625 1.546875q-0.5625 0.640625 -1.3125 0.96875q-0.75 0.3125 -1.546875 0.3125q-0.65625 0 -1.4062519 -0.3125q-0.75 -0.328125 -1.40625 -0.90625l-0.0625 0l-0.125 1.0l-1.234375 0l0 -13.28125zm1.53125 11.15625q0.65625 0.578125 1.3125 0.828125q0.6718769 0.234375 1.1562519 0.234375q0.59375 0 1.09375 -0.25q0.5 -0.25 0.875 -0.703125q0.375 -0.46875 0.578125 -1.140625q0.203125 -0.671875 0.203125 -1.515625q0 -0.734375 -0.15625 -1.34375q-0.140625 -0.625 -0.453125 -1.0625q-0.296875 -0.4375 -0.78125 -0.671875q-0.484375 -0.25 -1.15625 -0.25q-0.609375 0 -1.2968769 0.328125q-0.671875 0.328125 -1.375 1.03125l0 4.515625z" fill-rule="nonzero"/><path fill="#f3f3f3" d="m51.866142 509.00787l799.559 0l0 95.27557l-799.559 0z" fill-rule="evenodd"/><path stroke="#000000" stroke-width="1.0" stroke-linejoin="round" stroke-linecap="butt" d="m51.866142 509.00787l799.559 0l0 95.27557l-799.559 0z" fill-rule="evenodd"/><path fill="#000000" d="m436.43317 551.3313l3.0 0q2.765625 0 4.21875 1.5625q1.453125 1.5625 1.453125 4.5q0 1.453125 -0.375 2.609375q-0.359375 1.140625 -1.078125 1.9375q-0.703125 0.78125 -1.75 1.203125q-1.046875 0.421875 -2.40625 0.421875l-3.0625 0l0 -12.234375zm2.90625 10.96875q2.078125 0 3.109375 -1.28125q1.046875 -1.296875 1.046875 -3.625q0 -2.328125 -1.046875 -3.5625q-1.03125 -1.234375 -3.109375 -1.234375l-1.34375 0l0 9.703125l1.34375 0zm8.178131 -10.96875l1.578125 0l0 7.640625q0 0.953125 0.1875 1.625q0.203125 0.65625 0.546875 1.0625q0.34375 0.390625 0.8125 0.578125q0.46875 0.1875 1.015625 0.1875q0.5625 0 1.03125 -0.1875q0.46875 -0.1875 0.8125 -0.578125q0.359375 -0.40625 0.546875 -1.0625q0.203125 -0.671875 0.203125 -1.625l0 -7.640625l1.515625 0l0 7.609375q0 1.328125 -0.3125 2.25q-0.296875 0.90625 -0.84375 1.5q-0.546875 0.578125 -1.296875 0.84375q-0.75 0.25 -1.65625 0.25q-0.890625 0 -1.65625 -0.25q-0.765625 -0.265625 -1.3125 -0.84375q-0.546875 -0.59375 -0.859375 -1.5q-0.3125 -0.921875 -0.3125 -2.25l0 -7.609375zm14.537506 1.296875l-4.03125 0l0 -1.296875l9.625 0l0 1.296875l-4.03125 0l0 10.9375l-1.5625 0l0 -10.9375z" fill-rule="nonzero"/><path fill="#000000" fill-opacity="0.0" d="m-148.52756 404.88977l5.8897552 0l0 11.7795105l-5.8897552 0z" fill-rule="evenodd"/><path stroke="#000000" stroke-width="1.0" stroke-linejoin="round" stroke-linecap="butt" d="m-148.52756 404.88977l5.8897552 0l0 11.7795105l-5.8897552 0z" fill-rule="evenodd"/><path fill="#d0e0e3" d="m51.866142 37.37008l799.559 0l0 421.13385l-799.559 0z" fill-rule="evenodd"/><path stroke="#000000" stroke-width="1.0" stroke-linejoin="round" stroke-linecap="butt" d="m51.866142 37.37008l799.559 0l0 421.13385l-799.559 0z" fill-rule="evenodd"/><path fill="#000000" d="m70.28802 64.29008l-1.25 0l-0.125 -1.578125l-0.078125 0q-0.6875 0.796875 -1.5 1.296875q-0.8125 0.5 -1.875 0.5q-1.640625 0 -2.40625 -0.921875q-0.75 -0.921875 -0.75 -2.734375l0 -5.625l1.546875 0l0 5.421875q0 1.296875 0.46875 1.921875q0.484375 0.625 1.625 0.625q0.78125 0 1.40625 -0.40625q0.640625 -0.40625 1.40625 -1.28125l0 -6.28125l1.53125 0l0 9.0625zm2.725006 -9.0625l1.546875 0l2.09375 5.140625q0.28125 0.6875 0.53125 1.359375q0.25 0.65625 0.484375 1.3125l0.078125 0q0.25 -0.65625 0.484375 -1.3125q0.234375 -0.671875 0.5 -1.359375l2.09375 -5.140625l1.484375 0l-3.75 9.0625l-1.71875 0l-3.828125 -9.0625zm11.365631 0l1.1875 0l0.125 1.1875l0.0625 0q0.328125 -0.625 0.78125 -1.015625q0.46875 -0.40625 1.25 -0.40625q1.375 0 1.71875 1.578125q0.40625 -0.71875 0.890625 -1.140625q0.484375 -0.4375 1.25 -0.4375q0.953125 0 1.46875 0.71875q0.515625 0.71875 0.515625 2.078125l0 6.5l-1.46875 0l0 -6.359375q0 -1.609375 -1.0 -1.609375q-0.484375 0 -0.84375 0.34375q-0.34375 0.34375 -0.703125 1.0625l0 6.5625l-1.234375 0l0 -6.359375q0 -1.609375 -1.015625 -1.609375q-0.484375 0 -0.828125 0.34375q-0.328125 0.34375 -0.6875 1.0625l0 6.5625l-1.46875 0l0 -9.0625zm20.146881 10.34375l0 1.328125l-8.953125 0l0 -1.328125l8.953125 0zm4.959381 -9.09375l-2.5625 0l0 -1.15625l2.625 -0.09375l0.203125 -2.546875l1.265625 0l0 2.546875l4.453125 0l0 1.25l-4.453125 0l0 4.3125q0 0.609375 0.109375 1.0625q0.109375 0.453125 0.375 0.78125q0.265625 0.3125 0.703125 0.46875q0.453125 0.15625 1.109375 0.15625q0.65625 0 1.171875 -0.109375q0.515625 -0.109375 1.0 -0.296875l0.34375 1.125q-0.609375 0.21875 -1.359375 0.375q-0.75 0.15625 -1.5 0.15625q-0.984375 0 -1.65625 -0.265625q-0.671875 -0.265625 -1.078125 -0.765625q-0.390625 -0.5 -0.578125 -1.1875q-0.171875 -0.6875 -0.171875 -1.53125l0 -4.28125zm8.631256 3.296875q0 -1.125 0.390625 -2.0q0.40625 -0.890625 1.046875 -1.5q0.640625 -0.625 1.46875 -0.953125q0.828125 -0.328125 1.703125 -0.328125q0.96875 0 1.734375 0.3125q0.765625 0.3125 1.296875 0.875q0.53125 0.546875 0.8125 1.34375q0.28125 0.78125 0.28125 1.734375q0 0.234375 -0.015625 0.46875q0 0.234375 -0.03125 0.40625l-7.09375 0q0.015625 0.71875 0.28125 1.296875q0.28125 0.578125 0.734375 1.0q0.453125 0.40625 1.078125 0.640625q0.625 0.21875 1.375 0.21875q0.796875 0 1.453125 -0.21875q0.671875 -0.234375 1.3125 -0.625l0.53125 1.0q-0.671875 0.4375 -1.53125 0.75q-0.859375 0.3125 -1.953125 0.3125q-1.0 0 -1.890625 -0.3125q-0.890625 -0.328125 -1.5625 -0.9375q-0.65625 -0.609375 -1.046875 -1.484375q-0.375 -0.875 -0.375 -2.0zm7.3125 -0.75q0 -1.359375 -0.703125 -2.078125q-0.703125 -0.734375 -1.984375 -0.734375q-0.546875 0 -1.0625 0.1875q-0.515625 0.1875 -0.9375 0.546875q-0.40625 0.359375 -0.6875 0.890625q-0.265625 0.515625 -0.359375 1.1875l5.734375 0zm4.6937485 3.0625q0.765625 0.5625 1.640625 0.90625q0.875 0.328125 2.109375 0.328125q1.234375 0 1.828125 -0.40625q0.59375 -0.421875 0.59375 -1.015625q0 -0.515625 -0.640625 -0.921875q-0.640625 -0.421875 -2.3125 -0.828125q-0.703125 -0.171875 -1.328125 -0.40625q-0.625 -0.25 -1.09375 -0.578125q-0.46875 -0.328125 -0.75 -0.71875q-0.28125 -0.390625 -0.28125 -0.875q0 -0.53125 0.234375 -1.0q0.25 -0.484375 0.71875 -0.828125q0.484375 -0.359375 1.203125 -0.546875q0.71875 -0.203125 1.65625 -0.203125q1.03125 0 2.0 0.359375q0.96875 0.34375 1.640625 0.796875l-0.75 1.0q-0.59375 -0.4375 -1.328125 -0.6875q-0.71875 -0.265625 -1.5625 -0.265625q-0.640625 0 -1.078125 0.109375q-0.421875 0.09375 -0.6875 0.28125q-0.25 0.171875 -0.359375 0.421875q-0.109375 0.234375 -0.109375 0.484375q0 0.5625 0.765625 0.9375q0.765625 0.359375 1.984375 0.671875q1.859375 0.46875 2.734375 1.0625q0.890625 0.59375 0.890625 1.640625q0 0.5625 -0.265625 1.046875q-0.25 0.484375 -0.765625 0.859375q-0.515625 0.375 -1.28125 0.578125q-0.75 0.21875 -1.71875 0.21875q-1.34375 0 -2.46875 -0.40625q-1.125 -0.421875 -1.96875 -1.0l0.75 -1.015625zm12.943756 -5.609375l-2.5625 0l0 -1.15625l2.625 -0.09375l0.203125 -2.546875l1.265625 0l0 2.546875l4.453125 0l0 1.25l-4.453125 0l0 4.3125q0 0.609375 0.109375 1.0625q0.109375 0.453125 0.375 0.78125q0.265625 0.3125 0.703125 0.46875q0.453125 0.15625 1.109375 0.15625q0.65625 0 1.171875 -0.109375q0.515625 -0.109375 1.0 -0.296875l0.34375 1.125q-0.609375 0.21875 -1.359375 0.375q-0.75 0.15625 -1.5 0.15625q-0.984375 0 -1.65625 -0.265625q-0.671875 -0.265625 -1.078125 -0.765625q-0.390625 -0.5 -0.578125 -1.1875q-0.171875 -0.6875 -0.171875 -1.53125l0 -4.28125z" fill-rule="nonzero"/><path fill="#d9ead3" d="m92.12861 233.97375l720.9764 0l0 182.70865l-720.9764 0z" fill-rule="evenodd"/><path stroke="#000000" stroke-width="1.0" stroke-linejoin="round" stroke-linecap="butt" d="m92.12861 233.97375l720.9764 0l0 182.70865l-720.9764 0z" fill-rule="evenodd"/><path fill="#000000" d="m110.55048 260.89374l-1.25 0l-0.125 -1.578125l-0.078125 0q-0.6875 0.796875 -1.5 1.296875q-0.8125 0.5 -1.875 0.5q-1.640625 0 -2.40625 -0.921875q-0.75 -0.921875 -0.75 -2.734375l0 -5.6249847l1.546875 0l0 5.4218597q0 1.296875 0.46875 1.921875q0.484375 0.625 1.625 0.625q0.78125 0 1.40625 -0.40625q0.640625 -0.40625 1.40625 -1.28125l0 -6.2812347l1.53125 0l0 9.062485zm2.725006 -9.062485l1.546875 0l2.09375 5.1406097q0.28125 0.6875 0.53125 1.359375q0.25 0.65625 0.484375 1.3125l0.078125 0q0.25 -0.65625 0.484375 -1.3125q0.234375 -0.671875 0.5 -1.359375l2.09375 -5.1406097l1.484375 0l-3.75 9.062485l-1.71875 0l-3.828125 -9.062485zm11.365631 0l1.1875 0l0.125 1.1875l0.0625 0q0.328125 -0.625 0.78125 -1.015625q0.46875 -0.40625 1.2500076 -0.40625q1.375 0 1.71875 1.578125q0.40625 -0.71875 0.890625 -1.140625q0.484375 -0.4375 1.25 -0.4375q0.953125 0 1.46875 0.71875q0.515625 0.71875 0.515625 2.078125l0 6.4999847l-1.46875 0l0 -6.3593597q0 -1.609375 -1.0 -1.609375q-0.484375 0 -0.84375 0.34375q-0.34375 0.34375 -0.703125 1.0625l0 6.5624847l-1.234375 0l0 -6.3593597q0 -1.609375 -1.0156326 -1.609375q-0.484375 0 -0.828125 0.34375q-0.328125 0.34375 -0.6875 1.0625l0 6.5624847l-1.46875 0l0 -9.062485zm20.146889 10.343735l0 1.328125l-8.953125 0l0 -1.328125l8.953125 0zm2.396881 -5.796875q0 -1.1249847 0.390625 -1.9999847q0.40625 -0.890625 1.046875 -1.5q0.640625 -0.625 1.46875 -0.953125q0.828125 -0.328125 1.703125 -0.328125q0.96875 0 1.734375 0.3125q0.765625 0.3125 1.296875 0.875q0.53125 0.546875 0.8125 1.34375q0.28125 0.78125 0.28125 1.734375q0 0.23435974 -0.015625 0.46873474q0 0.234375 -0.03125 0.40625l-7.09375 0q0.015625 0.71875 0.28125 1.296875q0.28125 0.578125 0.734375 1.0q0.453125 0.40625 1.078125 0.640625q0.625 0.21875 1.375 0.21875q0.796875 0 1.453125 -0.21875q0.671875 -0.234375 1.3125 -0.625l0.53125 1.0q-0.671875 0.4375 -1.53125 0.75q-0.859375 0.3125 -1.953125 0.3125q-1.0 0 -1.890625 -0.3125q-0.890625 -0.328125 -1.5625 -0.9375q-0.65625 -0.609375 -1.046875 -1.484375q-0.375 -0.875 -0.375 -2.0zm7.3125 -0.74998474q0 -1.359375 -0.703125 -2.078125q-0.703125 -0.734375 -1.984375 -0.734375q-0.546875 0 -1.0625 0.1875q-0.515625 0.1875 -0.9375 0.546875q-0.40625 0.359375 -0.6875 0.890625q-0.265625 0.515625 -0.359375 1.1875l5.734375 0zm4.334381 -3.796875l1.265625 0l0.140625 1.546875l0.0625 0q0.71875 -0.765625 1.53125 -1.265625q0.828125 -0.515625 1.890625 -0.515625q1.625 0 2.375 0.9375q0.75 0.921875 0.75 2.71875l0 5.6406097l-1.515625 0l0 -5.4218597q0 -1.296875 -0.5 -1.921875q-0.484375 -0.625 -1.59375 -0.625q-0.40625 0 -0.765625 0.109375q-0.34375 0.09375 -0.6875 0.3125q-0.328125 0.203125 -0.6875 0.515625q-0.34375 0.296875 -0.734375 0.703125l0 6.3281097l-1.53125 0l0 -9.062485zm10.412506 0l1.546875 0l2.09375 5.1406097q0.28125 0.6875 0.53125 1.359375q0.25 0.65625 0.484375 1.3125l0.078125 0q0.25 -0.65625 0.484375 -1.3125q0.234375 -0.671875 0.5 -1.359375l2.09375 -5.1406097l1.484375 0l-3.75 9.062485l-1.71875 0l-3.828125 -9.062485z" fill-rule="nonzero"/><path fill="#d9d2e9" d="m186.4252 63.034122l626.6771 0l0 54.015743l-626.6771 0z" fill-rule="evenodd"/><path stroke="#000000" stroke-width="1.0" stroke-linejoin="round" stroke-linecap="butt" d="m186.4252 63.034122l626.6771 0l0 54.015743l-626.6771 0z" fill-rule="evenodd"/><path fill="#000000" d="m204.84708 89.95412l-1.25 0l-0.125 -1.578125l-0.078125 0q-0.6875 0.796875 -1.5 1.296875q-0.8125 0.5 -1.875 0.5q-1.640625 0 -2.40625 -0.921875q-0.75 -0.921875 -0.75 -2.734375l0 -5.625l1.546875 0l0 5.421875q0 1.296875 0.46875 1.921875q0.484375 0.625 1.625 0.625q0.78125 0 1.40625 -0.40625q0.640625 -0.40625 1.40625 -1.28125l0 -6.28125l1.53125 0l0 9.0625zm2.725006 -9.0625l1.546875 0l2.09375 5.140625q0.28125 0.6875 0.53125 1.359375q0.25 0.65625 0.484375 1.3125l0.078125 0q0.25 -0.65625 0.484375 -1.3125q0.234375 -0.671875 0.5 -1.359375l2.09375 -5.140625l1.484375 0l-3.75 9.0625l-1.71875 0l-3.828125 -9.0625zm11.365631 0l1.1875 0l0.125 1.1875l0.0625 0q0.328125 -0.625 0.78125 -1.015625q0.46875 -0.40625 1.25 -0.40625q1.375 0 1.71875 1.578125q0.40625 -0.71875 0.890625 -1.140625q0.484375 -0.4375 1.25 -0.4375q0.953125 0 1.46875 0.71875q0.515625 0.71875 0.515625 2.078125l0 6.5l-1.46875 0l0 -6.359375q0 -1.609375 -1.0 -1.609375q-0.484375 0 -0.84375 0.34375q-0.34375 0.34375 -0.703125 1.0625l0 6.5625l-1.234375 0l0 -6.359375q0 -1.609375 -1.015625 -1.609375q-0.484375 0 -0.828125 0.34375q-0.328125 0.34375 -0.6875 1.0625l0 6.5625l-1.46875 0l0 -9.0625zm20.146881 10.34375l0 1.328125l-8.953125 0l0 -1.328125l8.953125 0zm3.209381 -3.484375q0.765625 0.5625 1.640625 0.90625q0.875 0.328125 2.109375 0.328125q1.234375 0 1.828125 -0.40625q0.59375 -0.421875 0.59375 -1.015625q0 -0.515625 -0.640625 -0.921875q-0.640625 -0.421875 -2.3125 -0.828125q-0.703125 -0.171875 -1.328125 -0.40625q-0.625 -0.25 -1.09375 -0.578125q-0.46875 -0.328125 -0.75 -0.71875q-0.28125 -0.390625 -0.28125 -0.875q0 -0.53125 0.234375 -1.0q0.25 -0.484375 0.71875 -0.828125q0.484375 -0.359375 1.203125 -0.546875q0.71875 -0.203125 1.65625 -0.203125q1.03125 0 2.0 0.359375q0.96875 0.34375 1.640625 0.796875l-0.75 1.0q-0.59375 -0.4375 -1.328125 -0.6875q-0.71875 -0.265625 -1.5625 -0.265625q-0.640625 0 -1.078125 0.109375q-0.421875 0.09375 -0.6875 0.28125q-0.25 0.171875 -0.359375 0.421875q-0.109375 0.234375 -0.109375 0.484375q0 0.5625 0.765625 0.9375q0.765625 0.359375 1.984375 0.671875q1.859375 0.46875 2.734375 1.0625q0.890625 0.59375 0.890625 1.640625q0 0.5625 -0.265625 1.046875q-0.25 0.484375 -0.765625 0.859375q-0.515625 0.375 -1.28125 0.578125q-0.75 0.21875 -1.71875 0.21875q-1.34375 0 -2.46875 -0.40625q-1.125 -0.421875 -1.96875 -1.0l0.75 -1.015625zm10.381256 -2.3125q0 -1.125 0.390625 -2.0q0.40625 -0.890625 1.046875 -1.5q0.640625 -0.625 1.46875 -0.953125q0.828125 -0.328125 1.703125 -0.328125q0.96875 0 1.734375 0.3125q0.765625 0.3125 1.296875 0.875q0.53125 0.546875 0.8125 1.34375q0.28125 0.78125 0.28125 1.734375q0 0.234375 -0.015625 0.46875q0 0.234375 -0.03125 0.40625l-7.09375 0q0.015625 0.71875 0.28125 1.296875q0.28125 0.578125 0.734375 1.0q0.453125 0.40625 1.078125 0.640625q0.625 0.21875 1.375 0.21875q0.796875 0 1.453125 -0.21875q0.671875 -0.234375 1.3125 -0.625l0.53125 1.0q-0.671875 0.4375 -1.53125 0.75q-0.859375 0.3125 -1.953125 0.3125q-1.0 0 -1.890625 -0.3125q-0.890625 -0.328125 -1.5625 -0.9375q-0.65625 -0.609375 -1.046875 -1.484375q-0.375 -0.875 -0.375 -2.0zm7.3125 -0.75q0 -1.359375 -0.703125 -2.078125q-0.703125 -0.734375 -1.984375 -0.734375q-0.546875 0 -1.0625 0.1875q-0.515625 0.1875 -0.9375 0.546875q-0.40625 0.359375 -0.6875 0.890625q-0.265625 0.515625 -0.359375 1.1875l5.734375 0zm3.725006 0.75q0 -1.09375 0.34375 -1.984375q0.34375 -0.890625 0.90625 -1.5q0.578125 -0.625 1.3125 -0.953125q0.75 -0.34375 1.5625 -0.34375q0.828125 0 1.484375 0.328125q0.65625 0.3125 1.3125 0.90625l0.046875 0l0.140625 -1.0l1.21875 0l0 12.890625l-1.53125 0l0 -3.34375l0.078125 -1.640625q-0.59375 0.578125 -1.359375 0.984375q-0.75 0.390625 -1.578125 0.390625q-0.90625 0 -1.625 -0.3125q-0.71875 -0.3125 -1.25 -0.921875q-0.515625 -0.609375 -0.796875 -1.484375q-0.265625 -0.875 -0.265625 -2.015625zm1.578125 -0.015625q0 1.640625 0.703125 2.5625q0.703125 0.90625 1.96875 0.90625q1.34375 0 2.546875 -1.359375l0 -4.515625q-0.609375 -0.578125 -1.203125 -0.8125q-0.578125 -0.25 -1.171875 -0.25q-0.609375 0 -1.125 0.25q-0.5 0.25 -0.890625 0.71875q-0.375 0.453125 -0.609375 1.09375q-0.21875 0.625 -0.21875 1.40625zm17.912506 4.53125l-1.25 0l-0.125 -1.578125l-0.078125 0q-0.6875 0.796875 -1.5 1.296875q-0.8125 0.5 -1.875 0.5q-1.640625 0 -2.40625 -0.921875q-0.75 -0.921875 -0.75 -2.734375l0 -5.625l1.546875 0l0 5.421875q0 1.296875 0.46875 1.921875q0.484375 0.625 1.625 0.625q0.78125 0 1.40625 -0.40625q0.640625 -0.40625 1.40625 -1.28125l0 -6.28125l1.53125 0l0 9.0625zm3.053131 -4.515625q0 -1.125 0.390625 -2.0q0.40625 -0.890625 1.046875 -1.5q0.640625 -0.625 1.46875 -0.953125q0.828125 -0.328125 1.703125 -0.328125q0.96875 0 1.734375 0.3125q0.765625 0.3125 1.296875 0.875q0.53125 0.546875 0.8125 1.34375q0.28125 0.78125 0.28125 1.734375q0 0.234375 -0.015625 0.46875q0 0.234375 -0.03125 0.40625l-7.09375 0q0.015625 0.71875 0.28125 1.296875q0.28125 0.578125 0.734375 1.0q0.453125 0.40625 1.078125 0.640625q0.625 0.21875 1.375 0.21875q0.796875 0 1.453125 -0.21875q0.671875 -0.234375 1.3125 -0.625l0.53125 1.0q-0.671875 0.4375 -1.53125 0.75q-0.859375 0.3125 -1.953125 0.3125q-1.0 0 -1.890625 -0.3125q-0.890625 -0.328125 -1.5625 -0.9375q-0.65625 -0.609375 -1.046875 -1.484375q-0.375 -0.875 -0.375 -2.0zm7.3125 -0.75q0 -1.359375 -0.703125 -2.078125q-0.703125 -0.734375 -1.984375 -0.734375q-0.546875 0 -1.0625 0.1875q-0.515625 0.1875 -0.9375 0.546875q-0.40625 0.359375 -0.6875 0.890625q-0.265625 0.515625 -0.359375 1.1875l5.734375 0zm4.334381 -3.796875l1.265625 0l0.140625 1.546875l0.0625 0q0.71875 -0.765625 1.53125 -1.265625q0.828125 -0.515625 1.890625 -0.515625q1.625 0 2.375 0.9375q0.75 0.921875 0.75 2.71875l0 5.640625l-1.515625 0l0 -5.421875q0 -1.296875 -0.5 -1.921875q-0.484375 -0.625 -1.59375 -0.625q-0.40625 0 -0.765625 0.109375q-0.34375 0.09375 -0.6875 0.3125q-0.328125 0.203125 -0.6875 0.515625q-0.34375 0.296875 -0.734375 0.703125l0 6.328125l-1.53125 0l0 -9.0625zm10.959381 4.546875q0 -1.140625 0.390625 -2.015625q0.40625 -0.890625 1.09375 -1.5q0.6875 -0.625 1.609375 -0.9375q0.921875 -0.328125 1.953125 -0.328125q1.125 0 1.9375 0.40625q0.8125 0.390625 1.359375 0.921875l-0.765625 0.984375q-0.546875 -0.484375 -1.15625 -0.75q-0.609375 -0.28125 -1.3125 -0.28125q-0.78125 0 -1.4375 0.25q-0.65625 0.25 -1.125 0.71875q-0.453125 0.46875 -0.71875 1.109375q-0.25 0.640625 -0.25 1.421875q0 0.78125 0.25 1.421875q0.25 0.625 0.703125 1.09375q0.46875 0.453125 1.109375 0.703125q0.640625 0.25 1.421875 0.25q0.84375 0 1.546875 -0.328125q0.703125 -0.328125 1.28125 -0.8125l0.671875 1.0q-0.75 0.671875 -1.671875 1.046875q-0.921875 0.359375 -1.9375 0.359375q-1.0625 0 -1.96875 -0.3125q-0.90625 -0.3125 -1.578125 -0.921875q-0.671875 -0.609375 -1.046875 -1.484375q-0.359375 -0.890625 -0.359375 -2.015625zm10.975006 0q0 -1.125 0.390625 -2.0q0.40625 -0.890625 1.046875 -1.5q0.640625 -0.625 1.46875 -0.953125q0.828125 -0.328125 1.703125 -0.328125q0.96875 0 1.734375 0.3125q0.765625 0.3125 1.296875 0.875q0.53125 0.546875 0.8125 1.34375q0.28125 0.78125 0.28125 1.734375q0 0.234375 -0.015625 0.46875q0 0.234375 -0.03125 0.40625l-7.09375 0q0.015625 0.71875 0.28125 1.296875q0.28125 0.578125 0.734375 1.0q0.453125 0.40625 1.078125 0.640625q0.625 0.21875 1.375 0.21875q0.796875 0 1.453125 -0.21875q0.671875 -0.234375 1.3125 -0.625l0.53125 1.0q-0.671875 0.4375 -1.53125 0.75q-0.859375 0.3125 -1.953125 0.3125q-1.0 0 -1.890625 -0.3125q-0.890625 -0.328125 -1.5625 -0.9375q-0.65625 -0.609375 -1.046875 -1.484375q-0.375 -0.875 -0.375 -2.0zm7.3125 -0.75q0 -1.359375 -0.703125 -2.078125q-0.703125 -0.734375 -1.984375 -0.734375q-0.546875 0 -1.0625 0.1875q-0.515625 0.1875 -0.9375 0.546875q-0.40625 0.359375 -0.6875 0.890625q-0.265625 0.515625 -0.359375 1.1875l5.734375 0z" fill-rule="nonzero"/><path fill="#fff2cc" d="m131.41733 286.03412l277.00787 0l0 95.275604l-277.00787 0z" fill-rule="evenodd"/><path stroke="#000000" stroke-width="1.0" stroke-linejoin="round" stroke-linecap="butt" d="m131.41733 286.03412l277.00787 0l0 95.275604l-277.00787 0z" fill-rule="evenodd"/><path fill="#000000" d="m148.49545 310.39413l-1.0625 0l-0.125 -1.359375l-0.0625 0q-0.59375 0.6875 -1.296875 1.125q-0.6875 0.421875 -1.59375 0.421875q-1.40625 0 -2.0625 -0.78125q-0.640625 -0.796875 -0.640625 -2.34375l0 -4.84375l1.328125 0l0 4.65625q0 1.109375 0.40625 1.65625q0.40625 0.53125 1.390625 0.53125q0.671875 0 1.203125 -0.34375q0.546875 -0.34375 1.203125 -1.109375l0 -5.390625l1.3125 0l0 7.78125zm2.3343964 -7.78125l1.328125 0l1.796875 4.421875q0.234375 0.59375 0.453125 1.171875q0.21875 0.5625 0.421875 1.109375l0.0625 0q0.21875 -0.546875 0.40625 -1.109375q0.203125 -0.578125 0.453125 -1.171875l1.78125 -4.421875l1.265625 0l-3.21875 7.78125l-1.46875 0l-3.28125 -7.78125zm9.740646 0l1.03125 0l0.109375 1.03125l0.046875 0q0.296875 -0.546875 0.6875 -0.875q0.390625 -0.34375 1.0625 -0.34375q1.1875 0 1.46875 1.34375q0.359375 -0.609375 0.765625 -0.96875q0.421875 -0.375 1.078125 -0.375q0.8125 0 1.25 0.625q0.4375 0.609375 0.4375 1.78125l0 5.5625l-1.265625 0l0 -5.453125q0 -1.375 -0.84375 -1.375q-0.40625 0 -0.71875 0.296875q-0.296875 0.296875 -0.609375 0.90625l0 5.625l-1.046875 0l0 -5.453125q0 -1.375 -0.890625 -1.375q-0.40625 0 -0.703125 0.296875q-0.28125 0.296875 -0.59375 0.90625l0 5.625l-1.265625 0l0 -7.78125zm17.287521 8.890625l0 1.125l-7.6875 0l0 -1.125l7.6875 0zm2.2562714 -3.125q0 -0.65625 0.3125 -1.140625q0.3125 -0.484375 0.984375 -0.84375q0.6875 -0.359375 1.75 -0.578125q1.078125 -0.21875 2.578125 -0.34375q-0.015625 -0.40625 -0.125 -0.75q-0.109375 -0.359375 -0.359375 -0.625q-0.234375 -0.265625 -0.625 -0.421875q-0.390625 -0.15625 -0.953125 -0.15625q-0.765625 0 -1.46875 0.296875q-0.703125 0.296875 -1.25 0.625l-0.515625 -0.890625q0.296875 -0.203125 0.6875 -0.390625q0.390625 -0.203125 0.828125 -0.359375q0.4375 -0.171875 0.9375 -0.265625q0.5 -0.109375 1.015625 -0.109375q1.59375 0 2.359375 0.875q0.78125 0.875 0.78125 2.328125l0 4.765625l-1.0625 0l-0.109375 -1.0625l-0.046875 0q-0.65625 0.515625 -1.453125 0.890625q-0.796875 0.359375 -1.625 0.359375q-0.546875 0 -1.03125 -0.15625q-0.46875 -0.140625 -0.828125 -0.421875q-0.359375 -0.28125 -0.578125 -0.6875q-0.203125 -0.40625 -0.203125 -0.9375zm1.28125 -0.09375q0 0.328125 0.140625 0.5625q0.140625 0.234375 0.375 0.390625q0.234375 0.140625 0.546875 0.21875q0.3125 0.078125 0.640625 0.078125q0.671875 0 1.3125 -0.296875q0.65625 -0.296875 1.328125 -0.859375l0 -2.046875q-1.234375 0.09375 -2.078125 0.28125q-0.84375 0.171875 -1.359375 0.421875q-0.5 0.234375 -0.703125 0.546875q-0.203125 0.3125 -0.203125 0.703125zm9.303146 3.40625q0 0.609375 0.640625 0.984375q0.65625 0.390625 1.90625 0.390625q0.671875 0 1.21875 -0.140625q0.546875 -0.125 0.921875 -0.359375q0.390625 -0.21875 0.59375 -0.515625q0.203125 -0.28125 0.203125 -0.578125q0 -0.5625 -0.453125 -0.765625q-0.4375 -0.1875 -1.328125 -0.1875l-1.515625 0q-0.34375 0 -0.640625 -0.03125q-0.296875 -0.015625 -0.546875 -0.09375q-0.5625 0.296875 -0.78125 0.625q-0.21875 0.328125 -0.21875 0.671875zm-1.125 0.125q0 -0.46875 0.328125 -0.921875q0.328125 -0.4375 0.953125 -0.796875l0 -0.078125q-0.328125 -0.171875 -0.578125 -0.46875q-0.234375 -0.3125 -0.234375 -0.796875q0 -0.375 0.234375 -0.765625q0.25 -0.390625 0.703125 -0.703125l0 -0.0625q-0.40625 -0.296875 -0.6875 -0.796875q-0.28125 -0.515625 -0.28125 -1.21875q0 -0.640625 0.25 -1.140625q0.25 -0.515625 0.65625 -0.875q0.421875 -0.359375 0.96875 -0.5625q0.5625 -0.203125 1.1875 -0.203125q0.640625 0 1.15625 0.1875l3.21875 0l0 1.015625l-2.09375 0q0.28125 0.28125 0.5 0.703125q0.21875 0.421875 0.21875 0.921875q0 0.625 -0.234375 1.125q-0.21875 0.5 -0.625 0.84375q-0.40625 0.34375 -0.96875 0.53125q-0.546875 0.171875 -1.171875 0.171875q-0.296875 0 -0.65625 -0.0625q-0.34375 -0.078125 -0.65625 -0.21875q-0.609375 0.375 -0.609375 0.890625q0 0.46875 0.421875 0.6875q0.421875 0.21875 1.203125 0.21875l1.734375 0q1.5 0 2.234375 0.421875q0.734375 0.40625 0.734375 1.390625q0 0.546875 -0.3125 1.046875q-0.296875 0.5 -0.859375 0.859375q-0.5625 0.375 -1.359375 0.59375q-0.796875 0.21875 -1.796875 0.21875q-1.703125 0 -2.640625 -0.5625q-0.9375 -0.546875 -0.9375 -1.59375zm3.5 -4.765625q0.75 0 1.265625 -0.5q0.53125 -0.5 0.53125 -1.34375q0 -0.390625 -0.15625 -0.71875q-0.140625 -0.34375 -0.375 -0.578125q-0.234375 -0.25 -0.5625 -0.390625q-0.328125 -0.140625 -0.703125 -0.140625q-0.375 0 -0.703125 0.140625q-0.328125 0.140625 -0.5625 0.390625q-0.234375 0.234375 -0.390625 0.578125q-0.140625 0.328125 -0.140625 0.71875q0 0.84375 0.53125 1.34375q0.53125 0.5 1.265625 0.5zm6.0531464 -0.53125q0 -0.953125 0.328125 -1.71875q0.34375 -0.765625 0.890625 -1.28125q0.546875 -0.53125 1.25 -0.8125q0.71875 -0.28125 1.484375 -0.28125q0.828125 0 1.484375 0.265625q0.65625 0.265625 1.109375 0.75q0.453125 0.46875 0.6875 1.140625q0.25 0.671875 0.25 1.5q0 0.203125 -0.015625 0.40625q0 0.1875 -0.03125 0.34375l-6.078125 0q0.015625 0.625 0.234375 1.125q0.234375 0.484375 0.625 0.84375q0.40625 0.34375 0.9375 0.546875q0.53125 0.1875 1.171875 0.1875q0.6875 0 1.25 -0.1875q0.578125 -0.203125 1.125 -0.53125l0.453125 0.859375q-0.5625 0.359375 -1.3125 0.640625q-0.734375 0.265625 -1.671875 0.265625q-0.859375 0 -1.625 -0.28125q-0.765625 -0.28125 -1.328125 -0.796875q-0.5625 -0.515625 -0.890625 -1.265625q-0.328125 -0.75 -0.328125 -1.71875zm6.265625 -0.640625q0 -1.171875 -0.609375 -1.78125q-0.609375 -0.625 -1.6875 -0.625q-0.484375 0 -0.921875 0.15625q-0.4375 0.15625 -0.796875 0.46875q-0.34375 0.3125 -0.59375 0.765625q-0.234375 0.4375 -0.3125 1.015625l4.921875 0zm3.7093964 -3.265625l1.09375 0l0.109375 1.328125l0.0625 0q0.609375 -0.65625 1.3125 -1.078125q0.703125 -0.4375 1.625 -0.4375q1.390625 0 2.03125 0.796875q0.65625 0.78125 0.65625 2.34375l0 4.828125l-1.3125 0l0 -4.65625q0 -1.109375 -0.421875 -1.640625q-0.421875 -0.53125 -1.375 -0.53125q-0.359375 0 -0.65625 0.09375q-0.296875 0.078125 -0.578125 0.265625q-0.28125 0.171875 -0.59375 0.4375q-0.296875 0.25 -0.640625 0.609375l0 5.421875l-1.3125 0l0 -7.78125zm11.412521 1.078125l-2.1875 0l0 -1.0l2.234375 -0.078125l0.171875 -2.171875l1.09375 0l0 2.171875l3.828125 0l0 1.078125l-3.828125 0l0 3.6875q0 0.53125 0.09375 0.921875q0.09375 0.390625 0.3125 0.671875q0.234375 0.265625 0.609375 0.40625q0.390625 0.140625 0.953125 0.140625q0.5625 0 1.0 -0.09375q0.453125 -0.109375 0.875 -0.265625l0.28125 0.96875q-0.53125 0.1875 -1.171875 0.3125q-0.640625 0.140625 -1.28125 0.140625q-0.84375 0 -1.421875 -0.21875q-0.578125 -0.234375 -0.921875 -0.65625q-0.34375 -0.4375 -0.5 -1.015625q-0.140625 -0.59375 -0.140625 -1.328125l0 -3.671875zm18.559418 3.4375l-1.265625 0l0 -0.90625l1.375 0l0.3125 -2.375l-1.359375 0l0 -0.921875l1.453125 0l0.375 -2.9375l0.859375 0l-0.375 2.9375l2.109375 0l0.390625 -2.9375l0.84375 0l-0.359375 2.9375l1.28125 0l0 0.921875l-1.390625 0l-0.296875 2.375l1.375 0l0 0.90625l-1.484375 0l-0.390625 3.265625l-0.859375 0l0.390625 -3.265625l-2.125 0l-0.375 3.265625l-0.875 0l0.390625 -3.265625zm3.09375 -0.90625l0.296875 -2.375l-2.125 0l-0.296875 2.375l2.125 0zm12.303146 3.078125l0 1.09375l-6.890625 0l0 -1.09375l2.90625 0l0 -7.515625l-2.1875 0l0 -0.84375q0.828125 -0.125 1.421875 -0.3125q0.609375 -0.1875 1.09375 -0.4375l0.984375 0l0 9.109375l2.671875 0z" fill-rule="nonzero"/><path fill="#fff2cc" d="m502.99738 286.03412l277.00787 0l0 95.275604l-277.00787 0z" fill-rule="evenodd"/><path stroke="#000000" stroke-width="1.0" stroke-linejoin="round" stroke-linecap="butt" d="m502.99738 286.03412l277.00787 0l0 95.275604l-277.00787 0z" fill-rule="evenodd"/><path fill="#000000" d="m520.0755 310.39413l-1.0625 0l-0.125 -1.359375l-0.0625 0q-0.59375 0.6875 -1.296875 1.125q-0.6875 0.421875 -1.59375 0.421875q-1.40625 0 -2.0625 -0.78125q-0.640625 -0.796875 -0.640625 -2.34375l0 -4.84375l1.328125 0l0 4.65625q0 1.109375 0.40625 1.65625q0.40625 0.53125 1.390625 0.53125q0.671875 0 1.203125 -0.34375q0.546875 -0.34375 1.203125 -1.109375l0 -5.390625l1.3125 0l0 7.78125zm2.3344116 -7.78125l1.328125 0l1.796875 4.421875q0.234375 0.59375 0.453125 1.171875q0.21875 0.5625 0.421875 1.109375l0.0625 0q0.21875 -0.546875 0.40625 -1.109375q0.203125 -0.578125 0.453125 -1.171875l1.78125 -4.421875l1.265625 0l-3.21875 7.78125l-1.46875 0l-3.28125 -7.78125zm9.740601 0l1.03125 0l0.109375 1.03125l0.046875 0q0.296875 -0.546875 0.6875 -0.875q0.390625 -0.34375 1.0625 -0.34375q1.1875 0 1.46875 1.34375q0.359375 -0.609375 0.765625 -0.96875q0.421875 -0.375 1.078125 -0.375q0.8125 0 1.25 0.625q0.4375 0.609375 0.4375 1.78125l0 5.5625l-1.265625 0l0 -5.453125q0 -1.375 -0.84375 -1.375q-0.40625 0 -0.71875 0.296875q-0.296875 0.296875 -0.609375 0.90625l0 5.625l-1.046875 0l0 -5.453125q0 -1.375 -0.890625 -1.375q-0.40625 0 -0.703125 0.296875q-0.28125 0.296875 -0.59375 0.90625l0 5.625l-1.265625 0l0 -7.78125zm17.287537 8.890625l0 1.125l-7.6875 0l0 -1.125l7.6875 0zm2.2562866 -3.125q0 -0.65625 0.3125 -1.140625q0.3125 -0.484375 0.984375 -0.84375q0.6875 -0.359375 1.75 -0.578125q1.078125 -0.21875 2.578125 -0.34375q-0.015625 -0.40625 -0.125 -0.75q-0.109375 -0.359375 -0.359375 -0.625q-0.234375 -0.265625 -0.625 -0.421875q-0.390625 -0.15625 -0.953125 -0.15625q-0.765625 0 -1.46875 0.296875q-0.703125 0.296875 -1.25 0.625l-0.515625 -0.890625q0.296875 -0.203125 0.6875 -0.390625q0.390625 -0.203125 0.828125 -0.359375q0.4375 -0.171875 0.9375 -0.265625q0.5 -0.109375 1.015625 -0.109375q1.59375 0 2.359375 0.875q0.78125 0.875 0.78125 2.328125l0 4.765625l-1.0625 0l-0.109375 -1.0625l-0.046875 0q-0.65625 0.515625 -1.453125 0.890625q-0.796875 0.359375 -1.625 0.359375q-0.546875 0 -1.03125 -0.15625q-0.46875 -0.140625 -0.828125 -0.421875q-0.359375 -0.28125 -0.578125 -0.6875q-0.203125 -0.40625 -0.203125 -0.9375zm1.28125 -0.09375q0 0.328125 0.140625 0.5625q0.140625 0.234375 0.375 0.390625q0.234375 0.140625 0.546875 0.21875q0.3125 0.078125 0.640625 0.078125q0.671875 0 1.3125 -0.296875q0.65625 -0.296875 1.328125 -0.859375l0 -2.046875q-1.234375 0.09375 -2.078125 0.28125q-0.84375 0.171875 -1.359375 0.421875q-0.5 0.234375 -0.703125 0.546875q-0.203125 0.3125 -0.203125 0.703125zm9.303162 3.40625q0 0.609375 0.640625 0.984375q0.65625 0.390625 1.90625 0.390625q0.671875 0 1.21875 -0.140625q0.546875 -0.125 0.921875 -0.359375q0.390625 -0.21875 0.59375 -0.515625q0.203125 -0.28125 0.203125 -0.578125q0 -0.5625 -0.453125 -0.765625q-0.4375 -0.1875 -1.328125 -0.1875l-1.515625 0q-0.34375 0 -0.640625 -0.03125q-0.296875 -0.015625 -0.546875 -0.09375q-0.5625 0.296875 -0.78125 0.625q-0.21875 0.328125 -0.21875 0.671875zm-1.125 0.125q0 -0.46875 0.328125 -0.921875q0.328125 -0.4375 0.953125 -0.796875l0 -0.078125q-0.328125 -0.171875 -0.578125 -0.46875q-0.234375 -0.3125 -0.234375 -0.796875q0 -0.375 0.234375 -0.765625q0.25 -0.390625 0.703125 -0.703125l0 -0.0625q-0.40625 -0.296875 -0.6875 -0.796875q-0.28125 -0.515625 -0.28125 -1.21875q0 -0.640625 0.25 -1.140625q0.25 -0.515625 0.65625 -0.875q0.421875 -0.359375 0.96875 -0.5625q0.5625 -0.203125 1.1875 -0.203125q0.640625 0 1.15625 0.1875l3.21875 0l0 1.015625l-2.09375 0q0.28125 0.28125 0.5 0.703125q0.21875 0.421875 0.21875 0.921875q0 0.625 -0.234375 1.125q-0.21875 0.5 -0.625 0.84375q-0.40625 0.34375 -0.96875 0.53125q-0.546875 0.171875 -1.171875 0.171875q-0.296875 0 -0.65625 -0.0625q-0.34375 -0.078125 -0.65625 -0.21875q-0.609375 0.375 -0.609375 0.890625q0 0.46875 0.421875 0.6875q0.421875 0.21875 1.203125 0.21875l1.734375 0q1.5 0 2.234375 0.421875q0.734375 0.40625 0.734375 1.390625q0 0.546875 -0.3125 1.046875q-0.296875 0.5 -0.859375 0.859375q-0.5625 0.375 -1.359375 0.59375q-0.796875 0.21875 -1.796875 0.21875q-1.703125 0 -2.640625 -0.5625q-0.9375 -0.546875 -0.9375 -1.59375zm3.5 -4.765625q0.75 0 1.265625 -0.5q0.53125 -0.5 0.53125 -1.34375q0 -0.390625 -0.15625 -0.71875q-0.140625 -0.34375 -0.375 -0.578125q-0.234375 -0.25 -0.5625 -0.390625q-0.328125 -0.140625 -0.703125 -0.140625q-0.375 0 -0.703125 0.140625q-0.328125 0.140625 -0.5625 0.390625q-0.234375 0.234375 -0.390625 0.578125q-0.140625 0.328125 -0.140625 0.71875q0 0.84375 0.53125 1.34375q0.53125 0.5 1.265625 0.5zm6.0531006 -0.53125q0 -0.953125 0.328125 -1.71875q0.34375 -0.765625 0.890625 -1.28125q0.546875 -0.53125 1.25 -0.8125q0.71875 -0.28125 1.484375 -0.28125q0.828125 0 1.484375 0.265625q0.65625 0.265625 1.109375 0.75q0.453125 0.46875 0.6875 1.140625q0.25 0.671875 0.25 1.5q0 0.203125 -0.015625 0.40625q0 0.1875 -0.03125 0.34375l-6.078125 0q0.015625 0.625 0.234375 1.125q0.234375 0.484375 0.625 0.84375q0.40625 0.34375 0.9375 0.546875q0.53125 0.1875 1.171875 0.1875q0.6875 0 1.25 -0.1875q0.578125 -0.203125 1.125 -0.53125l0.453125 0.859375q-0.5625 0.359375 -1.3125 0.640625q-0.734375 0.265625 -1.671875 0.265625q-0.859375 0 -1.625 -0.28125q-0.765625 -0.28125 -1.328125 -0.796875q-0.5625 -0.515625 -0.890625 -1.265625q-0.328125 -0.75 -0.328125 -1.71875zm6.265625 -0.640625q0 -1.171875 -0.609375 -1.78125q-0.609375 -0.625 -1.6875 -0.625q-0.484375 0 -0.921875 0.15625q-0.4375 0.15625 -0.796875 0.46875q-0.34375 0.3125 -0.59375 0.765625q-0.234375 0.4375 -0.3125 1.015625l4.921875 0zm3.7094116 -3.265625l1.09375 0l0.109375 1.328125l0.0625 0q0.609375 -0.65625 1.3125 -1.078125q0.703125 -0.4375 1.625 -0.4375q1.390625 0 2.03125 0.796875q0.65625 0.78125 0.65625 2.34375l0 4.828125l-1.3125 0l0 -4.65625q0 -1.109375 -0.421875 -1.640625q-0.421875 -0.53125 -1.375 -0.53125q-0.359375 0 -0.65625 0.09375q-0.296875 0.078125 -0.578125 0.265625q-0.28125 0.171875 -0.59375 0.4375q-0.296875 0.25 -0.640625 0.609375l0 5.421875l-1.3125 0l0 -7.78125zm11.412537 1.078125l-2.1875 0l0 -1.0l2.234375 -0.078125l0.171875 -2.171875l1.09375 0l0 2.171875l3.828125 0l0 1.078125l-3.828125 0l0 3.6875q0 0.53125 0.09375 0.921875q0.09375 0.390625 0.3125 0.671875q0.234375 0.265625 0.609375 0.40625q0.390625 0.140625 0.953125 0.140625q0.5625 0 1.0 -0.09375q0.453125 -0.109375 0.875 -0.265625l0.28125 0.96875q-0.53125 0.1875 -1.171875 0.3125q-0.640625 0.140625 -1.28125 0.140625q-0.84375 0 -1.421875 -0.21875q-0.578125 -0.234375 -0.921875 -0.65625q-0.34375 -0.4375 -0.5 -1.015625q-0.140625 -0.59375 -0.140625 -1.328125l0 -3.671875zm18.559387 3.4375l-1.265625 0l0 -0.90625l1.375 0l0.3125 -2.375l-1.359375 0l0 -0.921875l1.453125 0l0.375 -2.9375l0.859375 0l-0.375 2.9375l2.109375 0l0.390625 -2.9375l0.84375 0l-0.359375 2.9375l1.28125 0l0 0.921875l-1.390625 0l-0.296875 2.375l1.375 0l0 0.90625l-1.484375 0l-0.390625 3.265625l-0.859375 0l0.390625 -3.265625l-2.125 0l-0.375 3.265625l-0.875 0l0.390625 -3.265625zm3.09375 -0.90625l0.296875 -2.375l-2.125 0l-0.296875 2.375l2.125 0zm5.0219116 3.390625q1.296875 -1.15625 2.296875 -2.078125q1.0 -0.9375 1.671875 -1.703125q0.6875 -0.78125 1.03125 -1.453125q0.359375 -0.671875 0.359375 -1.3125q0 -0.875 -0.546875 -1.4375q-0.546875 -0.5625 -1.6875 -0.5625q-0.71875 0 -1.328125 0.359375q-0.609375 0.359375 -1.109375 0.875l-0.75 -0.75q0.6875 -0.703125 1.46875 -1.125q0.796875 -0.4375 1.890625 -0.4375q0.765625 0 1.375 0.21875q0.625 0.21875 1.046875 0.609375q0.4375 0.390625 0.671875 0.953125q0.234375 0.5625 0.234375 1.234375q0 0.71875 -0.34375 1.453125q-0.34375 0.71875 -0.96875 1.5q-0.625 0.78125 -1.5 1.625q-0.859375 0.828125 -1.890625 1.765625q0.453125 -0.03125 0.9375 -0.0625q0.5 -0.03125 0.953125 -0.03125l3.375 0l0 1.140625l-7.1875 0l0 -0.78125z" fill-rule="nonzero"/><path fill="#000000" fill-opacity="0.0" d="m362.49606 109.073494l0 181.38583l7.118103 0l-14.236206 14.236206l-14.236237 -14.236206l7.1181335 0l0 -181.38583z" fill-rule="evenodd"/><path stroke="#000000" stroke-width="1.0" stroke-linejoin="round" stroke-linecap="butt" d="m362.49606 109.073494l0 181.38583l7.118103 0l-14.236206 14.236206l-14.236237 -14.236206l7.1181335 0l0 -181.38583z" fill-rule="evenodd"/><path fill="#000000" fill-opacity="0.0" d="m184.96063 109.073494l169.92126 0l0 36.34646l-169.92126 0z" fill-rule="evenodd"/><path fill="#000000" d="m201.36688 132.15349l-0.984375 0l-0.109375 -1.25l-0.046875 0q-0.546875 0.640625 -1.1875 1.03125q-0.640625 0.390625 -1.46875 0.390625q-1.296875 0 -1.890625 -0.71875q-0.59375 -0.734375 -0.59375 -2.15625l0 -4.421875l1.21875 0l0 4.265625q0 1.015625 0.375 1.515625q0.375 0.484375 1.265625 0.484375q0.625 0 1.109375 -0.3125q0.5 -0.328125 1.109375 -1.015625l0 -4.9375l1.203125 0l0 7.125zm2.1375275 -7.125l1.21875 0l1.640625 4.046875q0.21875 0.546875 0.40625 1.0625q0.203125 0.515625 0.390625 1.03125l0.0625 0q0.1875 -0.515625 0.375 -1.03125q0.1875 -0.515625 0.40625 -1.0625l1.640625 -4.046875l1.15625 0l-2.953125 7.125l-1.34375 0l-3.0 -7.125zm8.918777 0l0.9375 0l0.109375 0.9375l0.046875 0q0.265625 -0.5 0.625 -0.796875q0.359375 -0.3125 0.96875 -0.3125q1.078125 0 1.34375 1.234375q0.328125 -0.5625 0.703125 -0.890625q0.390625 -0.34375 0.984375 -0.34375q0.75 0 1.15625 0.5625q0.40625 0.5625 0.40625 1.640625l0 5.09375l-1.171875 0l0 -5.0q0 -1.265625 -0.765625 -1.265625q-0.390625 0 -0.671875 0.28125q-0.265625 0.265625 -0.546875 0.828125l0 5.15625l-0.96875 0l0 -5.0q0 -1.265625 -0.8125 -1.265625q-0.375 0 -0.640625 0.28125q-0.265625 0.265625 -0.546875 0.828125l0 5.15625l-1.15625 0l0 -7.125zm15.840652 8.140625l0 1.03125l-7.046875 0l0 -1.03125l7.046875 0zm2.5125275 -2.75q0.609375 0.4375 1.296875 0.703125q0.6875 0.265625 1.65625 0.265625q0.96875 0 1.4375 -0.3125q0.46875 -0.328125 0.46875 -0.796875q0 -0.40625 -0.515625 -0.734375q-0.5 -0.328125 -1.8125 -0.640625q-0.546875 -0.140625 -1.046875 -0.328125q-0.484375 -0.1875 -0.859375 -0.4375q-0.359375 -0.265625 -0.578125 -0.5625q-0.21875 -0.3125 -0.21875 -0.703125q0 -0.421875 0.1875 -0.796875q0.1875 -0.375 0.5625 -0.640625q0.375 -0.265625 0.9375 -0.421875q0.5625 -0.15625 1.296875 -0.15625q0.8125 0 1.5625 0.28125q0.765625 0.265625 1.296875 0.625l-0.578125 0.78125q-0.46875 -0.34375 -1.046875 -0.546875q-0.578125 -0.203125 -1.234375 -0.203125q-0.5 0 -0.84375 0.078125q-0.328125 0.078125 -0.53125 0.21875q-0.203125 0.140625 -0.296875 0.328125q-0.078125 0.1875 -0.078125 0.40625q0 0.4375 0.59375 0.71875q0.609375 0.28125 1.5625 0.53125q1.453125 0.375 2.140625 0.84375q0.703125 0.46875 0.703125 1.28125q0 0.4375 -0.203125 0.828125q-0.203125 0.375 -0.609375 0.671875q-0.390625 0.296875 -0.984375 0.453125q-0.59375 0.171875 -1.359375 0.171875q-1.0625 0 -1.953125 -0.328125q-0.875 -0.328125 -1.53125 -0.78125l0.578125 -0.796875zm8.168777 -1.8125q0 -0.875 0.296875 -1.5625q0.3125 -0.703125 0.8125 -1.1875q0.515625 -0.484375 1.15625 -0.734375q0.65625 -0.265625 1.34375 -0.265625q0.765625 0 1.359375 0.25q0.609375 0.234375 1.03125 0.671875q0.421875 0.4375 0.640625 1.0625q0.21875 0.609375 0.21875 1.359375q0 0.1875 -0.015625 0.375q0 0.171875 -0.03125 0.3125l-5.578125 0q0.015625 0.5625 0.234375 1.03125q0.21875 0.453125 0.578125 0.78125q0.359375 0.3125 0.84375 0.484375q0.484375 0.171875 1.078125 0.171875q0.625 0 1.140625 -0.171875q0.53125 -0.171875 1.03125 -0.484375l0.421875 0.796875q-0.53125 0.328125 -1.203125 0.578125q-0.671875 0.25 -1.53125 0.25q-0.796875 0 -1.5 -0.25q-0.6875 -0.265625 -1.21875 -0.734375q-0.515625 -0.484375 -0.8125 -1.171875q-0.296875 -0.6875 -0.296875 -1.5625zm5.734375 -0.59375q0 -1.0625 -0.5625 -1.625q-0.546875 -0.578125 -1.546875 -0.578125q-0.4375 0 -0.84375 0.15625q-0.390625 0.140625 -0.71875 0.421875q-0.328125 0.28125 -0.546875 0.703125q-0.21875 0.40625 -0.28125 0.921875l4.5 0zm2.9187775 0.59375q0 -0.859375 0.265625 -1.546875q0.28125 -0.703125 0.71875 -1.1875q0.453125 -0.484375 1.03125 -0.75q0.59375 -0.265625 1.234375 -0.265625q0.65625 0 1.15625 0.25q0.515625 0.25 1.03125 0.71875l0.046875 0l0.109375 -0.796875l0.96875 0l0 10.125l-1.203125 0l0 -2.625l0.046875 -1.28125q-0.46875 0.453125 -1.0625 0.765625q-0.59375 0.3125 -1.25 0.3125q-0.703125 0 -1.265625 -0.25q-0.5625 -0.25 -0.984375 -0.71875q-0.40625 -0.484375 -0.625 -1.171875q-0.21875 -0.6875 -0.21875 -1.578125zm1.25 -0.015625q0 1.296875 0.546875 2.015625q0.546875 0.71875 1.546875 0.71875q1.0625 0 2.015625 -1.078125l0 -3.546875q-0.484375 -0.453125 -0.953125 -0.640625q-0.453125 -0.1875 -0.921875 -0.1875q-0.46875 0 -0.875 0.203125q-0.40625 0.1875 -0.703125 0.546875q-0.296875 0.359375 -0.484375 0.859375q-0.171875 0.5 -0.171875 1.109375zm14.075012 3.5625l-0.984375 0l-0.109375 -1.25l-0.046875 0q-0.546875 0.640625 -1.1875 1.03125q-0.640625 0.390625 -1.46875 0.390625q-1.296875 0 -1.890625 -0.71875q-0.59375 -0.734375 -0.59375 -2.15625l0 -4.421875l1.21875 0l0 4.265625q0 1.015625 0.375 1.515625q0.375 0.484375 1.265625 0.484375q0.625 0 1.109375 -0.3125q0.5 -0.328125 1.109375 -1.015625l0 -4.9375l1.203125 0l0 7.125zm2.4031677 -3.546875q0 -0.875 0.296875 -1.5625q0.3125 -0.703125 0.8125 -1.1875q0.515625 -0.484375 1.15625 -0.734375q0.65625 -0.265625 1.34375 -0.265625q0.765625 0 1.359375 0.25q0.609375 0.234375 1.03125 0.671875q0.421875 0.4375 0.640625 1.0625q0.21875 0.609375 0.21875 1.359375q0 0.1875 -0.015625 0.375q0 0.171875 -0.03125 0.3125l-5.578125 0q0.015625 0.5625 0.234375 1.03125q0.21875 0.453125 0.578125 0.78125q0.359375 0.3125 0.84375 0.484375q0.484375 0.171875 1.078125 0.171875q0.625 0 1.140625 -0.171875q0.53125 -0.171875 1.03125 -0.484375l0.421875 0.796875q-0.53125 0.328125 -1.203125 0.578125q-0.671875 0.25 -1.53125 0.25q-0.796875 0 -1.5 -0.25q-0.6875 -0.265625 -1.21875 -0.734375q-0.515625 -0.484375 -0.8125 -1.171875q-0.296875 -0.6875 -0.296875 -1.5625zm5.734375 -0.59375q0 -1.0625 -0.5625 -1.625q-0.546875 -0.578125 -1.546875 -0.578125q-0.4375 0 -0.84375 0.15625q-0.390625 0.140625 -0.71875 0.421875q-0.328125 0.28125 -0.546875 0.703125q-0.21875 0.40625 -0.28125 0.921875l4.5 0zm3.4031372 -2.984375l1.0 0l0.109375 1.21875l0.046875 0q0.5625 -0.59375 1.203125 -0.984375q0.65625 -0.40625 1.484375 -0.40625q1.28125 0 1.875 0.734375q0.59375 0.71875 0.59375 2.140625l0 4.421875l-1.203125 0l0 -4.265625q0 -1.015625 -0.390625 -1.5q-0.375 -0.5 -1.25 -0.5q-0.328125 0 -0.609375 0.09375q-0.265625 0.078125 -0.53125 0.234375q-0.265625 0.15625 -0.546875 0.40625q-0.265625 0.234375 -0.578125 0.5625l0 4.96875l-1.203125 0l0 -7.125zm8.606293 3.578125q0 -0.890625 0.3125 -1.578125q0.3125 -0.703125 0.859375 -1.1875q0.546875 -0.484375 1.265625 -0.734375q0.734375 -0.25 1.53125 -0.25q0.890625 0 1.515625 0.3125q0.640625 0.296875 1.078125 0.71875l-0.59375 0.78125q-0.4375 -0.375 -0.921875 -0.59375q-0.46875 -0.21875 -1.03125 -0.21875q-0.609375 0 -1.125 0.203125q-0.515625 0.1875 -0.875 0.5625q-0.359375 0.359375 -0.5625 0.875q-0.203125 0.5 -0.203125 1.109375q0 0.609375 0.1875 1.109375q0.203125 0.5 0.5625 0.859375q0.359375 0.359375 0.859375 0.5625q0.515625 0.1875 1.125 0.1875q0.65625 0 1.203125 -0.25q0.5625 -0.25 1.015625 -0.640625l0.53125 0.78125q-0.59375 0.53125 -1.328125 0.828125q-0.71875 0.28125 -1.5 0.28125q-0.84375 0 -1.5625 -0.25q-0.703125 -0.25 -1.234375 -0.71875q-0.515625 -0.484375 -0.8125 -1.171875q-0.296875 -0.703125 -0.296875 -1.578125zm8.637512 0q0 -0.875 0.296875 -1.5625q0.3125 -0.703125 0.8125 -1.1875q0.515625 -0.484375 1.15625 -0.734375q0.65625 -0.265625 1.34375 -0.265625q0.765625 0 1.359375 0.25q0.609375 0.234375 1.03125 0.671875q0.421875 0.4375 0.640625 1.0625q0.21875 0.609375 0.21875 1.359375q0 0.1875 -0.015625 0.375q0 0.171875 -0.03125 0.3125l-5.578125 0q0.015625 0.5625 0.234375 1.03125q0.21875 0.453125 0.578125 0.78125q0.359375 0.3125 0.84375 0.484375q0.484375 0.171875 1.078125 0.171875q0.625 0 1.140625 -0.171875q0.53125 -0.171875 1.03125 -0.484375l0.421875 0.796875q-0.53125 0.328125 -1.203125 0.578125q-0.671875 0.25 -1.53125 0.25q-0.796875 0 -1.5 -0.25q-0.6875 -0.265625 -1.21875 -0.734375q-0.515625 -0.484375 -0.8125 -1.171875q-0.296875 -0.6875 -0.296875 -1.5625zm5.734375 -0.59375q0 -1.0625 -0.5625 -1.625q-0.546875 -0.578125 -1.546875 -0.578125q-0.4375 0 -0.84375 0.15625q-0.390625 0.140625 -0.71875 0.421875q-0.328125 0.28125 -0.546875 0.703125q-0.21875 0.40625 -0.28125 0.921875l4.5 0zm9.965668 5.15625l0 1.03125l-7.046875 0l0 -1.03125l7.046875 0zm2.1843872 -8.140625l4.515625 0l0 7.125l-1.203125 0l0 -6.140625l-3.3125 0l0 -0.984375zm3.78125 -1.46875q-0.421875 0 -0.6875 -0.25q-0.265625 -0.25 -0.265625 -0.671875q0 -0.421875 0.265625 -0.671875q0.265625 -0.265625 0.6875 -0.265625q0.421875 0 0.6875 0.265625q0.28125 0.25 0.28125 0.671875q0 0.421875 -0.28125 0.671875q-0.265625 0.25 -0.6875 0.25zm6.7156677 2.453125l-2.0 0l0 -0.90625l2.046875 -0.078125l0.15625 -1.984375l1.0 0l0 1.984375l3.5 0l0 0.984375l-3.5 0l0 3.390625q0 0.484375 0.078125 0.84375q0.09375 0.359375 0.296875 0.609375q0.21875 0.234375 0.5625 0.359375q0.359375 0.125 0.875 0.125q0.5 0 0.90625 -0.078125q0.421875 -0.09375 0.796875 -0.234375l0.265625 0.875q-0.484375 0.171875 -1.078125 0.296875q-0.578125 0.125 -1.15625 0.125q-0.78125 0 -1.3125 -0.203125q-0.53125 -0.21875 -0.84375 -0.609375q-0.3125 -0.390625 -0.453125 -0.921875q-0.140625 -0.546875 -0.140625 -1.203125l0 -3.375zm6.793762 2.59375q0 -0.875 0.296875 -1.5625q0.3125 -0.703125 0.8125 -1.1875q0.515625 -0.484375 1.15625 -0.734375q0.65625 -0.265625 1.34375 -0.265625q0.765625 0 1.359375 0.25q0.609375 0.234375 1.03125 0.671875q0.421875 0.4375 0.640625 1.0625q0.21875 0.609375 0.21875 1.359375q0 0.1875 -0.015625 0.375q0 0.171875 -0.03125 0.3125l-5.578125 0q0.015625 0.5625 0.234375 1.03125q0.21875 0.453125 0.578125 0.78125q0.359375 0.3125 0.84375 0.484375q0.484375 0.171875 1.078125 0.171875q0.625 0 1.140625 -0.171875q0.53125 -0.171875 1.03125 -0.484375l0.421875 0.796875q-0.53125 0.328125 -1.203125 0.578125q-0.671875 0.25 -1.53125 0.25q-0.796875 0 -1.5 -0.25q-0.6875 -0.265625 -1.21875 -0.734375q-0.515625 -0.484375 -0.8125 -1.171875q-0.296875 -0.6875 -0.296875 -1.5625zm5.734375 -0.59375q0 -1.0625 -0.5625 -1.625q-0.546875 -0.578125 -1.546875 -0.578125q-0.4375 0 -0.84375 0.15625q-0.390625 0.140625 -0.71875 0.421875q-0.328125 0.28125 -0.546875 0.703125q-0.21875 0.40625 -0.28125 0.921875l4.5 0zm2.9187927 -2.984375l0.9375 0l0.109375 0.9375l0.046875 0q0.265625 -0.5 0.625 -0.796875q0.359375 -0.3125 0.96875 -0.3125q1.078125 0 1.34375 1.234375q0.328125 -0.5625 0.703125 -0.890625q0.390625 -0.34375 0.984375 -0.34375q0.75 0 1.15625 0.5625q0.40625 0.5625 0.40625 1.640625l0 5.09375l-1.171875 0l0 -5.0q0 -1.265625 -0.765625 -1.265625q-0.390625 0 -0.671875 0.28125q-0.265625 0.265625 -0.546875 0.828125l0 5.15625l-0.96875 0l0 -5.0q0 -1.265625 -0.8125 -1.265625q-0.375 0 -0.640625 0.28125q-0.265625 0.265625 -0.546875 0.828125l0 5.15625l-1.15625 0l0 -7.125z" fill-rule="nonzero"/><path fill="#000000" fill-opacity="0.0" d="m261.07874 304.6824l141.44882 0l0 16.692932l-141.44882 0z" fill-rule="evenodd"/><path stroke="#000000" stroke-width="1.0" stroke-linejoin="round" stroke-linecap="butt" d="m261.07874 304.6824l141.44882 0l0 16.692932l-141.44882 0z" fill-rule="evenodd"/><path fill="#000000" d="m276.8131 317.82886l-0.890625 0l-0.09375 -1.140625l-0.0625 0q-0.484375 0.578125 -1.078125 0.9375q-0.578125 0.359375 -1.328125 0.359375q-1.171875 0 -1.71875 -0.65625q-0.53125 -0.65625 -0.53125 -1.953125l0 -4.03125l1.09375 0l0 3.890625q0 0.921875 0.34375 1.375q0.34375 0.4375 1.15625 0.4375q0.5625 0 1.015625 -0.28125q0.453125 -0.296875 1.0 -0.921875l0 -4.5l1.09375 0l0 6.484375zm1.9499817 -6.484375l1.09375 0l1.5 3.6875q0.203125 0.484375 0.375 0.96875q0.1875 0.46875 0.359375 0.9375l0.046875 0q0.171875 -0.46875 0.34375 -0.9375q0.171875 -0.484375 0.359375 -0.96875l1.5 -3.6875l1.046875 0l-2.671875 6.484375l-1.234375 0l-2.71875 -6.484375zm8.106201 0l0.859375 0l0.09375 0.859375l0.03125 0q0.25 -0.453125 0.5625 -0.734375q0.328125 -0.28125 0.890625 -0.28125q0.984375 0 1.234375 1.125q0.296875 -0.515625 0.640625 -0.8125q0.34375 -0.3125 0.890625 -0.3125q0.671875 0 1.03125 0.515625q0.375 0.515625 0.375 1.484375l0 4.640625l-1.046875 0l0 -4.546875q0 -1.140625 -0.703125 -1.140625q-0.359375 0 -0.609375 0.25q-0.25 0.234375 -0.5 0.75l0 4.6875l-0.875 0l0 -4.546875q0 -1.140625 -0.734375 -1.140625q-0.359375 0 -0.59375 0.25q-0.234375 0.234375 -0.484375 0.75l0 4.6875l-1.0625 0l0 -6.484375zm14.403107 7.40625l0 0.9375l-6.40625 0l0 -0.9375l6.40625 0zm2.2937012 -2.5q0.546875 0.40625 1.171875 0.65625q0.625 0.234375 1.5 0.234375q0.875 0 1.296875 -0.296875q0.4375 -0.296875 0.4375 -0.71875q0 -0.375 -0.46875 -0.671875q-0.453125 -0.296875 -1.640625 -0.578125q-0.5 -0.125 -0.953125 -0.296875q-0.4375 -0.171875 -0.78125 -0.40625q-0.328125 -0.234375 -0.53125 -0.515625q-0.203125 -0.28125 -0.203125 -0.625q0 -0.390625 0.171875 -0.71875q0.171875 -0.34375 0.515625 -0.59375q0.34375 -0.25 0.859375 -0.390625q0.515625 -0.140625 1.171875 -0.140625q0.734375 0 1.421875 0.25q0.703125 0.25 1.1875 0.578125l-0.53125 0.703125q-0.4375 -0.296875 -0.953125 -0.484375q-0.515625 -0.1875 -1.125 -0.1875q-0.453125 0 -0.765625 0.078125q-0.296875 0.0625 -0.484375 0.1875q-0.1875 0.125 -0.265625 0.3125q-0.078125 0.171875 -0.078125 0.359375q0 0.390625 0.546875 0.65625q0.546875 0.25 1.421875 0.484375q1.328125 0.328125 1.953125 0.765625q0.640625 0.421875 0.640625 1.171875q0 0.390625 -0.1875 0.734375q-0.1875 0.34375 -0.5625 0.625q-0.359375 0.265625 -0.90625 0.40625q-0.53125 0.15625 -1.234375 0.15625q-0.953125 0 -1.765625 -0.296875q-0.796875 -0.296875 -1.40625 -0.71875l0.546875 -0.71875zm7.4187317 -1.640625q0 -0.8125 0.28125 -1.4375q0.28125 -0.640625 0.734375 -1.078125q0.46875 -0.4375 1.046875 -0.671875q0.59375 -0.234375 1.234375 -0.234375q0.6875 0 1.234375 0.21875q0.546875 0.21875 0.921875 0.625q0.375 0.40625 0.578125 0.96875q0.203125 0.546875 0.203125 1.234375q0 0.171875 -0.015625 0.34375q0 0.15625 -0.015625 0.28125l-5.078125 0q0.015625 0.515625 0.203125 0.9375q0.203125 0.40625 0.53125 0.703125q0.328125 0.28125 0.765625 0.453125q0.453125 0.15625 0.984375 0.15625q0.578125 0 1.046875 -0.15625q0.46875 -0.171875 0.921875 -0.4375l0.390625 0.71875q-0.484375 0.296875 -1.09375 0.53125q-0.609375 0.21875 -1.40625 0.21875q-0.71875 0 -1.359375 -0.234375q-0.625 -0.234375 -1.09375 -0.65625q-0.46875 -0.4375 -0.75 -1.0625q-0.265625 -0.625 -0.265625 -1.421875zm5.21875 -0.546875q0 -0.96875 -0.515625 -1.484375q-0.5 -0.515625 -1.40625 -0.515625q-0.390625 0 -0.765625 0.140625q-0.359375 0.125 -0.65625 0.390625q-0.296875 0.25 -0.5 0.625q-0.1875 0.375 -0.25 0.84375l4.09375 0zm2.6530762 0.546875q0 -0.796875 0.25 -1.421875q0.25 -0.640625 0.65625 -1.078125q0.40625 -0.4375 0.9375 -0.671875q0.53125 -0.25 1.109375 -0.25q0.59375 0 1.0625 0.234375q0.46875 0.21875 0.9375 0.65625l0.03125 0l0.09375 -0.734375l0.875 0l0 9.21875l-1.078125 0l0 -2.390625l0.046875 -1.171875q-0.421875 0.421875 -0.96875 0.703125q-0.53125 0.28125 -1.140625 0.28125q-0.640625 0 -1.15625 -0.21875q-0.5 -0.234375 -0.875 -0.65625q-0.375 -0.4375 -0.578125 -1.0625q-0.203125 -0.625 -0.203125 -1.4375zm1.140625 -0.015625q0 1.171875 0.5 1.828125q0.5 0.640625 1.40625 0.640625q0.953125 0 1.828125 -0.96875l0 -3.21875q-0.453125 -0.421875 -0.875 -0.59375q-0.40625 -0.171875 -0.84375 -0.171875q-0.421875 0 -0.796875 0.1875q-0.359375 0.171875 -0.640625 0.5q-0.265625 0.328125 -0.421875 0.78125q-0.15625 0.453125 -0.15625 1.015625zm12.793732 3.234375l-0.890625 0l-0.09375 -1.140625l-0.0625 0q-0.484375 0.578125 -1.078125 0.9375q-0.578125 0.359375 -1.328125 0.359375q-1.171875 0 -1.71875 -0.65625q-0.53125 -0.65625 -0.53125 -1.953125l0 -4.03125l1.09375 0l0 3.890625q0 0.921875 0.34375 1.375q0.34375 0.4375 1.15625 0.4375q0.5625 0 1.015625 -0.28125q0.453125 -0.296875 1.0 -0.921875l0 -4.5l1.09375 0l0 6.484375zm2.1843262 -3.21875q0 -0.8125 0.28125 -1.4375q0.28125 -0.640625 0.734375 -1.078125q0.46875 -0.4375 1.046875 -0.671875q0.59375 -0.234375 1.234375 -0.234375q0.6875 0 1.234375 0.21875q0.546875 0.21875 0.921875 0.625q0.375 0.40625 0.578125 0.96875q0.203125 0.546875 0.203125 1.234375q0 0.171875 -0.015625 0.34375q0 0.15625 -0.015625 0.28125l-5.078125 0q0.015625 0.515625 0.203125 0.9375q0.203125 0.40625 0.53125 0.703125q0.328125 0.28125 0.765625 0.453125q0.453125 0.15625 0.984375 0.15625q0.578125 0 1.046875 -0.15625q0.46875 -0.171875 0.921875 -0.4375l0.390625 0.71875q-0.484375 0.296875 -1.09375 0.53125q-0.609375 0.21875 -1.40625 0.21875q-0.71875 0 -1.359375 -0.234375q-0.625 -0.234375 -1.09375 -0.65625q-0.46875 -0.4375 -0.75 -1.0625q-0.265625 -0.625 -0.265625 -1.421875zm5.21875 -0.546875q0 -0.96875 -0.515625 -1.484375q-0.5 -0.515625 -1.40625 -0.515625q-0.390625 0 -0.765625 0.140625q-0.359375 0.125 -0.65625 0.390625q-0.296875 0.25 -0.5 0.625q-0.1875 0.375 -0.25 0.84375l4.09375 0zm3.0906067 -2.71875l0.90625 0l0.09375 1.109375l0.0625 0q0.5 -0.546875 1.078125 -0.90625q0.59375 -0.359375 1.359375 -0.359375q1.15625 0 1.6875 0.671875q0.546875 0.65625 0.546875 1.9375l0 4.03125l-1.09375 0l0 -3.875q0 -0.921875 -0.34375 -1.359375q-0.34375 -0.453125 -1.140625 -0.453125q-0.296875 0 -0.546875 0.078125q-0.25 0.0625 -0.484375 0.21875q-0.234375 0.140625 -0.5 0.359375q-0.25 0.21875 -0.53125 0.515625l0 4.515625l-1.09375 0l0 -6.484375zm7.824951 3.265625q0 -0.8125 0.28125 -1.4375q0.296875 -0.640625 0.78125 -1.078125q0.5 -0.453125 1.15625 -0.671875q0.65625 -0.234375 1.390625 -0.234375q0.8125 0 1.390625 0.28125q0.578125 0.28125 0.96875 0.671875l-0.546875 0.703125q-0.390625 -0.34375 -0.828125 -0.546875q-0.4375 -0.203125 -0.9375 -0.203125q-0.5625 0 -1.03125 0.1875q-0.46875 0.171875 -0.796875 0.515625q-0.3125 0.328125 -0.5 0.796875q-0.1875 0.453125 -0.1875 1.015625q0 0.546875 0.171875 1.0q0.1875 0.453125 0.515625 0.78125q0.328125 0.328125 0.78125 0.515625q0.453125 0.171875 1.015625 0.171875q0.609375 0 1.109375 -0.234375q0.5 -0.234375 0.90625 -0.578125l0.484375 0.703125q-0.53125 0.484375 -1.203125 0.75q-0.65625 0.265625 -1.375 0.265625q-0.75 0 -1.40625 -0.21875q-0.640625 -0.234375 -1.125 -0.65625q-0.484375 -0.4375 -0.75 -1.0625q-0.265625 -0.640625 -0.265625 -1.4375zm7.8562317 0q0 -0.8125 0.28125 -1.4375q0.28125 -0.640625 0.734375 -1.078125q0.46875 -0.4375 1.046875 -0.671875q0.59375 -0.234375 1.234375 -0.234375q0.6875 0 1.234375 0.21875q0.546875 0.21875 0.921875 0.625q0.375 0.40625 0.578125 0.96875q0.203125 0.546875 0.203125 1.234375q0 0.171875 -0.015625 0.34375q0 0.15625 -0.015625 0.28125l-5.078125 0q0.015625 0.515625 0.203125 0.9375q0.203125 0.40625 0.53125 0.703125q0.328125 0.28125 0.765625 0.453125q0.453125 0.15625 0.984375 0.15625q0.578125 0 1.046875 -0.15625q0.46875 -0.171875 0.921875 -0.4375l0.390625 0.71875q-0.484375 0.296875 -1.09375 0.53125q-0.609375 0.21875 -1.40625 0.21875q-0.71875 0 -1.359375 -0.234375q-0.625 -0.234375 -1.09375 -0.65625q-0.46875 -0.4375 -0.75 -1.0625q-0.265625 -0.625 -0.265625 -1.421875zm5.21875 -0.546875q0 -0.96875 -0.515625 -1.484375q-0.5 -0.515625 -1.40625 -0.515625q-0.390625 0 -0.765625 0.140625q-0.359375 0.125 -0.65625 0.390625q-0.296875 0.25 -0.5 0.625q-0.1875 0.375 -0.25 0.84375l4.09375 0zm3.8093262 -2.71875l0.90625 0l0.09375 1.546875l0.03125 0q0.5 -0.796875 1.234375 -1.25q0.75 -0.453125 1.65625 -0.453125q0.359375 0 0.65625 0.0625q0.3125 0.0625 0.625 0.203125l-0.25 0.953125q-0.34375 -0.125 -0.578125 -0.171875q-0.234375 -0.0625 -0.625 -0.0625q-0.734375 0 -1.40625 0.421875q-0.671875 0.421875 -1.265625 1.4375l0 3.796875l-1.078125 0l0 -6.484375z" fill-rule="nonzero"/><path fill="#000000" fill-opacity="0.0" d="m261.07874 350.37796l141.44882 0l0 16.692902l-141.44882 0z" fill-rule="evenodd"/><path stroke="#000000" stroke-width="1.0" stroke-linejoin="round" stroke-linecap="butt" d="m261.07874 350.37796l141.44882 0l0 16.692902l-141.44882 0z" fill-rule="evenodd"/><path fill="#000000" d="m276.8131 363.5244l-0.890625 0l-0.09375 -1.140625l-0.0625 0q-0.484375 0.578125 -1.078125 0.9375q-0.578125 0.359375 -1.328125 0.359375q-1.171875 0 -1.71875 -0.65625q-0.53125 -0.65625 -0.53125 -1.953125l0 -4.03125l1.09375 0l0 3.890625q0 0.921875 0.34375 1.375q0.34375 0.4375 1.15625 0.4375q0.5625 0 1.015625 -0.28125q0.453125 -0.296875 1.0 -0.921875l0 -4.5l1.09375 0l0 6.484375zm1.9499817 -6.484375l1.09375 0l1.5 3.6875q0.203125 0.484375 0.375 0.96875q0.1875 0.46875 0.359375 0.9375l0.046875 0q0.171875 -0.46875 0.34375 -0.9375q0.171875 -0.484375 0.359375 -0.96875l1.5 -3.6875l1.046875 0l-2.671875 6.484375l-1.234375 0l-2.71875 -6.484375zm8.106201 0l0.859375 0l0.09375 0.859375l0.03125 0q0.25 -0.453125 0.5625 -0.734375q0.328125 -0.28125 0.890625 -0.28125q0.984375 0 1.234375 1.125q0.296875 -0.515625 0.640625 -0.8125q0.34375 -0.3125 0.890625 -0.3125q0.671875 0 1.03125 0.515625q0.375 0.515625 0.375 1.484375l0 4.640625l-1.046875 0l0 -4.546875q0 -1.140625 -0.703125 -1.140625q-0.359375 0 -0.609375 0.25q-0.25 0.234375 -0.5 0.75l0 4.6875l-0.875 0l0 -4.546875q0 -1.140625 -0.734375 -1.140625q-0.359375 0 -0.59375 0.25q-0.234375 0.234375 -0.484375 0.75l0 4.6875l-1.0625 0l0 -6.484375zm14.403107 7.40625l0 0.9375l-6.40625 0l0 -0.9375l6.40625 0zm1.5905762 -4.140625q0 -0.796875 0.25 -1.421875q0.25 -0.640625 0.65625 -1.078125q0.40625 -0.4375 0.9375 -0.671875q0.53125 -0.25 1.109375 -0.25q0.59375 0 1.046875 0.234375q0.453125 0.21875 0.90625 0.609375l-0.03125 -1.203125l0 -2.484375l1.078125 0l0 9.484375l-0.90625 0l-0.09375 -0.859375l-0.03125 0q-0.40625 0.421875 -0.953125 0.71875q-0.546875 0.296875 -1.15625 0.296875q-0.640625 0 -1.15625 -0.21875q-0.5 -0.234375 -0.875 -0.65625q-0.375 -0.4375 -0.578125 -1.0625q-0.203125 -0.625 -0.203125 -1.4375zm1.140625 -0.015625q0 1.171875 0.5 1.828125q0.5 0.640625 1.40625 0.640625q0.953125 0 1.828125 -0.96875l0 -3.21875q-0.453125 -0.421875 -0.875 -0.59375q-0.40625 -0.171875 -0.84375 -0.171875q-0.421875 0 -0.796875 0.1875q-0.359375 0.171875 -0.640625 0.5q-0.265625 0.328125 -0.421875 0.78125q-0.15625 0.453125 -0.15625 1.015625zm8.012482 -3.25l0.90625 0l0.09375 1.546875l0.03125 0q0.5 -0.796875 1.234375 -1.25q0.75 -0.453125 1.65625 -0.453125q0.359375 0 0.65625 0.0625q0.3125 0.0625 0.625 0.203125l-0.25 0.953125q-0.34375 -0.125 -0.578125 -0.171875q-0.234375 -0.0625 -0.625 -0.0625q-0.734375 0 -1.40625 0.421875q-0.671875 0.421875 -1.265625 1.4375l0 3.796875l-1.078125 0l0 -6.484375zm7.246826 0l4.09375 0l0 6.484375l-1.078125 0l0 -5.578125l-3.015625 0l0 -0.90625zm3.4375 -1.328125q-0.390625 0 -0.640625 -0.21875q-0.234375 -0.234375 -0.234375 -0.625q0 -0.375 0.234375 -0.609375q0.25 -0.234375 0.640625 -0.234375q0.375 0 0.625 0.234375q0.25 0.234375 0.25 0.609375q0 0.390625 -0.25 0.625q-0.25 0.21875 -0.625 0.21875zm4.0437317 1.328125l1.09375 0l1.5 3.6875q0.203125 0.484375 0.375 0.96875q0.1875 0.46875 0.359375 0.9375l0.046875 0q0.171875 -0.46875 0.34375 -0.9375q0.171875 -0.484375 0.359375 -0.96875l1.5 -3.6875l1.046875 0l-2.671875 6.484375l-1.234375 0l-2.71875 -6.484375zm8.231201 3.265625q0 -0.8125 0.28125 -1.4375q0.28125 -0.640625 0.734375 -1.078125q0.46875 -0.4375 1.046875 -0.671875q0.59375 -0.234375 1.234375 -0.234375q0.6875 0 1.234375 0.21875q0.546875 0.21875 0.921875 0.625q0.375 0.40625 0.578125 0.96875q0.203125 0.546875 0.203125 1.234375q0 0.171875 -0.015625 0.34375q0 0.15625 -0.015625 0.28125l-5.078125 0q0.015625 0.515625 0.203125 0.9375q0.203125 0.40625 0.53125 0.703125q0.328125 0.28125 0.765625 0.453125q0.453125 0.15625 0.984375 0.15625q0.578125 0 1.046875 -0.15625q0.46875 -0.171875 0.921875 -0.4375l0.390625 0.71875q-0.484375 0.296875 -1.09375 0.53125q-0.609375 0.21875 -1.40625 0.21875q-0.71875 0 -1.359375 -0.234375q-0.625 -0.234375 -1.09375 -0.65625q-0.46875 -0.4375 -0.75 -1.0625q-0.265625 -0.625 -0.265625 -1.421875zm5.21875 -0.546875q0 -0.96875 -0.515625 -1.484375q-0.5 -0.515625 -1.40625 -0.515625q-0.390625 0 -0.765625 0.140625q-0.359375 0.125 -0.65625 0.390625q-0.296875 0.25 -0.5 0.625q-0.1875 0.375 -0.25 0.84375l4.09375 0zm3.8093567 -2.71875l0.90625 0l0.09375 1.546875l0.03125 0q0.5 -0.796875 1.234375 -1.25q0.75 -0.453125 1.65625 -0.453125q0.359375 0 0.65625 0.0625q0.3125 0.0625 0.625 0.203125l-0.25 0.953125q-0.34375 -0.125 -0.578125 -0.171875q-0.234375 -0.0625 -0.625 -0.0625q-0.734375 0 -1.40625 0.421875q-0.671875 0.421875 -1.265625 1.4375l0 3.796875l-1.078125 0l0 -6.484375z" fill-rule="nonzero"/><path fill="#000000" fill-opacity="0.0" d="m138.58005 350.37796l114.645676 0l0 16.692902l-114.645676 0z" fill-rule="evenodd"/><path stroke="#000000" stroke-width="1.0" stroke-linejoin="round" stroke-linecap="butt" d="m138.58005 350.37796l114.645676 0l0 16.692902l-114.645676 0z" fill-rule="evenodd"/><path fill="#000000" d="m154.31442 363.5244l-0.890625 0l-0.09375 -1.140625l-0.0625 0q-0.484375 0.578125 -1.078125 0.9375q-0.578125 0.359375 -1.328125 0.359375q-1.171875 0 -1.71875 -0.65625q-0.53125 -0.65625 -0.53125 -1.953125l0 -4.03125l1.09375 0l0 3.890625q0 0.921875 0.34375 1.375q0.34375 0.4375 1.15625 0.4375q0.5625 0 1.015625 -0.28125q0.453125 -0.296875 1.0 -0.921875l0 -4.5l1.09375 0l0 6.484375zm1.9499664 -6.484375l1.09375 0l1.5 3.6875q0.203125 0.484375 0.375 0.96875q0.1875 0.46875 0.359375 0.9375l0.046875 0q0.171875 -0.46875 0.34375 -0.9375q0.171875 -0.484375 0.359375 -0.96875l1.5 -3.6875l1.046875 0l-2.671875 6.484375l-1.234375 0l-2.71875 -6.484375zm8.106216 0l0.859375 0l0.09375 0.859375l0.03125 0q0.25 -0.453125 0.5625 -0.734375q0.328125 -0.28125 0.890625 -0.28125q0.984375 0 1.234375 1.125q0.296875 -0.515625 0.640625 -0.8125q0.34375 -0.3125 0.890625 -0.3125q0.671875 0 1.03125 0.515625q0.375 0.515625 0.375 1.484375l0 4.640625l-1.046875 0l0 -4.546875q0 -1.140625 -0.703125 -1.140625q-0.359375 0 -0.609375 0.25q-0.25 0.234375 -0.5 0.75l0 4.6875l-0.875 0l0 -4.546875q0 -1.140625 -0.734375 -1.140625q-0.359375 0 -0.59375 0.25q-0.234375 0.234375 -0.484375 0.75l0 4.6875l-1.0625 0l0 -6.484375zm14.403091 7.40625l0 0.9375l-6.40625 0l0 -0.9375l6.40625 0zm1.5905914 -7.40625l0.859375 0l0.09375 0.859375l0.03125 0q0.25 -0.453125 0.5625 -0.734375q0.328125 -0.28125 0.890625 -0.28125q0.984375 0 1.234375 1.125q0.296875 -0.515625 0.640625 -0.8125q0.34375 -0.3125 0.890625 -0.3125q0.671875 0 1.03125 0.515625q0.375 0.515625 0.375 1.484375l0 4.640625l-1.046875 0l0 -4.546875q0 -1.140625 -0.703125 -1.140625q-0.359375 0 -0.609375 0.25q-0.25 0.234375 -0.5 0.75l0 4.6875l-0.875 0l0 -4.546875q0 -1.140625 -0.734375 -1.140625q-0.359375 0 -0.59375 0.25q-0.234375 0.234375 -0.484375 0.75l0 4.6875l-1.0625 0l0 -6.484375zm7.9968414 3.265625q0 -0.8125 0.25 -1.4375q0.265625 -0.640625 0.703125 -1.078125q0.453125 -0.453125 1.03125 -0.671875q0.578125 -0.234375 1.21875 -0.234375q0.640625 0 1.21875 0.234375q0.578125 0.21875 1.015625 0.671875q0.4375 0.4375 0.703125 1.078125q0.265625 0.625 0.265625 1.4375q0 0.796875 -0.265625 1.4375q-0.265625 0.625 -0.703125 1.0625q-0.4375 0.421875 -1.015625 0.65625q-0.578125 0.21875 -1.21875 0.21875q-0.640625 0 -1.21875 -0.21875q-0.578125 -0.234375 -1.03125 -0.65625q-0.4375 -0.4375 -0.703125 -1.0625q-0.25 -0.640625 -0.25 -1.4375zm1.140625 0q0 0.546875 0.140625 1.0q0.140625 0.453125 0.40625 0.78125q0.28125 0.328125 0.65625 0.515625q0.390625 0.171875 0.859375 0.171875q0.46875 0 0.84375 -0.171875q0.375 -0.1875 0.640625 -0.515625q0.28125 -0.328125 0.421875 -0.78125q0.15625 -0.453125 0.15625 -1.0q0 -0.5625 -0.15625 -1.015625q-0.140625 -0.46875 -0.421875 -0.796875q-0.265625 -0.34375 -0.640625 -0.515625q-0.375 -0.1875 -0.84375 -0.1875q-0.46875 0 -0.859375 0.1875q-0.375 0.171875 -0.65625 0.515625q-0.265625 0.328125 -0.40625 0.796875q-0.140625 0.453125 -0.140625 1.015625zm7.2937164 -3.265625l0.90625 0l0.09375 1.109375l0.0625 0q0.5 -0.546875 1.078125 -0.90625q0.59375 -0.359375 1.359375 -0.359375q1.15625 0 1.6875 0.671875q0.546875 0.65625 0.546875 1.9375l0 4.03125l-1.09375 0l0 -3.875q0 -0.921875 -0.34375 -1.359375q-0.34375 -0.453125 -1.140625 -0.453125q-0.296875 0 -0.546875 0.078125q-0.25 0.0625 -0.484375 0.21875q-0.234375 0.140625 -0.5 0.359375q-0.25 0.21875 -0.53125 0.515625l0 4.515625l-1.09375 0l0 -6.484375zm7.9655914 0l4.09375 0l0 6.484375l-1.078125 0l0 -5.578125l-3.015625 0l0 -0.90625zm3.4375 -1.328125q-0.390625 0 -0.640625 -0.21875q-0.234375 -0.234375 -0.234375 -0.625q0 -0.375 0.234375 -0.609375q0.25 -0.234375 0.640625 -0.234375q0.375 0 0.625 0.234375q0.25 0.234375 0.25 0.609375q0 0.390625 -0.25 0.625q-0.25 0.21875 -0.625 0.21875zm6.1062164 2.234375l-1.828125 0l0 -0.828125l1.859375 -0.078125l0.15625 -1.8125l0.90625 0l0 1.8125l3.1875 0l0 0.90625l-3.1875 0l0 3.078125q0 0.4375 0.078125 0.765625q0.078125 0.328125 0.265625 0.5625q0.1875 0.21875 0.5 0.328125q0.328125 0.109375 0.796875 0.109375q0.453125 0 0.828125 -0.078125q0.375 -0.078125 0.71875 -0.21875l0.25 0.796875q-0.4375 0.171875 -0.984375 0.28125q-0.53125 0.109375 -1.0625 0.109375q-0.703125 0 -1.1875 -0.1875q-0.46875 -0.203125 -0.765625 -0.546875q-0.28125 -0.359375 -0.40625 -0.84375q-0.125 -0.5 -0.125 -1.09375l0 -3.0625zm6.0437164 2.359375q0 -0.8125 0.25 -1.4375q0.265625 -0.640625 0.703125 -1.078125q0.453125 -0.453125 1.03125 -0.671875q0.578125 -0.234375 1.21875 -0.234375q0.640625 0 1.21875 0.234375q0.578125 0.21875 1.015625 0.671875q0.4375 0.4375 0.703125 1.078125q0.265625 0.625 0.265625 1.4375q0 0.796875 -0.265625 1.4375q-0.265625 0.625 -0.703125 1.0625q-0.4375 0.421875 -1.015625 0.65625q-0.578125 0.21875 -1.21875 0.21875q-0.640625 0 -1.21875 -0.21875q-0.578125 -0.234375 -1.03125 -0.65625q-0.4375 -0.4375 -0.703125 -1.0625q-0.25 -0.640625 -0.25 -1.4375zm1.140625 0q0 0.546875 0.140625 1.0q0.140625 0.453125 0.40625 0.78125q0.28125 0.328125 0.65625 0.515625q0.390625 0.171875 0.859375 0.171875q0.46875 0 0.84375 -0.171875q0.375 -0.1875 0.640625 -0.515625q0.28125 -0.328125 0.421875 -0.78125q0.15625 -0.453125 0.15625 -1.0q0 -0.5625 -0.15625 -1.015625q-0.140625 -0.46875 -0.421875 -0.796875q-0.265625 -0.34375 -0.640625 -0.515625q-0.375 -0.1875 -0.84375 -0.1875q-0.46875 0 -0.859375 0.1875q-0.375 0.171875 -0.65625 0.515625q-0.265625 0.328125 -0.40625 0.796875q-0.140625 0.453125 -0.140625 1.015625zm8.012466 -3.265625l0.90625 0l0.09375 1.546875l0.03125 0q0.5 -0.796875 1.234375 -1.25q0.75 -0.453125 1.65625 -0.453125q0.359375 0 0.65625 0.0625q0.3125 0.0625 0.625 0.203125l-0.25 0.953125q-0.34375 -0.125 -0.578125 -0.171875q-0.234375 -0.0625 -0.625 -0.0625q-0.734375 0 -1.40625 0.421875q-0.671875 0.421875 -1.265625 1.4375l0 3.796875l-1.078125 0l0 -6.484375z" fill-rule="nonzero"/><path fill="#000000" fill-opacity="0.0" d="m331.80316 367.07086l0 142.92914" fill-rule="evenodd"/><path stroke="#000000" stroke-width="1.0" stroke-linejoin="round" stroke-linecap="butt" d="m331.80316 367.07086l0 136.92914" fill-rule="evenodd"/><path fill="#000000" stroke="#000000" stroke-width="1.0" stroke-linecap="butt" d="m330.15143 504.0l1.6517334 4.538086l1.6517334 -4.538086z" fill-rule="evenodd"/><path fill="#000000" fill-opacity="0.0" d="m333.0761 465.57742l109.7323 0l0 36.346466l-109.7323 0z" fill-rule="evenodd"/><path fill="#000000" d="m343.3886 481.53244l4.515625 0l0 7.125l-1.203125 0l0 -6.140625l-3.3125 0l0 -0.984375zm3.78125 -1.46875q-0.421875 0 -0.6875 -0.25q-0.265625 -0.25 -0.265625 -0.671875q0 -0.421875 0.265625 -0.671875q0.265625 -0.265625 0.6875 -0.265625q0.421875 0 0.6875 0.265625q0.28125 0.25 0.28125 0.671875q0 0.421875 -0.28125 0.671875q-0.265625 0.25 -0.6875 0.25zm5.0594177 1.46875l1.0 0l0.109375 1.21875l0.046875 0q0.5625 -0.59375 1.203125 -0.984375q0.65625 -0.40625 1.484375 -0.40625q1.28125 0 1.875 0.734375q0.59375 0.71875 0.59375 2.140625l0 4.421875l-1.203125 0l0 -4.265625q0 -1.015625 -0.390625 -1.5q-0.375 -0.5 -1.25 -0.5q-0.328125 0 -0.609375 0.09375q-0.265625 0.078125 -0.53125 0.234375q-0.265625 0.15625 -0.546875 0.40625q-0.265625 0.234375 -0.578125 0.5625l0 4.96875l-1.203125 0l0 -7.125zm10.450012 0.984375l-2.0 0l0 -0.90625l2.046875 -0.078125l0.15625 -1.984375l1.0 0l0 1.984375l3.5 0l0 0.984375l-3.5 0l0 3.390625q0 0.484375 0.078125 0.84375q0.09375 0.359375 0.296875 0.609375q0.21875 0.234375 0.5625 0.359375q0.359375 0.125 0.875 0.125q0.5 0 0.90625 -0.078125q0.421875 -0.09375 0.796875 -0.234375l0.265625 0.875q-0.484375 0.171875 -1.078125 0.296875q-0.578125 0.125 -1.15625 0.125q-0.78125 0 -1.3125 -0.203125q-0.53125 -0.21875 -0.84375 -0.609375q-0.3125 -0.390625 -0.453125 -0.921875q-0.140625 -0.546875 -0.140625 -1.203125l0 -3.375zm6.7937927 2.59375q0 -0.875 0.296875 -1.5625q0.3125 -0.703125 0.8125 -1.1875q0.515625 -0.484375 1.15625 -0.734375q0.65625 -0.265625 1.34375 -0.265625q0.765625 0 1.359375 0.25q0.609375 0.234375 1.03125 0.671875q0.421875 0.4375 0.640625 1.0625q0.21875 0.609375 0.21875 1.359375q0 0.1875 -0.015625 0.375q0 0.171875 -0.03125 0.3125l-5.578125 0q0.015625 0.5625 0.234375 1.03125q0.21875 0.453125 0.578125 0.78125q0.359375 0.3125 0.84375 0.484375q0.484375 0.171875 1.078125 0.171875q0.625 0 1.140625 -0.171875q0.53125 -0.171875 1.03125 -0.484375l0.421875 0.796875q-0.53125 0.328125 -1.203125 0.578125q-0.671875 0.25 -1.53125 0.25q-0.796875 0 -1.5 -0.25q-0.6875 -0.265625 -1.21875 -0.734375q-0.515625 -0.484375 -0.8125 -1.171875q-0.296875 -0.6875 -0.296875 -1.5625zm5.734375 -0.59375q0 -1.0625 -0.5625 -1.625q-0.546875 -0.578125 -1.546875 -0.578125q-0.4375 0 -0.84375 0.15625q-0.390625 0.140625 -0.71875 0.421875q-0.328125 0.28125 -0.546875 0.703125q-0.21875 0.40625 -0.28125 0.921875l4.5 0zm4.184387 -2.984375l1.0 0l0.09375 1.6875l0.046875 0q0.5625 -0.859375 1.375 -1.359375q0.8125 -0.5 1.8125 -0.5q0.390625 0 0.71875 0.0625q0.34375 0.0625 0.6875 0.234375l-0.28125 1.03125q-0.390625 -0.125 -0.640625 -0.1875q-0.25 -0.0625 -0.6875 -0.0625q-0.796875 0 -1.546875 0.46875q-0.734375 0.453125 -1.375 1.578125l0 4.171875l-1.203125 0l0 -7.125zm14.840668 -2.171875q-0.4375 -0.203125 -0.8125 -0.265625q-0.375 -0.0625 -0.84375 -0.0625q-0.96875 0 -1.390625 0.5q-0.40625 0.484375 -0.40625 1.359375l0 0.640625l2.984375 0l0 0.984375l-2.984375 0l0 6.140625l-1.1875 0l0 -6.140625l-2.03125 0l0 -0.90625l2.03125 -0.078125l0 -0.59375q0 -1.3125 0.6875 -2.09375q0.703125 -0.796875 2.1875 -0.796875q1.046875 0 2.046875 0.40625l-0.28125 0.90625zm1.7937622 7.453125q0 -0.609375 0.28125 -1.046875q0.296875 -0.453125 0.90625 -0.765625q0.625 -0.328125 1.609375 -0.53125q0.984375 -0.203125 2.359375 -0.328125q-0.015625 -0.359375 -0.125 -0.6875q-0.09375 -0.328125 -0.3125 -0.5625q-0.21875 -0.25 -0.578125 -0.390625q-0.359375 -0.140625 -0.875 -0.140625q-0.703125 0 -1.34375 0.265625q-0.640625 0.265625 -1.140625 0.578125l-0.46875 -0.8125q0.265625 -0.1875 0.625 -0.359375q0.359375 -0.1875 0.75 -0.328125q0.40625 -0.15625 0.859375 -0.25q0.453125 -0.09375 0.921875 -0.09375q1.46875 0 2.171875 0.796875q0.71875 0.796875 0.71875 2.125l0 4.375l-0.984375 0l-0.09375 -0.96875l-0.046875 0q-0.609375 0.46875 -1.328125 0.8125q-0.71875 0.328125 -1.484375 0.328125q-0.5 0 -0.9375 -0.140625q-0.4375 -0.140625 -0.78125 -0.390625q-0.328125 -0.25 -0.515625 -0.625q-0.1875 -0.375 -0.1875 -0.859375zm1.171875 -0.09375q0 0.3125 0.125 0.53125q0.140625 0.203125 0.34375 0.34375q0.21875 0.140625 0.5 0.203125q0.296875 0.0625 0.59375 0.0625q0.625 0 1.21875 -0.265625q0.59375 -0.265625 1.203125 -0.78125l0 -1.875q-1.140625 0.078125 -1.90625 0.25q-0.765625 0.15625 -1.234375 0.390625q-0.46875 0.21875 -0.65625 0.515625q-0.1875 0.28125 -0.1875 0.625zm7.6062927 -1.609375q0 -0.890625 0.3125 -1.578125q0.3125 -0.703125 0.859375 -1.1875q0.546875 -0.484375 1.265625 -0.734375q0.734375 -0.25 1.53125 -0.25q0.890625 0 1.515625 0.3125q0.640625 0.296875 1.078125 0.71875l-0.59375 0.78125q-0.4375 -0.375 -0.921875 -0.59375q-0.46875 -0.21875 -1.03125 -0.21875q-0.609375 0 -1.125 0.203125q-0.515625 0.1875 -0.875 0.5625q-0.359375 0.359375 -0.5625 0.875q-0.203125 0.5 -0.203125 1.109375q0 0.609375 0.1875 1.109375q0.203125 0.5 0.5625 0.859375q0.359375 0.359375 0.859375 0.5625q0.515625 0.1875 1.125 0.1875q0.65625 0 1.203125 -0.25q0.5625 -0.25 1.015625 -0.640625l0.53125 0.78125q-0.59375 0.53125 -1.328125 0.828125q-0.71875 0.28125 -1.5 0.28125q-0.84375 0 -1.5625 -0.25q-0.703125 -0.25 -1.234375 -0.71875q-0.515625 -0.484375 -0.8125 -1.171875q-0.296875 -0.703125 -0.296875 -1.578125zm8.637512 0q0 -0.875 0.296875 -1.5625q0.3125 -0.703125 0.8125 -1.1875q0.515625 -0.484375 1.15625 -0.734375q0.65625 -0.265625 1.34375 -0.265625q0.765625 0 1.359375 0.25q0.609375 0.234375 1.03125 0.671875q0.421875 0.4375 0.640625 1.0625q0.21875 0.609375 0.21875 1.359375q0 0.1875 -0.015625 0.375q0 0.171875 -0.03125 0.3125l-5.578125 0q0.015625 0.5625 0.234375 1.03125q0.21875 0.453125 0.578125 0.78125q0.359375 0.3125 0.84375 0.484375q0.484375 0.171875 1.078125 0.171875q0.625 0 1.140625 -0.171875q0.53125 -0.171875 1.03125 -0.484375l0.421875 0.796875q-0.53125 0.328125 -1.203125 0.578125q-0.671875 0.25 -1.53125 0.25q-0.796875 0 -1.5 -0.25q-0.6875 -0.265625 -1.21875 -0.734375q-0.515625 -0.484375 -0.8125 -1.171875q-0.296875 -0.6875 -0.296875 -1.5625zm5.734375 -0.59375q0 -1.0625 -0.5625 -1.625q-0.546875 -0.578125 -1.546875 -0.578125q-0.4375 0 -0.84375 0.15625q-0.390625 0.140625 -0.71875 0.421875q-0.328125 0.28125 -0.546875 0.703125q-0.21875 0.40625 -0.28125 0.921875l4.5 0z" fill-rule="nonzero"/><path fill="#e6b8af" d="m382.87927 154.4252l430.2362 0l0 54.015747l-430.2362 0z" fill-rule="evenodd"/><path stroke="#000000" stroke-width="1.0" stroke-linejoin="round" stroke-linecap="butt" d="m382.87927 154.4252l430.2362 0l0 54.015747l-430.2362 0z" fill-rule="evenodd"/><path fill="#000000" d="m401.30115 181.3452l-1.25 0l-0.125 -1.578125l-0.078125 0q-0.6875 0.796875 -1.5 1.296875q-0.8125 0.5 -1.875 0.5q-1.640625 0 -2.40625 -0.921875q-0.75 -0.921875 -0.75 -2.734375l0 -5.625l1.546875 0l0 5.421875q0 1.296875 0.46875 1.921875q0.484375 0.625 1.625 0.625q0.78125 0 1.40625 -0.40625q0.640625 -0.40625 1.40625 -1.28125l0 -6.28125l1.53125 0l0 9.0625zm2.725006 -9.0625l1.546875 0l2.09375 5.140625q0.28125 0.6875 0.53125 1.359375q0.25 0.65625 0.484375 1.3125l0.078125 0q0.25 -0.65625 0.484375 -1.3125q0.234375 -0.671875 0.5 -1.359375l2.09375 -5.140625l1.484375 0l-3.75 9.0625l-1.71875 0l-3.828125 -9.0625zm11.365631 0l1.1875 0l0.125 1.1875l0.0625 0q0.328125 -0.625 0.78125 -1.015625q0.46875 -0.40625 1.25 -0.40625q1.375 0 1.71875 1.578125q0.40625 -0.71875 0.890625 -1.140625q0.484375 -0.4375 1.25 -0.4375q0.953125 0 1.46875 0.71875q0.515625 0.71875 0.515625 2.078125l0 6.5l-1.46875 0l0 -6.359375q0 -1.609375 -1.0 -1.609375q-0.484375 0 -0.84375 0.34375q-0.34375 0.34375 -0.703125 1.0625l0 6.5625l-1.234375 0l0 -6.359375q0 -1.609375 -1.015625 -1.609375q-0.484375 0 -0.828125 0.34375q-0.328125 0.34375 -0.6875 1.0625l0 6.5625l-1.46875 0l0 -9.0625zm20.146881 10.34375l0 1.328125l-8.953125 0l0 -1.328125l8.953125 0zm3.209381 -3.484375q0.765625 0.5625 1.640625 0.90625q0.875 0.328125 2.109375 0.328125q1.234375 0 1.828125 -0.40625q0.59375 -0.421875 0.59375 -1.015625q0 -0.515625 -0.640625 -0.921875q-0.640625 -0.421875 -2.3125 -0.828125q-0.703125 -0.171875 -1.328125 -0.40625q-0.625 -0.25 -1.09375 -0.578125q-0.46875 -0.328125 -0.75 -0.71875q-0.28125 -0.390625 -0.28125 -0.875q0 -0.53125 0.234375 -1.0q0.25 -0.484375 0.71875 -0.828125q0.484375 -0.359375 1.203125 -0.546875q0.71875 -0.203125 1.65625 -0.203125q1.03125 0 2.0 0.359375q0.96875 0.34375 1.640625 0.796875l-0.75 1.0q-0.59375 -0.4375 -1.328125 -0.6875q-0.71875 -0.265625 -1.5625 -0.265625q-0.640625 0 -1.078125 0.109375q-0.421875 0.09375 -0.6875 0.28125q-0.25 0.171875 -0.359375 0.421875q-0.109375 0.234375 -0.109375 0.484375q0 0.5625 0.765625 0.9375q0.765625 0.359375 1.984375 0.671875q1.859375 0.46875 2.734375 1.0625q0.890625 0.59375 0.890625 1.640625q0 0.5625 -0.265625 1.046875q-0.25 0.484375 -0.765625 0.859375q-0.515625 0.375 -1.28125 0.578125q-0.75 0.21875 -1.71875 0.21875q-1.34375 0 -2.46875 -0.40625q-1.125 -0.421875 -1.96875 -1.0l0.75 -1.015625zm10.600006 -2.3125q0 -1.140625 0.390625 -2.015625q0.40625 -0.890625 1.09375 -1.5q0.6875 -0.625 1.609375 -0.9375q0.921875 -0.328125 1.953125 -0.328125q1.125 0 1.9375 0.40625q0.8125 0.390625 1.359375 0.921875l-0.765625 0.984375q-0.546875 -0.484375 -1.15625 -0.75q-0.609375 -0.28125 -1.3125 -0.28125q-0.78125 0 -1.4375 0.25q-0.65625 0.25 -1.125 0.71875q-0.453125 0.46875 -0.71875 1.109375q-0.25 0.640625 -0.25 1.421875q0 0.78125 0.25 1.421875q0.25 0.625 0.703125 1.09375q0.46875 0.453125 1.109375 0.703125q0.640625 0.25 1.421875 0.25q0.84375 0 1.546875 -0.328125q0.703125 -0.328125 1.28125 -0.8125l0.671875 1.0q-0.75 0.671875 -1.671875 1.046875q-0.921875 0.359375 -1.9375 0.359375q-1.0625 0 -1.96875 -0.3125q-0.90625 -0.3125 -1.578125 -0.921875q-0.671875 -0.609375 -1.046875 -1.484375q-0.359375 -0.890625 -0.359375 -2.015625zm10.818756 0q0 -1.140625 0.359375 -2.015625q0.359375 -0.890625 0.96875 -1.5q0.625 -0.625 1.4375 -0.9375q0.8125 -0.328125 1.703125 -0.328125q0.90625 0 1.703125 0.328125q0.8125 0.3125 1.421875 0.9375q0.625 0.609375 0.984375 1.5q0.375 0.875 0.375 2.015625q0 1.125 -0.375 2.015625q-0.359375 0.875 -0.984375 1.484375q-0.609375 0.609375 -1.421875 0.921875q-0.796875 0.3125 -1.703125 0.3125q-0.890625 0 -1.703125 -0.3125q-0.8125 -0.3125 -1.4375 -0.921875q-0.609375 -0.609375 -0.96875 -1.484375q-0.359375 -0.890625 -0.359375 -2.015625zm1.578125 0q0 0.78125 0.203125 1.421875q0.203125 0.625 0.578125 1.09375q0.390625 0.453125 0.921875 0.703125q0.53125 0.25 1.1875 0.25q0.65625 0 1.1875 -0.25q0.53125 -0.25 0.90625 -0.703125q0.390625 -0.46875 0.59375 -1.09375q0.203125 -0.640625 0.203125 -1.421875q0 -0.78125 -0.203125 -1.421875q-0.203125 -0.640625 -0.59375 -1.109375q-0.375 -0.46875 -0.90625 -0.71875q-0.53125 -0.25 -1.1875 -0.25q-0.65625 0 -1.1875 0.25q-0.53125 0.25 -0.921875 0.71875q-0.375 0.46875 -0.578125 1.109375q-0.203125 0.640625 -0.203125 1.421875zm11.209381 -4.546875l1.28125 0l0.125 2.140625l0.046875 0q0.71875 -1.09375 1.75 -1.734375q1.03125 -0.640625 2.3125 -0.640625q0.5 0 0.921875 0.09375q0.4375 0.078125 0.859375 0.28125l-0.359375 1.328125q-0.484375 -0.171875 -0.8125 -0.234375q-0.3125 -0.078125 -0.859375 -0.078125q-1.03125 0 -1.96875 0.59375q-0.9375 0.578125 -1.765625 2.0l0 5.3125l-1.53125 0l0 -9.0625zm9.756256 4.546875q0 -1.125 0.390625 -2.0q0.40625 -0.890625 1.046875 -1.5q0.640625 -0.625 1.46875 -0.953125q0.828125 -0.328125 1.703125 -0.328125q0.96875 0 1.734375 0.3125q0.765625 0.3125 1.296875 0.875q0.53125 0.546875 0.8125 1.34375q0.28125 0.78125 0.28125 1.734375q0 0.234375 -0.015625 0.46875q0 0.234375 -0.03125 0.40625l-7.09375 0q0.015625 0.71875 0.28125 1.296875q0.28125 0.578125 0.734375 1.0q0.453125 0.40625 1.078125 0.640625q0.625 0.21875 1.375 0.21875q0.796875 0 1.453125 -0.21875q0.671875 -0.234375 1.3125 -0.625l0.53125 1.0q-0.671875 0.4375 -1.53125 0.75q-0.859375 0.3125 -1.953125 0.3125q-1.0 0 -1.890625 -0.3125q-0.890625 -0.328125 -1.5625 -0.9375q-0.65625 -0.609375 -1.046875 -1.484375q-0.375 -0.875 -0.375 -2.0zm7.3125 -0.75q0 -1.359375 -0.703125 -2.078125q-0.703125 -0.734375 -1.984375 -0.734375q-0.546875 0 -1.0625 0.1875q-0.515625 0.1875 -0.9375 0.546875q-0.40625 0.359375 -0.6875 0.890625q-0.265625 0.515625 -0.359375 1.1875l5.734375 0zm4.334381 -8.015625l1.53125 0l0 3.625l-0.03125 1.75q0.640625 -0.640625 1.453125 -1.015625q0.8125 -0.375 1.625 -0.375q0.90625 0 1.609375 0.328125q0.71875 0.328125 1.1875 0.9375q0.484375 0.609375 0.71875 1.453125q0.25 0.84375 0.25 1.890625q0 1.15625 -0.34375 2.078125q-0.328125 0.90625 -0.90625 1.546875q-0.5625 0.640625 -1.3125 0.96875q-0.75 0.3125 -1.546875 0.3125q-0.65625 0 -1.40625 -0.3125q-0.75 -0.328125 -1.40625 -0.90625l-0.0625 0l-0.125 1.0l-1.234375 0l0 -13.28125zm1.53125 11.15625q0.65625 0.578125 1.3125 0.828125q0.671875 0.234375 1.15625 0.234375q0.59375 0 1.09375 -0.25q0.5 -0.25 0.875 -0.703125q0.375 -0.46875 0.578125 -1.140625q0.203125 -0.671875 0.203125 -1.515625q0 -0.734375 -0.15625 -1.34375q-0.140625 -0.625 -0.453125 -1.0625q-0.296875 -0.4375 -0.78125 -0.671875q-0.484375 -0.25 -1.15625 -0.25q-0.609375 0 -1.296875 0.328125q-0.671875 0.328125 -1.375 1.03125l0 4.515625zm9.053131 -2.390625q0 -1.140625 0.359375 -2.015625q0.359375 -0.890625 0.96875 -1.5q0.625 -0.625 1.4375 -0.9375q0.8125 -0.328125 1.703125 -0.328125q0.90625 0 1.703125 0.328125q0.8125 0.3125 1.421875 0.9375q0.625 0.609375 0.984375 1.5q0.375 0.875 0.375 2.015625q0 1.125 -0.375 2.015625q-0.359375 0.875 -0.984375 1.484375q-0.609375 0.609375 -1.421875 0.921875q-0.796875 0.3125 -1.703125 0.3125q-0.890625 0 -1.703125 -0.3125q-0.8125 -0.3125 -1.4375 -0.921875q-0.609375 -0.609375 -0.96875 -1.484375q-0.359375 -0.890625 -0.359375 -2.015625zm1.578125 0q0 0.78125 0.203125 1.421875q0.203125 0.625 0.578125 1.09375q0.390625 0.453125 0.921875 0.703125q0.53125 0.25 1.1875 0.25q0.65625 0 1.1875 -0.25q0.53125 -0.25 0.90625 -0.703125q0.390625 -0.46875 0.59375 -1.09375q0.203125 -0.640625 0.203125 -1.421875q0 -0.78125 -0.203125 -1.421875q-0.203125 -0.640625 -0.59375 -1.109375q-0.375 -0.46875 -0.90625 -0.71875q-0.53125 -0.25 -1.1875 -0.25q-0.65625 0 -1.1875 0.25q-0.53125 0.25 -0.921875 0.71875q-0.375 0.46875 -0.578125 1.109375q-0.203125 0.640625 -0.203125 1.421875zm10.006226 2.171875q0 -0.765625 0.359375 -1.328125q0.359375 -0.578125 1.15625 -0.984375q0.796875 -0.421875 2.046875 -0.671875q1.25 -0.265625 3.0 -0.421875q-0.015625 -0.46875 -0.15625 -0.875q-0.125 -0.40625 -0.40625 -0.71875q-0.28125 -0.3125 -0.734375 -0.484375q-0.453125 -0.1875 -1.109375 -0.1875q-0.890625 0 -1.71875 0.34375q-0.8125 0.34375 -1.453125 0.734375l-0.59375 -1.046875q0.328125 -0.21875 0.78125 -0.453125q0.46875 -0.234375 0.96875 -0.421875q0.515625 -0.1875 1.09375 -0.3125q0.578125 -0.125 1.1875 -0.125q1.859375 0 2.765625 1.03125q0.90625 1.015625 0.90625 2.703125l0 5.5625l-1.25 0l-0.125 -1.234375l-0.0625 0q-0.765625 0.59375 -1.6875 1.03125q-0.921875 0.421875 -1.890625 0.421875q-0.640625 0 -1.203125 -0.171875q-0.5625 -0.171875 -0.984375 -0.5q-0.40625 -0.328125 -0.65625 -0.796875q-0.234375 -0.484375 -0.234375 -1.09375zm1.484375 -0.125q0 0.390625 0.171875 0.671875q0.171875 0.265625 0.4375 0.453125q0.265625 0.171875 0.625 0.265625q0.375 0.078125 0.765625 0.078125q0.78125 0 1.53125 -0.34375q0.765625 -0.359375 1.546875 -1.0l0 -2.390625q-1.453125 0.109375 -2.4375 0.3125q-0.96875 0.203125 -1.5625 0.5q-0.59375 0.28125 -0.84375 0.65625q-0.234375 0.359375 -0.234375 0.796875zm10.912537 -6.59375l1.28125 0l0.125 2.140625l0.046875 0q0.71875 -1.09375 1.75 -1.734375q1.03125 -0.640625 2.3125 -0.640625q0.5 0 0.921875 0.09375q0.4375 0.078125 0.859375 0.28125l-0.359375 1.328125q-0.484375 -0.171875 -0.8125 -0.234375q-0.3125 -0.078125 -0.859375 -0.078125q-1.03125 0 -1.96875 0.59375q-0.9375 0.578125 -1.765625 2.0l0 5.3125l-1.53125 0l0 -9.0625zm9.599976 4.546875q0 -1.09375 0.34375 -1.984375q0.34375 -0.890625 0.90625 -1.5q0.578125 -0.625 1.3125 -0.953125q0.75 -0.34375 1.5625 -0.34375q0.828125 0 1.453125 0.328125q0.640625 0.3125 1.28125 0.859375l-0.0625 -1.6875l0 -3.484375l1.53125 0l0 13.28125l-1.265625 0l-0.125 -1.1875l-0.0625 0q-0.5625 0.578125 -1.34375 1.0q-0.765625 0.40625 -1.59375 0.40625q-0.90625 0 -1.625 -0.3125q-0.71875 -0.3125 -1.25 -0.921875q-0.515625 -0.609375 -0.796875 -1.484375q-0.265625 -0.875 -0.265625 -2.015625zm1.578125 -0.015625q0 1.640625 0.703125 2.5625q0.703125 0.90625 1.96875 0.90625q1.34375 0 2.546875 -1.359375l0 -4.515625q-0.609375 -0.578125 -1.203125 -0.8125q-0.578125 -0.25 -1.171875 -0.25q-0.609375 0 -1.125 0.25q-0.5 0.25 -0.890625 0.71875q-0.375 0.453125 -0.609375 1.09375q-0.21875 0.625 -0.21875 1.40625z" fill-rule="nonzero"/><path fill="#000000" fill-opacity="0.0" d="m269.92126 286.03412l0 -104.566925" fill-rule="evenodd"/><path stroke="#000000" stroke-width="1.0" stroke-linejoin="round" stroke-linecap="butt" d="m269.92126 282.2441l0 -100.77692" fill-rule="evenodd"/><path fill="#000000" stroke="#000000" stroke-width="1.0" stroke-linecap="butt" d="m269.92126 285.53412c-0.9085083 0 -1.6450195 -0.7364807 -1.6450195 -1.644989c0 -0.9085083 0.73651123 -1.6450195 1.6450195 -1.6450195c0.9085083 0 1.644989 0.73651123 1.644989 1.6450195c0 0.9085083 -0.7364807 1.644989 -1.644989 1.644989z" fill-rule="nonzero"/><path fill="#000000" fill-opacity="0.0" d="m270.24933 181.43307l112.629944 0" fill-rule="evenodd"/><path stroke="#000000" stroke-width="1.0" stroke-linejoin="round" stroke-linecap="butt" d="m270.24933 181.43307l107.00165 0" fill-rule="evenodd"/><path fill="#000000" stroke="#000000" stroke-width="1.0" stroke-linecap="butt" d="m377.25098 181.43307l2.378296 1.6652832l2.3782654 -1.6652832l-2.3782654 -1.6652985z" fill-rule="evenodd"/><path fill="#000000" fill-opacity="0.0" d="m641.50134 381.30972l0 127.55905" fill-rule="evenodd"/><path stroke="#000000" stroke-width="1.0" stroke-linejoin="round" stroke-linecap="butt" d="m641.50134 387.30972l0 121.55905" fill-rule="evenodd"/><path fill="#000000" stroke="#000000" stroke-width="1.0" stroke-linecap="butt" d="m643.153 387.30972l-1.6516724 -4.5381165l-1.6517334 4.5381165z" fill-rule="evenodd"/><path fill="#000000" fill-opacity="0.0" d="m641.50134 286.03412l0 -77.76378" fill-rule="evenodd"/><path stroke="#000000" stroke-width="1.0" stroke-linejoin="round" stroke-linecap="butt" d="m641.50134 282.2441l0 -68.34549" fill-rule="evenodd"/><path fill="#000000" stroke="#000000" stroke-width="1.0" stroke-linecap="butt" d="m641.50134 285.53412c-0.9085083 0 -1.6450195 -0.7364807 -1.6450195 -1.644989c0 -0.9085083 0.73651123 -1.6450195 1.6450195 -1.6450195c0.9085083 0 1.6449585 0.73651123 1.6449585 1.6450195c0 0.9085083 -0.7364502 1.644989 -1.6449585 1.644989z" fill-rule="nonzero"/><path fill="#000000" stroke="#000000" stroke-width="1.0" stroke-linecap="butt" d="m641.50134 213.89862l1.6652832 -2.3782806l-1.6652832 -2.3782806l-1.6653442 2.3782806z" fill-rule="evenodd"/></g></svg>